<mxfile host="app.diagrams.net" modified="2024-08-10T04:09:28.094Z" agent="Mozilla/5.0 (Macintosh; Intel Mac OS X 10_15_7) AppleWebKit/537.36 (KHTML, like Gecko) Chrome/127.0.0.0 Safari/537.36" etag="2QXpMxynIWlvQfL-JQaA" version="24.6.2" type="github">
  <diagram id="C5RBs43oDa-KdzZeNtuy" name="Page-1">
    <mxGraphModel dx="1514" dy="2131" grid="1" gridSize="10" guides="1" tooltips="1" connect="1" arrows="1" fold="1" page="1" pageScale="1" pageWidth="827" pageHeight="1169" math="0" shadow="0">
      <root>
        <mxCell id="WIyWlLk6GJQsqaUBKTNV-0" />
        <mxCell id="WIyWlLk6GJQsqaUBKTNV-1" parent="WIyWlLk6GJQsqaUBKTNV-0" />
        <mxCell id="9ebifKDBvj5PMloUpHeM-0" value="&lt;a class=&quot;CID7de4941e-c682-47b8-90a9-9b0e9ecd5e30&quot; data-sessionid=&quot;032ac9bb-1d08-b317-0124-872d69ab674a&quot; data-shapeids=&quot;2&quot; data-slideid=&quot;&quot; style=&quot;color: rgb(0, 0, 0); font-family: Times; font-size: medium; font-style: normal; font-variant-ligatures: normal; font-variant-caps: normal; font-weight: 400; letter-spacing: normal; orphans: 2; text-align: start; text-indent: 0px; text-transform: none; widows: 2; word-spacing: 0px; -webkit-text-stroke-width: 0px; white-space: normal; text-decoration-thickness: initial; text-decoration-style: initial; text-decoration-color: initial;&quot;&gt;&amp;nbsp;&lt;/a&gt;&lt;img src=&quot;data:image/jpg;base64,/9j/4AAQSkZJRgABAQEAYABgAAD/2wBDAAUDBAQEAwUEBAQFBQUGBwwIBwcHBw8LCwkMEQ8SEhEPERETFhwXExQaFRERGCEYGh0dHx8fExciJCIeJBweHx7/2wBDAQUFBQcGBw4ICA4eFBEUHh4eHh4eHh4eHh4eHh4eHh4eHh4eHh4eHh4eHh4eHh4eHh4eHh4eHh4eHh4eHh4eHh7/wAARCANDAwkDASIAAhEBAxEB/8QAHwAAAQUBAQEBAQEAAAAAAAAAAAECAwQFBgcICQoL/8QAtRAAAgEDAwIEAwUFBAQAAAF9AQIDAAQRBRIhMUEGE1FhByJxFDKBkaEII0KxwRVS0fAkM2JyggkKFhcYGRolJicoKSo0NTY3ODk6Q0RFRkdISUpTVFVWV1hZWmNkZWZnaGlqc3R1dnd4eXqDhIWGh4iJipKTlJWWl5iZmqKjpKWmp6ipqrKztLW2t7i5usLDxMXGx8jJytLT1NXW19jZ2uHi4+Tl5ufo6erx8vP09fb3+Pn6/8QAHwEAAwEBAQEBAQEBAQAAAAAAAAECAwQFBgcICQoL/8QAtREAAgECBAQDBAcFBAQAAQJ3AAECAxEEBSExBhJBUQdhcRMiMoEIFEKRobHBCSMzUvAVYnLRChYkNOEl8RcYGRomJygpKjU2Nzg5OkNERUZHSElKU1RVVldYWVpjZGVmZ2hpanN0dXZ3eHl6goOEhYaHiImKkpOUlZaXmJmaoqOkpaanqKmqsrO0tba3uLm6wsPExcbHyMnK0tPU1dbX2Nna4uPk5ebn6Onq8vP09fb3+Pn6/9oADAMBAAIRAxEAPwD7LooooAKKKKACiiigAooooAKKKKACiiigAooooAKKKKACiiigAooooAKKKKACiiigAooooAKKKKACiiigAooooAKKKKACiiigAooooAKKKKACiiigAoooJwMngUAFFcLqPxM0uS/l0rwlpuoeL9SifZKmlqpt4GzgiW5ciJCO67i3+zUX/F4NVGR/wh/heMnoRPqcwH5woD/30KAO/orgW8EeLrxt2p/FfxEo7x6dZWdsn4ExO4/76pZPhdptyc6j4q8cXp77vEVzCD+ELIP0oA72iuEj+EfgRR8+n6jO2Mbp9ZvJWx9WlND/AAf+GsgxN4Ts5znO6Z5JG/NmJoA7vNFcHH8HfhnEd0PhCwhfs8RdGH0YMCPwpp+F1hZhv+Ed8V+MNAY8qtvrElxEp9o7nzUA9gKAO+orzu4uviT4PBuL4W/jjRk5la0thbanCvdhGD5U+OuF8tvQMeK7Hwxr2keJtFg1jQ76O8sps7XTIKsDhlZTyrA5BUgEEYIoA06KKKACiiigAooooAKKKKACiiigAooooAKKKKACiiigAooooAKKKKACiiigAooooAKKKKACiiigAooooAKKKKACiiigAooooAKKKKACiiigAooooAKKKKACiiigAooooAKKKKACiiigAooooAKKKKACiiigAooooAKKKKACiiigAooooAKKKKACiiigAooooAKKKKACiiigAooooAKKKKACiiigAooooAKKKKAKmtanp+i6Tdatqt3FZ2NpE0088rYWNFGSSa89ttL1v4nKL/xIt7ovhB/mtdEVjFc6gnaS7YfMiHqIARx98nO0TavA3jz4mS6Fc4Phzwq8FxeQ9Re6g6iSKNx/zziQpJjuzp/d59HoAr6ZYWOl2EOn6bZ29naQKEiggjCRoo6AKOAKsUVxPxp8Val4R8FpfaOkB1C81G0063eeMvHE08yx+YVBBbaGJxkZIHNAHbUVw3g/UvEtj46v/CHiXU7bV/8AiXRalY30VoLdipkaOSJ0BI+UhCGHUPg9MnH+FnijXNduYtV1nxn4f+zXk10kOiLaLHcx7J3jjxJ5uW+VATlOSeooA9RorlPiZ4jvtC0qzs9Dhhn8QazdLYaVFL/qxKVLNK4HOyNFd29duOpFbnh6xudN0OzsLzUrjU7mCFUmvJwBJO4HLkKABk9h0oAq6T4ksdR8Q6noUdtqMF5pxUyG4s5I4pVYZDxSEbJB24OQeoFas88EGzz5o4vMcRpvYDcx6KM9SfSuS8M6xqM/xT8Y6DcXTTWVnbaddWqMqjyTMsyuoIGSuYQ3OTlm5xgDl/2o7DVdS8EaLaaFMIdW/wCEgtJbFj08+MO8YPsWUD8aAPUb++srCOOS+u4LVJJUhjaaQIGkdgqIM9WYkADqSa4fxX4a1TQNbuPG/gW3WS+lAbV9GDBItWUfxr2S5A+6/RgNrcYZcrxnrWn+MvB3w81a3QeXqniPTbiKNx88boWldCOzL5bqR2wa9VoAyvCXiHS/FGg2+taPM0ttNkEOpSSJ1OHjdTyrqwKlTyCDWrXnV7Cvg/4vaddWZ8vS/GTyW15bgfKuoRQtLHOo7F4opEf1KRn1r0WgAooooAKKKKACiiigAooooAKKKKACiiigAooooAKKKKACiiigAooooAKKKKACiiigAooooAKKKKACiiigAooooAKKKKACiiigAooooAKKKKACiiigAooooAKKKKACiiigAooooAKKKKACiiigAooooAKKKKACiiigAooooAKKKKACiiigAooooAKKKKACiiigAooooAKKKKACiiigAooooAKKKKACiiigDgPhyPsvxI+JNjJjzZNUtL5BnkxSWUMan6boJB+Brv64D4iWOo6D4gtfiLoVpNeyWtv9k1qwgTdJeWO4sHQd5YWLOo/iVpF6kV2Wg6vpmvaPbavo97DfWF1GJIZ4W3K6n/PTtQBdryv9p62ub7wFpOnWd41ldXfibSoYblUDGBzdJtcA8HB5x7V6pXK/E/wrd+LtBtLPT9Vj0u9stSttRtriW289BJBIHUMm5cgkc/MKAPPvgr4b17wl8V9b0nxP4hk8RX0ug2lxbXTyTN9mi8+dXiHmyOxDMA+SepIAAAFc/wDBO++EWieE1bVbO2Osz6rcX00tzpEszrN9oYxskhjOMBUI2ng8ivY/BPhFtCvdQ1nVNWn1vXtSCLd30saxARpu2QxRrxHGu5iBkkliSSa6igDyj4lN4kuvi3osHhUaW2rWvhvULrTl1NnFsZnuLSNmbYC3yxlsY/vY4zVvQPEfxEsPGnhvwz4vj8KzzalazyXA0ppzJEIUGZyXAARnZV27eC4+Y4rrPGHhDSfFD2dxevfWl9YszWl9YXT29xDuADqHU8q2BlTkHAyOBTPCPgvRvDN3d39q19e6leBVudQ1C6e5uJEX7qb2PyoMnCrgZJOM0AZfhnT72H4yeM9SltZks7nTtLjgmZCEkZPtW8KehxvXPpkVoeOdD1DXNR8L/ZDbpa6frCX940jENsjilCqgA5Jdk6kYAPWunooA8+074Zw2XjqLWo9ZlOi219Pqlno3kDZBfTRmOSUSZztIeRgmOGkc56Aeg0VyPj3xmuhzQaHotoNY8U36n7DpqPjA6GaZv+WcK92PXooLECgDM8dOmqfFfwHolu3mT6dc3OtXaqM+VCttLboW9N0k4A9drY6GvQa5b4e+Ev8AhG7a6vdSvP7U8Q6o4m1XUWTb5zgYVEX+CJB8qJ2HJySSepoAKKKKACiiigAooooAKKKKACiiigAooooAKKKKACiiigAooooAKKKKACiiigAooooAKKKKACiiigAooooAKKKKACiiigAooooAKKKKACiiigAooooAKKKKACiiigAooooAKKKKACiiigAooooAKKKKACiiigAooooAKKKKACiiigAooooAKKKKACiiigAooooAKKKKACiiigAooooAKKKKACiiigAooooAK4TVvANxY6rca74B1j/hHNRuXMt3aPD52nXrnq0sORtc95IyrHvu6V3dFAHnk3jPx9pEQXW/hbf6g4O1ptA1GC5jb3CzNFIPpg49ahPxf0+3WEar4I8faZLNII445tAkl3Meg3Ql1/WvSaKAOE/4Wfp3/Qp+Ov8Awmrr/wCIqNvixoUeftPh7xxb/wC/4Wvj+PyxGu/ooA87f4zeCUmjhdPE6yyAlEPhfUQzAYzgeRzjIz9RUn/C4PB//Pv4q/8ACW1H/wCMU/xUCvxv8DSEEqdM1dB7Mfshz+Smu9oA4GP4q6PcHbY+GvG943YJ4Zu4x+cqKP1o/wCEy8bagGGi/CzVYv7sutajbWiH8I2lf/x2u+ooA8/OhfEzXuNc8W6f4ctGA3W3h628yc+oNzOD/wCOxKfeuh8HeD9A8Jwzro9my3Fywe7vJ5Wmubph/FLK5LufTJwO2K36KACiiigAooooAKKKKACiiigAooooAKKKKACiiigAooooAKKKKACiiigAooooAKKKKACiiigAooooAKKKKACiiigAooooAKKKKACiiigAooooAKKKKACiiigAooooAKKKKACiiigAooooAKKKKACiiigAooooAKKKKACiiigAooooAKKKKACiiigAooooAKKKKACiiigAooooAKKKSRgkbOeigk0ALRXlHgKHx94z8HaT4vHxEuNLXV7VLxLGHSbV4oEkG5UDMpZsAgZJ59q1NS8L/FKeyuLa1+KVhAZo2jWZvDamSIkY3KRMBuHUZBGe1AHodFeS2XgX4y+faxah8blayjG2X7J4at47iQAf33ZwDnHO01tf8IB4lP3/AIveND67YdPX/wBtaAPQKK8s8TeHbHwzp8N54n+L/jW2tp7mO1jklvbeLfLIdqKPLgB5P4AAk8A1tN8NoZAfO8beOZCR1GuSR/8AoG2gDuaK8/Pwo0Zx+/8AE/jyc+reKr5f/QZBSj4P+C2GJ/8AhI7r18/xLqEmfzmoA7+iuEX4R+BVUKthqYA6D+273/49S/8ACpfAvfTtRb/e1m8P85aAO6orhf8AhUPw6zk+HEY9y11OSfrl+aT/AIU/8Ne/hGxP1L//ABVAHd5pNy/3h+dcKPg/8M+/g7Tm9mDEfqaX/hT/AMMP+hH0X/wHFAHhnjnwV4h8PfFrR9Ps9N8YeJftdzeXVhqFp4guoCsckbZhmkMm2Hy5DH8ygb4yBhmUg/RXw40rWdB8G2Om+JNcbWdTjDtPdOxP3mLBAzfMwUEKGbkhcnk1kf8ACn/hf/0I2if+A4pr/Bv4WORv8CaG2OxthigDtZLyzjz5l1AmOu6QCoDrOjg/8hWw/wDAhP8AGuUj+D3wpQgj4c+FSR/e0qFv5rU4+FHwvA/5Jz4R/wDBNb//ABFAHR/21o//AEFrD/wIT/Gj+2tGxn+1rDH/AF8p/jXOf8Kp+F//AETnwj/4Jrf/AOIqRfhf8NF+78PfCY+mj2//AMRQBvf25ov/AEGNP/8AAlP8ajl8R+Hocebr2lx56bruMZ/Wsf8A4Vl8N/8Aon/hT/wT2/8A8RUkPw5+HsJ3Q+BPC8Z9V0mAf+y0AW5PGfg+NisnivQkYdQ2oRA/+hU3/hNvBn/Q3aB/4MYf/iqeng/wki7U8LaGq+g0+ID/ANBp3/CI+FP+hZ0X/wAAIv8A4mgCL/hNvBn/AEN2gf8Agxh/+KqSLxf4TlUtH4o0RwOpW/iP/s1L/wAIj4U/6FnRf/ACL/4mopvBXg2cYm8JaBKP9vToT/NaANG31jSLjHkapYy56bLhGz+Rq6jq4yjKw9Qc1x918K/hjdZ+0fDzwnIfU6RBn89tVR8HfhimfI8F6Va5Of8ARUMH/oBFAHd0VwMnwh8Dtkw2+t2rYwGttfvoiPptmqT4By3U/wAJdDuLzUL3UJZUlkE95O00pUzOUVnbltq7VyecCgDuqKKKACiiigAooooAKKKKACiiigAooooAKKKKACiiigAooooAKKKKACiiigAooooAKKKKACiiigAooooAKKKKACiiigAooooAKKKKACiiigAooooAKKKKACiiigAooooAKKKKACiiigAooooAKKKKACiiigAooooAKKKKACiiigAooooAKSRd0bL6gilooA4L9nc/8WO8HJjHl6VDEfqo2/0rF8f/ABR1jRtf8T2eg6PpF7ZeEtNg1DWZr3UHgkPmiR1hiURsC+yPILEAl1HvW98A/wDkjvhoelpgf99tXjX/AAimt6n+0/8AEfWrLSdP12HTZNJuP7Jv7qWCO4Y23ySKQTGXQo20SIwycgoeaAPbPib4j1HSfBlpe6K8Npfalf2NlDNdRb1t/tE6RmRkyMlVYnGQMgZq14JvNUjM+m6/4o0LW7sSE20llGIJWjA58yLew3A91OMdhXJfEaC7+Jfwe1a1m8F6va3lteQSHSdSjjWS5ME0UzKhDlHV1DIGDYOTTPAWn3MPjWwuPD3we03wfoQgmS9urq1tILxiQPL8sQOxAyCGVgOCDnjBAMj4+av4XuviT4Y8IeLLXUL3TX0y/u3trGwnupXmkQQR4WFWYERvctuxwVBrpPgH46j8UaFc6DqF3cSeINCkNrdi6tZLae4hB/c3LRSKrL5iYJyB8wYdMV0GiaDfQ/E7xJ4mvAggu7KysbEB8ny4vNdyR2y8xGP9nNV7Pw/rlv8AGjUPE6/2emh3mhw2bhGf7RJcRzMyFl+7tCySAEHPIGOKAOP8XeNvHPhr4oa+8jaff+E9I02z1K4sorYi5jtJWmjllV8/M8bQs5XGGQ4GGHPsEE0U8CTwyK8Uih0dTkMpGQRXgd38QtBl+JnxDvrqNxFHpkHhywtAQ9zqt1FJdGVIIR8zANKEzjHGcgc11Wvf234c+BfhvwetwY/EupWlj4fikR8mOZ4gk0oPfy41lk/4BQB0Hwz1vVte0DW9faQ3Vpc6pdNoiuAubWPEacjqrujuCedriufj8Z6r4gX4TalY3B04a9dyNqdqq7h8ljO8kJzyNsqY9QVr0nRNNs9F0ay0fToVgs7K3S3t416IiKFUfkBXluieD/EWm/GS3gXTgfCdleX+t2V4JVxHNdRqj2+zO7PmPcSZxjDgdsUAUtd+MtlP431LRLPxj4T8O6fo16LS7mv83N3dSLgyrFErKI1BOzexb5g3y8c9x418afY/Dmi3Xhf7LqN94ivIbPR2lLeQzSKzmVyvOxY0d8cE7cAgmuf01fHXhfW/EunaP4ITV49R1eXULLUZtSht7VUlRCyy/elDK4fhYzkY5rJ+JWl+MZdP+Htjq/iOCHX5/FMwXULC0XZa77K98sKjjD7AQMsBuxk4NAGra+P/ABRpk11outWuiajqtn4hsdKkuLZ5baGWK6jV1dUIlIkXcQULYwN24Diup+IHjM+FLnRbOHw9qeuXmr3Elvb29i0KtuSJpWyZXRfuoxxnJxXmnizwzqXg79nXxaNebT5tYtJDqkerQzyNLeXSFHjupN4yku9QAgZlAVQDj5R1Px50ybVU8Dxwane6VN/wk8C/bLMqJole3uEbaWBAyG25xxmgDWtPiCfs2o32seD/ABRotjYxw/PcWJmlmkkdlMccUBkZ9uFJZcj5/Y1ef4g+Ez4F1Hxpb6ol1pGnQSTXTRKfMjMYy0bRnDLJxjYwBzxVbR/B+s6Jrtpeaf421u9sMst9Y6s63SyrtO1o3wrRuGx3KkZ+XOCOM+J/g3w74y+K+kaBBYmKcxLqHiaa2maIXFmjYgt51UgSGSVcjcCQsT4IzQB7HE4kiSRQQGUMARgjNcf8bfEzeEfhXr+uRXcNpcxW3k208zYSOaVhHGxPoGdSfYV2QriPi7oc3iS08O6OdJ/tLT5NdtpdSRgpjS3jDyEurH5lLKi4AP3hQBy37POt6Ha3Or+BtK8SQ67Z2pXUNIu1vPtBntZABKCxJO5JxJuGeA6etdR8VfFN3o0mh+HtHvrCx1nxBdtb291eEGO1iRDJLNsJG8gAKq9CzrnjNeW+PvhhrngfUrPxV4B0JNffTrmOa0jUKNRtUBw1t5hwbi2ZCyhXJeM7SpYKFHf/ABe8M3uua/4X1aLwdY+KrSxS8iutPvJIVX98ke1z5oKnBQjjJ5FAG34k03xjH8NJtO8M+IjfeIgi+VqN4sUbyjzAXxtj8tWKblU7CAdpIPNYXwh1u6XVbzw94h17xI2teUJk0zxBa20cyIpw7wy26LHPHkrypbbxnGcVQ8CeFfiJp0+s2Vouk+DPD1xZsumWFtOl99guy2RJGvkxqsZ+YtGS+ScgrzW/pHhDxXeeLdK8ReNPEmmXzaP5zWNrpemNaoHkjMbPIzyyM3yscKMDPJzgUAd7Xh8HxHk0L4seOfBNjDPrfiW71SC40zT5bjyoYYGsLXLvK/CRh93yqGYknCnNe4V53Y/D+x1bxV43uvGHh7TNR0/VdRtprFblEmJSO0hjL4Iyh3q3vxQB19vdajpvhY3uvtazX1tatNd/Y0ZImZVLEIGJOOMcmvMvhr4pl8VTaXruqfF3RkuJY0uZPDelyWgjhDrkQys++ZmXIBIKZI6DpXceHfAeiaB9ti0641j7FdwtC9jc6lNcW6BupRJGbZ6cEDnpXlfhP4WeJLTwZbeC08F/D/SoLVBHcaxeWaX0t5IoCC4W3Cqocqqks7k56qaAPS9a+J/gvQNfv9F8S6xBoFxa7GjfUnEEd2jIG3QsT+8AJKkDkMCMdKzvgj421b4hW+ueJ2tVtvDMl8bfw/uiKyzwRja87Z7O+cDAwFqr48utR1fUdP8AhTpFxdvfTWMdxrOsmNVNpZZKFlYDAuJSjKuANvzN/CAfQ9G02x0fSbTSdLtY7Wxs4Vht4YxhY0UYAH4CgC07bUZvQE1wn7PJ3fBDwfJ/z00uKQ/Vhu/rXUeL7+PS/CesanKwWO0sZ52YnAASNmJ/Ssn4P6c+kfCfwlpcgxJa6LaRP/vCFQf1zQB1VFFFABRRRQAUUUUAFFFFABRRRQAUUUUAFFFFABRRRQAUUUUAFFFFABRRRQAUUUUAFFFFABRRRQAUUUUAFFFFABRRRQAUUUUAFFFFABRRRQAUUUUAFFFFABRRRQAUUUUAFFFFABRRRQAUUUUAFFFFABRRRQAUUUUAFFFFABRRRQAUUUUAFDZKkA4Pr6UUUAeaeCPEvgj4f+C9M8K6/wDEPwv9v0yI29w76jDETIGO75C2VOe3arVt8Svg3b6nd6nb+O/Bsd7erGtzOuqwB5RGCEDHdzgMcfWu0/sfSfPa4/sux852LNJ9nXcxPUk4zmpP7PsP+fG2/wC/S/4UAcz/AMLS+Gfleb/wsLwns9f7Ygx/6FVWT4w/CmMZb4j+FP8AgOqwk/o1dFeeF/DN4CLzw7pFwD182yjfP5irdhpWl6fbR21hptnaQRDbHHDAqKg9AAMCgDkF+MXwwdgsPjXSrgkZHkSGX/0EGkb4ueB922K71i4I6+RoN9Lj/vmE13gAHQAfSigDzWH4i/DiDUpdSh0rWIr6X/WXKeEb8Sv9WFvk/nVTWPH3gDUfEOi6zcjxW9xpDTSWsSeGdQ2l5I/LLEfZ8khSwGCPvGvVaKAOBT4raLKcW3hvxxcD1XwveqP/AB6MVKvxHRlyvgfxyfQHRmX+bCu5ooA85t/iTrjXd6s/wp8aLaRsotZY4oGeZSo3FkaRdmGyMZbOM8VI/wARL1ypf4U+PWKNuUmztDtOMZH+kcHBP516FRQB5lr3jIa9pFzpGsfCHx3eWF0myeCS0tdrrnOD/pHtVw/Ea+bG74V+PsA5GbO1OD/4EV6DRQBwj/EkRbVufAnjeCRjhUOlq5Y4zwUdgeM9+1YmgeKNF0XW9d1iPwn8RGu9auI57lp9BmkC7IxGqJtXhAB055JPetn4gYb4nfDZCM41C+cD0xYzDP8A49+td7QBwH/C2NCX/X+HvHEH+/4Vvj/6DEaT/hcHg0f6yHxRGfR/C+og/wDoivQKKAOBT4veC27+I1A6lvDOogD/AMgVInxc8AsMtq93EB1MulXcYH1LRDFd1RQBwcnxi+GcbbZPF9ghx/Erj/2Wk/4XL8Lv+h20n/v4f8K72jFAHBf8Ll+F3/Q7aT/38P8AhR/wuX4Xf9DtpP8A38P+Fd7ijFAHAn4zfC/t4y09v90O38lo/wCFzfDH/obrP/v3J/8AE131FAHAf8Ll+F+c/wDCYWAPukg/9lpf+FzfC/8A6HLT/wAn/wDia76igDxv4n/Eb4f+K/B114asvHmi2kOplba/mnMg22jHEwT5cbymVGSAN2e2D6/ZvbyWcMlqyNbtGrRMn3ShHBHtipaKACiiigAooooAKKKKACiiigAooooAKKKKACiiigAooooAKKKKACiiigAooooAKKKKACiiigAooooAKKKKACiiigAooooAKKKKACiiigAooooAKKKKACiiigAooooAKKKKACiiigAooooAKKKKACiiigAooooAKKKKACiiigAooooAKKKKACiiigAooooAKKKKACiiigAooooAKKKKACiiigAooooA4Txn5cvxW+H+1gWjk1FuD/07YP8A6EK7uvlLxd8JdU0H4lWFl4R0e1a1uWvrm112HUpLCaxeXadtzJF80mxiSmeXU7G+6Wr6b0q5httLtLa81i3vLmKBEmuC6qZXCgM+AcDJyce9AGlRVb+0LD/n9tv+/q/41JHc28n+rnif/dcGgCWik3L/AHh+dG5fUUALRRRQAUUUUAFFFFABRRRQAUUUUAFFFFABRRRQAUUUUAFFFFABRRRQAUUUUAFFFFABRRRQAUUUUAFFFFABRRRQAUUUUAFFFFABRRRQAUUUUAFFFFABRRRQAUUUUAFFFFABRRRQAUUUUAFFFFABRRRQAUUUUAFFFFABRRRQAUUUUAFFFFABRRRQAUUUUAFFFFABRRRQAUUUUAFFFFAHmHhfxD8TfFVld6rpCeELawXUr20gS6juDLtguZIQWKtjJ8vPHrWnJb/GGQHZqngW2P8A2D7qX/2stM+A3/Im6knZfEmsj/yo3FcF8e9Tj1Lxrrmh3F7fWkPh3wPda9bS29y0Sx3pkKRSHaQWZfLO0HI+c8UAd6NF+Lkx/fePvC1uPS38Myk/m92f5VMvhn4hMB53xOKnH/LDQoFB/wC+i1R6v4u8TQ32h6BoHh6z1TWbvSzqF79uv2tIbeNTGhG5Y5CXZ3OBtAwrc9K6Dx74hXwr4K1XxFLAZ2sbVpI4FPM0vRIwfVnKqPrQBi/8Iv47/wCioXf/AIJrT/4mm/8ACMfEL/op7fjoVv8A41Z+EXiDW/EXhFpvEsFnBrljf3VhfpaBhD5kMrKGQMSQGXa3J71zniPxh460/wAX+J5tNtNK1HQvDi20lzpy27rezQyQ+Y8kcu8oXXDYQoN2MbgeaANl/Cfj2QAN8VL6P1MOi2Y/Lcjf1qKPwh4wkBMfxg15wrFTt03TjgjqP9R1rd8TeLtN0j4e3fjOF/tdlHYfbLfy+TcblBjVfUuSoHuwqL4WeH7jw14E07Tb5lk1J1a61GUf8tLuZjLM303u2PbFAHLa5pGs6RJYQ6t8ctasX1C7WztA9jpqGaZgSI1zb/eODgVbvPBb6fbi6134seMREZEiEkt7a2yF3YIi/u4V5LMAB3JHeuJ8Cn7V8XbHSblRLc2OveJdRuNxyUPmQJAT/wBsrlMe2K0/FupXc3x6uo7rwhrfiux0HS7G5sbexlg2WdzNJcbp2jllQO5EShW+bZtOMbskA6i/8AaPY2kl5qPjnxlbwRjMk83iWeNFHqTuCiqs/wAPvDkmkyaw3i7x1f2KwNOGt/FF64dAM5QRSZbIHAGc1z3jvxBb654z8AxeJ/Dt9p+lH+1tQn03UFjleR7SBTGzRxO6vje7Bck5AOMgVa+GMOm6v+z5rflNYvYaumqXcdpbzJKtrBcvLIkJ2kqGCuMqOAcjtQBvW/wn8EzWiXEj+KJkkQSf6V4k1LOCM/MrTZB9iKbpXw0+FmraTb6la6bDq+nTxCSGebUp7qKRD0ILyMCK6T4aXEt98N/DN3cNvln0i1kkJ53M0Kkn9a8A+G3w7upfDd1Da/DPwLrVnp+rX1li71Ge3mmEFzJGA8flPGWIUck4PBOKAPZ4vg98KVUY+HXhV/d9Licn8Spp3/CofhV/0Tfwl/4KIP8A4mob7x1ceHZtNm8SeG7rRdBu7FSblV8/+z7kE7oZxFuCIV27ZASuQQSOMy/DXxdN411rxBq+m3SXHhSCSKy0uVYsC4lQMbiVWPJXc6xjtmJsdaAF/wCFQ/Cr/om/hL/wUQf/ABNMf4OfCliD/wAK78MoR3j06NP/AEECu6rzP4sa54rh+Ifgbwn4Y1qHR/7b/tB7i4ksluf9RCropViPlJPOCD6EUAaX/Cn/AIX/APQjaJ/4Dig/B/4YY/5EjRh7iDBqz4J8ValeX2peHPFFjBY+ItKiWaUW7E295btuCXEJPIUlWBU8owwSRgm78Ldfu/FXw48O+Jb6GGG61TTobuWOEEIrOgbAyScc+tAGSPg/8NR08I2IHoGcf+zUv/Co/h4o/d+HVhPYw3c8ZH0KuCK7mvOfHPxB07wX8RI08Sa9badoX/CPzXbpMVBadZ41XZ/EzFWYBRnOOlAFhvg/4DJJ+xauCfTXr4f+1qQ/B/wQB+6j1+A/3ovEeoIfzE1dB4I1bV9V8MJrOvaamlPcM80NruzJDb5zH5vbzCuCwHAJx2zXjfgvx9pniO7t/G3ieb4gO8kpuNM03T9E1JbC2gJ/dbvJi23DMmGZmLLlsKMDkA9EX4TeHVGE1zxug7AeLdR4/wDI1B+FGi/w+JvHi/TxZff1lrP1fxl40ke41nwzoIu/D91p4+zT6qp04adcRvKJpblJgspi2+WRtUk7D0BBo/ZysdeXwlqGv69rWp6o+u6g99atekhlt9qojLH0iV9pkCD7quq9QTQBof8ACqdI7eKvHoP/AGNV7/8AHKfH8MraAH7J418eQMerHX5Zv0l3j9K7yigDy6/i8S+EPF/gzT28aatrdjq2tSW8kd/DBvWMWNzJtLxxruG9EIyMjb1Oa9RrgvHyrdfFL4dWeRmG7v7/AB3xHaPFn87ha72gAooooAKKKKACiiigAooooAKKKKACiiigAooooAKKKKACiiigAooooAKKKKACiiigAooooAKKKKACiiigAooooAKKKKACiiigAooooAKKKKACiiigAooooAKKKKACiiigAooooAKKKKACiiigAooooAKKKKACiiigAooooAKKKKACiiigAooooA8/+AxB8IaqRyP+Em1n/wBOE9eb/EPwVqfi/wDaV1GbTL6FH0zw7ptw9jeb/seoAXVwwin2ENt3IrDqMryrDiu1/ZW0270v4OWdtfXcdzc/2hfNKVzlHN1JvRs9WD7ga9HWx02DVZ9VW3to7+4hSGa42gSPGhYopPUgF3IH+0aAPnP43W3iW9+Iei3t3c63o2sJoOTZ+Hxf3dtdMLht0UktqqShdu1g2Bg4+Vuh6SDRte8f/B/QNHi0/wAW+Hg+uxtqn9p3TyX1vHEWkWWN7gbnQTLCRuXO3Py17Y19YqfmvLdfrKKb/aWnf9BC0/7/AC/40AedfDbwXfeB/iRrkMVxrmp6PrNpHeJeXl+86x3SYSZXVjje48twwHQOvAVRVLVk8dWfxB8aQ6B4Plul12K0js9UubqKOyhCQFHeQBjKdpb7qp82OoHNepDUtOJ4v7X/AL/L/jUyXFu4yk8TfRwaAOBm8AXY0TwH4VhvYJPD3h4wPfiUHzrtrWNRbAAcBfMAkbP9xQOpr0KgEEcEGigDntO8F+HtP8dal41tLIx6zqVulvdShztZVxzt6BiEQE9wi+lZPiP4dW+seLLrxBF4m8R6S19aQ2t9b6bcpCtwkRkMeX2GRCPNf7jrnNdvRQBwdz8NdMh17wNf6Iy6fbeFJrtkgO6QzJcQsjguTksXKuWbJJznk5ro7bwn4ZtdZu9attA0yDUbyEwXVzHbKrzxkglXIHzDgdc1s0UARWlvb2drDaWsMcFvCixxRRqFVEAwFAHAAAxiqPh/Q7HQlv1sBIFvr6W+lDtn97Kcvj0Gece9aW5f7w/OkMiAcuo/GgDlvihqOu2nh6PT/DFtM+s6tcLYWtwsReOy3gl7iQgYCoiswz1YKvetfwloNh4Y8NWGgaYrLa2UIjQucs56s7HuzElie5JNWptS06HPnahaR4675lGPzNUpvFHhmBPMm8RaREn9572MD9TQBr14n8dvFmmeD/jL8M9W1ePFqI9TiMzSxxRws6267neRlVQFLnrk4wASa9Bv/iV8O7D/AI/fHnhi39pNVgB/LdWa3xf+Fc5EcfjTRbzngQS+fyP9wGgDCi1a78Qa/r3xE0XSr+fSdN8PT6fpZWBhNq0rMJWaKMgMYwY0RCfvFmI4wTP8G4/iPpXhLwroN74Q0jS9K07Tre0uHutXZrw7IgrMIo4mjByOhk/KtaT4ueDM7bb/AISG+Pb7J4cv5R+aw4pU+KGnyj/RvCPjqb0H/COXMef++1UUAd5XB3vgM6v8XrnxZrgsrzSE0OPTbSwliWUNIZZHlkcMuBwUUYPILZ7UsvxEvMf6L8NfHVzk4GLKCL/0ZMuKjXxx4xm/49vhD4mUdjc6hp8f8rhjQBo+Hfh9o3h2+mk0G71TT9PmheM6THdFrFC2PnSJs+WR6IVXk8VzGlfC3xRb+DrPwjcfFLVbfSLOzSxiTStOgtZjCihADK4kYNgfeQqc8jFbZ8S/EVxmH4ZRr6CfX4VP47Ub9M0n9vfFLt8O9C/HxMf/AJGoAl8c+GNX8Vahp2gXU0KeD0RZtUBkJuNQdW+S3bjAiOAznOW+7jBNdqqqqhVUKoGAAOAK4T+3fip/0TzQf/Cmb/5Gpy+IviSgPnfDWzYj/nh4ijYH6boloA7qiuG/4Srx53+F15n21m0/+Ko/4Srx52+F15n31m0x/wChUARXSre/tB2OWz/ZPhed9vo11cxgH8rVq76vMPBtp48f4v6t4m17wvaafpuoaZaWMRj1JJXtxA08hLAL825psDGMAV6fQAUUUUAFFFFABRRRQAUUUUAFFFFABRRRQAUUUUAFFFFABRRRQAUUUUAFFFFABRRRQAUUUUAFFFFABRRRQAUUUUAFFFFABRRRQAUUUUAFFFFABRRRQAUUUUAFFFFABRRRQAUUUUAFFFFABRRRQAUUUUAFFFFABRRRQAUUUUAFFFFABRRRQAUUUUAcXefCn4fXl9dXt14Ztppbud7iYPLIUaRzlm2btoJJJOB1JNVl+DPwpGd3w/8AD0hPeWyRz+bZrvaKAOHX4P8AwpXp8N/Cf46TCf8A2Wnf8Kj+Ff8A0Tfwl/4J4P8A4mu2ooA4k/CL4Vkf8k38Jf8Agog/+JqI/Bv4Tkk/8K58Lg+2mRD+ld3RQBwS/Bn4Vo26PwLoieyQbR+Q4p//AAp/4Y/9CTo//fmu6ooA4X/hT/wx/wChJ0f/AL80f8Kf+GP/AEJOj/8Afmu6ooA4X/hT/wAMf+hJ0f8A7801/g58L3G1vBGkEf8AXL/69d5RQBwP/Cl/hR/0IGgH3NoppV+DHwoU5/4V74cb/esUYfqK72igDw7wj8Lvh7bfG7xlp8ng3QHtV0zTLq0tJNMgaKIObhHZAUyCWi5554r0628A+BbVg1t4L8OQkdDHpcKn9FrnP7S02H9oRAl7alr7wuY2IlXloLoYXr1/0g8V6NQBnWmg6FaY+y6LpsGDkeVaov8AIVoIqoMKoUegGKWigAooooAKKKKACiiigAooooAKKKKACiiigAooooAKKKKACiiigAooooAKKKKACiiigAooooAKKKKACiiigAooooAKKKKACiiigAooooAKKKKACiiigAooooAKKKKACiiigAooooAKKKKACiiigAooooAKKKKACiiigAooooAKKKKACiiigAooooAKKKKACiiigAooooAKKKKACiiigAooooAKK4BfG3inWoI77wX4Jh1TTy00b3GoastmfMimkhdFRY5CcGMnJxww684P7f8AiweB8N/D4Pq3ilsfpa0Ad/RXADU/jFKfl8H+C7cf9NPEVw5/S0FSJL8YZFw9l4EgOeou7qXH4eWufzoA7uiuFMfxfY4F54FiH977LdP+nmL/ADqI6f8AGSRj/wAVT4HgXtt0C5c/rdCgDv6K4BdD+LbHdJ8QvDKf7MXheTH63Zp39g/FX/oougf+Ew3/AMlUAd7RXBf2D8VDwfiNoQHqvhg5/W5pX8J+PrhALj4rXsJ7my0W0jz/AN/FkxQB3lFcB/wr3XZB/pPxa8cSf7n2GP8A9BthUq/Dq4JBm+InjqYj/qIRJ/6BEKAO6pJEWSNo3UMrAgg9wa4OT4XabMQZ/FnjuQ98eJrpM/gjj9KafhL4cb72teNm9c+LdR5/8jUAeO6h8CtUsPH9noWieE/B9z4cGn30cGrahp6ytAsskDIkqKAZZ4triOQsNysckFTu+kPDGljQ/DemaKLy5vRYWkVt9puX3SzbFC73PdjjJrkV+EHgvGJD4kmHfzfE2otn856kj+EXgNBhdO1LHfOtXpz/AORaAO7oyPUVw3/Co/h6c+Z4fMxx1mvbiT/0JzTT8HfhifveC9LY+rISfzzQB3W4eoo3D1FcJ/wp34Yf9CVpX/fs/wCNH/Cnfhh/0JWlf9+z/jQB3mR6iiuE/wCFO/DEfd8GaWp9VVgfzBp3/Covh1gBfDUKkdCtxMp/MPmgDuaK4b/hUngH/oDXH/gyuv8A45TJfhF4HY7o7bWbZsY3W+v30R/8dmFAHeUV51ffD3QND0+41Gbxv4y0qyt0Mks0/ii4aKJR1JMzsAPrU4+Ht1JGsth8TPHEIcB1db6CZSD0I8yFhigDvqK4OPwj46tVK2vxW1Kcfw/b9Is5cfjGkZNMsvC3xJiiZbj4qJcOXZg3/CPQLgE5C4DdB0oA7+iuCk0D4qR5+zfEbRJOcgXPhnd+GUuFrV+FniK98UeDIdT1OGCK+jurqyuRACI2kt7iSBmQEkhWMe4Ak4zjJoA6iiiigAooooAKKKKACiiigAooooAKKKKACiiigAooooAKKKKACiiigAooooAKKKKACiiigAooooAKKKKACiiigAooooAKKKKACiiigAooooAKKKKACiiigAooooAKKKKACiiigAooooAKKKKACiiigAooooAKKKKACiiigAooooAKKKKACiiigDgPgN8ngzUbXn/RvEesRAeg/tCcj9DWtoHj/wAM69411bwjo95JeajpEYe9eOFjBES23Z5mNpcHOVB4we4OOBttW1DQPgz8TNS0pil9Y6xrbwOFz5bGZ2D4/wBndu/Cus8PeIPh34M8O6F4d03X9OeORY7axhtpvtE10xxlwqbmcksWZsdyxPegDrbnWNJtdXtdIudSs4dRu0d7a1kmVZZlXG4opOWAyM49azte8YaDofinQPDWpXZh1LX2mTT49hIkMSBnyeg4IxnqTivFYzp/iv4k3Fi6i68Yf8Jgsk5I3SaTpVhKHi/65JLsXH983DHkA46L42eGNe1/4iaXqOg2Jn1HQ9Fkv9NZ/kje6S9tZPJLn5VMkcTp16Me1AHoeqeNNEs/h/qfjaKWS80rT7W5uHMSENIIN4dVDY5yjAdj645o8JeNdF8UXa22ltM7nSrPVQzIApguvM8vBz97902R24rgvEnh3VtH/ZnsvBMljc3+q3dna6VdLaJ5gSSd0SZz/sKWclvQVvfCT4czeBtU1ueTVI722uFitNMiWIobWyieZ4omOTuKmdlzx8qr3zQBteCPGVr4pj1C8t4I7fTYbyS1sriS4UteeWxR5An8Kb1IUk5YDOAMZueMfFWmeFrW1kvlubi5vZxb2VlaRebcXUpBO1E74AJJJAABJIFeLeDfhTd2lho2j3nwh8DG4s7hBqWu6j5Mz3MayZd4o0QsXZehdlwTkg4ruPEdv4r0/wCLc3iS28Gz+JLVdKis9LeK+t4VsmZ3a4LCRgwL4h+ZQ3CAeuQDb8a/EfR/CerWumX2l+Ibu4uiixmx0ySZN779qbwNpciNztBJ49xnqdJvodT0y21C3S4SG5iWVFngeGQAjIDI4DKfUEAiuH1rSvHHijQNPl1TTdF0nU7DXrK/t4IL97hfIjlUyh5DGvzmMyABQR0Gea9CoA5bxzpfii8lt73w/wCMW0GG1hlM9v8A2dFcrcsdpUkvhlC4bhSM7vasD4H6r481jwVo3iLxfqug3tlqOkw3okt7N7aeN3RWw/zsjAAnJAXtxXdeIrFdT8P6jpreZtu7WWA+W5VsMhXgjoeetcT4T8Maw37OOneDZs6brD+FU05t5ybec23l84/use3pQBR8KfFS71XxOjah4cvtO8KavJFb+HNVaIMl9Id/zOVctEr4HlhkGRzu+YKPQvEVtql5o1xbaLqkelX7geVdvbCcR8gn5CQGyMjr3zXnugaP4t8Q6h4Xt/EHh1PDeieGdk/kfbI52vrpIzHFt8skLCm5m+bDFgnyjBz6lQB5BbH4rf8ACxdR8Jp4+0dlttLttRhuLjw6G8wSSzRshCTLjaYlOc87vaup1vxRrFnquk+D9IhtNX8TzQxz6hNsaK1s7fO153XcSu4hhHHuJJB5wrGq0Frq4/aFubyWEnSm8LRxwSrEQBKLpi6M3QnG0gehNVrnw38QdM8ZeJdU8M3PhloNemhl+1aj5xnsxHAkQjEaDbIoKs4+deXb60Ach+0l4m1fT/EcNjpWrX9gdI8N33iILaTmPzp4ZoEhWUA/NGd0i7Dwxb1HHuyNuRWIxkA4rzzWfh5b698TNF8QeI7K01a303RTb+bINu66E8civ5YOCPkLAHIBx9a9EoA8/wDFepeLtS+I3/CK+Fta0/RxZaOmpTy3Wn/ahM8kzxxoRvQqoEUhODnkVv8AiTxBJ4S8CTa9ryC8uLO3Qzx2Ee37RMxChIlduNzsAAW7jmvD/jl8N7qf4xTeMdM8K3WsLdaTCrobJby3muEkYFJAZFkh/diPDxnGckhua9AtvAH9s/CODS7GwfwbqN9PZalNazTPfJaXEM0U3l7WcArmILhSo5z1oA6Pw34/0fxBf+H7XT4Lpv7c0ibVYXdQvkxxvCjJIM5D7pgMdirVwup33ja7uvHvifS/FF6k/hTU3itNG8uH7FdQR2sM7Rv8nmb3EjDfv+U7TjGQdT4eeBNc8PfFrW9SuEtv+Edjt5xozJJlx9rnW4njZf4QsqMR2w4A6Gs+LwD8Rr7VvG+nX2saFpnhzxLq7XEstkkr3ptTBHCY13fLG7JGAXy2DuIAyMAG38Z/E80HwmtdU0q5urRdYu9NthPbvtmihubiJHKNn5X8t2AOeCQe1Z3hjx5ZeD/h9rVxr2qXWrQ6PrlzpenytKJZ71Qd8Ue9iAzKrFWdiABGzMRhjT/2l9DW7+DiaVZad9qgg1PS1FqsXmAxLdwqVK85Xb19qr/EXwf4hi8SeHLLwH4d0+20q0029tbZ0EUVrpdxO0Sm5aLgsVh84KFByzkHAJNAHU+PLzQtV+DGp6x4nsZZtIOknULuCyuVkkCool/dSowBZSoKsGAyAc0vxO8YxfDv4SX3i4QTaommW0JVJZcPPudIwWbHU7gScVU8d+FX039nzW/Bfheyku3g8NzadY2+cvLiAoo92P6mtDxT4Tk8WeDtG0O+mW2to7myur+F4t5mSBll8rrgZdEyeeAwxzkAGoni3QWmSI3wVn0v+1slTtFrkDzCcY79Otc3pPxk+Hmqa5Po1jrhnuYpYogY7aV0kaQDbhlUjGTjJxyDWb8HvBHiTwz4jvG1yS2k07TNMh0XQ3jlLvLapNLIHkBHytsaGMjJyYie4rd8J2N/D8WPHGoT2U8Nncw6bHbzOuEnKRyb9h743AH3oA7WvP8A9n7n4dyP/f17WW/PUrmvQK4H4ALs+GsY651fVTn1zqNxQB31FFFABRRRQAUUUUAFFFFABRRRQAUUUUAFFFFABRRRQAUUUUAFFFFABRRRQAUUUUAFFFFABRRRQAUUUUAFFFFABRRRQAUUUUAFFFFABRRRQAUUUUAFFFFABRRRQAUUUUAFFFFABRRRQAUUUUAFFFFABRRRQAUUUUAFFFFABRRRQAUUUUAFFFFAHBfBwBrXxcrAEHxVqIIPf94K6jRvDXhzRbmW50fQNK06eb/WyWtnHEz/AFKgE1ycPgnxPof2m08F+J9P0qyvL+61K6a+0w3krTzylyq4lRVQZwOCfen/APCP/Fb/AKKRof8A4TB/+SaAO8EaLI0ioodsbmA5OOmadXCL4a+JDqBN8TbdSO9v4eiXP/fUjUf8In47Y/vPitqK/wDXLRrNf5oaAO7orgH8F+OGY/8AF3teUei6Vp//AMZpP+EF8YN9/wCMPir/AIDYacP/AG2oA9Aorz//AIV/4mbiT4v+NCP9iHTlP5i1pw+HOosoWb4oePZPpdWqf+g24oA76iuFj+HMyrtb4h+O3HfdqUefzEWabL8L9Om/4+fFvjqYen/CSXMY/wDHGWgDvKK8/wD+FQ+FD9/UPGDn1bxXqOT/AOR6P+FQ+Ef+fzxb/wCFVqP/AMfoA9Aorz//AIVD4R/5/PFv/hVaj/8AH6UfCHwf0efxTIPR/FGokf8Ao+gDvWkjWRY2dQ752qTycdcCnV4V4++Fvg3T/Hfw/wDJttW8q+1W5srjfrl6zFGsp5AAxlyvzQqeCM45ruv+FSeCP+fXWf8Awf3/AP8AHqAO7orhP+FReAW/1mlXsv8A111e7f8AnKaVPhH8PUGF8PnHob24I/8AQ6AO6orhT8Ifhyevhe3J95pf/iqP+FQ/Dj/oV7f/AL/S/wDxVAHdU0yRr951H1NcOfhB8NWBV/CVjICOkjOw/VqYvwZ+FCj/AJJ94df3eyRj+ZFAHdebF/z0T/voU4Mp6MD+NcJ/wpr4Uf8ARO/DP/guj/wpp+C/wpPTwDoK/wC7ahf5UAd9RXCp8H/hoihY/B+nRY6GPchH4g5ob4R/D5jn+w5VI6FNQuVI+hEnFAHdUVwLfCHwSW3Rx6/A3rD4j1BP5TUg+EnhqM7rfV/Gdue5j8V6hz+cxoA7u5mitreW4nkWOKJC8jscBVAySfwrifgCrH4P+HrpkZPt0D34DdcXEjzD9JKrXfwg8NXsEltf6x4zvLeVCkkM3im+KOpGCCPN5BHGK7zTrO20/T7ewsoVhtbaJYYY16IigBVH0AFAE9FFFABRRRQAUUUUAFFFFABRRRQAUUUUAFFFFABRRRQAUUUUAFFFFABRRRQAUUUUAFFFFABRRRQAUUUUAFFFFABRRRQAUUUUAFFFFABRRRQAUUUUAFFFFABRRRQAUUUUAFFFFABRRRQAUUUUAFFFFABRRRQAUUUUAFFFFABRRRQAUUUUAFFFFABRRRQAUUUUAFFFFABRRRQAUUUUAFFFFABRRRQBwXxaX/id/D2bp5fiqPn/AHrS6X/2au9r5w+L/wARPF2n+PdN8P6x4d8PWq6Vr0Wo2N3ca09ul3a+TcEOcwsFChWDncSrAfLhga9g+EvijXfGHhQa5rnhpdAM0zfZIhdNN58Axtm+aNGUNyQGUHGCcZxQB19FFFABRRRQAUUUUAFFFFABRRRQAUUUUAFFFFABRRRQAUUUUAFFFFABRRRQAUUUUAFFFFABRRRQAUUUUAFFFFABRRRQAUUUUAFFFFABRRRQAUUUUAFFFFABRRRQAUUUUAFFFFABRRRQAUUUUAFFFFABRRRQAUUUUAFFFFABRRRQAUUUUAFFFFABRRRQAUUUUAFFFFABRRRQAUUUUAFFFFABRRRQByvif4j+AvDGqnSvEPi7RtLvgiyG3ubpUcKehwT0OKy/+F0fCb/oonhv/wAD0/xqLRbeO1/aE8UL5a41Dw7ptyc85eOa6jJ/LZXoHlRf880/75FAHDL8ZvhS33fiF4cb6XyH+tL/AMLj+Fn/AEPmhf8AgUK7kRx/880/75pdi/3V/KgDhV+MHw1kz5Pi6xuCO0CvKT9NqnNO/wCFteAv+gtef+Cm7/8AjVdyBjpxRQBw3/C2/AX/AEFrsfXSrv8A+NVHJ8XvBKkeTNrt1nobbw9fyg/QrCQa6q01/R7zX7vQbW/in1KyhSa5gjyxhVyQu4jgE7TwTnAzjFadAHn/APwtzwv/ANAvxkR6/wDCJal/8YpyfFTR5M+T4Y8dyL2YeFb1Qf8AvqMV31FAHB/8LP0/+Hwj47Y+n/CNXQ/mtOT4kxSZ2eCPHRPYHQ3XP/fRH613VFAHByfEPUslbf4X+OpyP+ne1jH5vcCmL478Wtyvwf8AFuO26804H8vtNd/RQB4h8QNO1Lx3rfhnVNX+DOvSy+H743UC3F9ppSQFSCjDz2yu7Y31QV2o8T/EIj5fheyjsH163B/QEfrXdVR1/VrDQdCv9b1SbyLCwt5Lm5l2ltkaKWY4HJwAeBQByZ8UfEIdfhdIf93XbbH64pP+Ep+IP/RLZ/8AweWtRL8XPDDIrLpPjNgwyMeE9R5/8g12Hh3V7XXtGt9Ws4ryKCcEol3aSW0owxHzRyKrLyO45GD0NAHKf8JT8Qf+iWz/APg8taP+Ep+IP/RLZ/8AweWtd3RQBwT+L/HkeM/CbVJD38vWbIj8MyCmjxp44/i+EOvfhqunn/2tXf1S1zVtO0PTZNS1a7jtLONkR5XztUu4Rc49WYD8aAONPjjxio+b4QeKM/7Ooacf/bik/wCE+8UJ/rvg/wCMh/1zuNOf+V1W1rviiXTPiB4a8Lrpzyx61DeSNd5IWAwKjBenJbce4+6a6agDg1+I8sabr74eeO7Q5wR/ZiT/APomR6P+FoaX/wBCr47/APCXvP8A43XeVna/ruieH7MXmvaxp+lWxO0TXtykKE+mWIGaAOQ/4W54XT/j40vxlbEdRL4U1EY/EQkUq/GDwQSBv8QjPc+GtQA/9EU74V65J4s1nxV4nttVF5ojX66bpSQz74THbriSZccZeV5BkdVRPau9oA43Svif4H1TV7PSbPWnN5eymK3jksp4t77Wbbl0ABwrdT2rsq4X4wbUHg+dusfiqx2n0LF4/wCTmu6oAKKKKACiiigAooooAKKKKACiiigAooooAKKKKACiiigAooooAKKKKACiiigAooooAKKKKACiiigAooooAKKKKACiiigAooooAKKKKACiiigAooooAKKKKACiiigAooooAKKKKACiiigAooooAKKKKACiiigAooooAKKKKACiiigAooooAKKKKAPP9SkuIPjdI1jEk13J4RlZInbasjx3I2AnsCZCM+9cpa6z8Y73xB4Z0zUNa0DQJtcs7u6ktjoTSSWZg8rMRJuSHJ8z7wxwucc8dddcftC6d/teFLrP4Xdv/jSfEuQ2Pjz4c6nkKh1mewkJ/uz2cxA/F44/0oAqX+ra54I1Gy1Dx38StDfSZS6fZV0JoZp3Ck/IyyucL95vlOAOcDmu5udc0e28Pt4hn1O0TSFt/tJvTKPJ8rGd+7pjHOa8Q+K2qXdh+074W1JVnuLfStMZBaRH/XG5t9RZlAPGSbOID3rb+Dem6L44+F13awXGpwaAuu3UukPY6hNaukBYuqK8TKditJIm3oNoGOBQB6Z4V8UaD4osZr3QtQS7hglMU3yNG0b4DYZXAZeGB5HIINeaeOvjgug+GZvE2neGJr3QnuWsbDUZryOFbu45CukZ+ZoNwOZBztVmClQCfQrXw2ul+Eb/AETT9S1KczxTCOfUb2S5kRnTA/eSEtgemeK+d/Auk+Ifidb+HdOufDd5p+gaXZW2mQ3MoX7IttCqC6mhYHEsk7R+ShUYWIO2QXwQD3f4Z+EtL+HXguSGaazjuJXk1DWb/asMc1w/zyyHsqDoB/CoArY/4Szwt/Ydtrh8SaONKu3CW96b2MQysTgKr5wSTxgGvLP2mbTUNb8W/C/wrDLcDS9V19v7SijYhZ4okEhRwPvKUEmQePyrWh+E9q3xf1jWryztbjwtd6Y32fTnAaKO+nwlzII8YUtHFHyO7v3JyAdf4w8b6X4bvrbTWs9T1bU7mJp47HTLbz5hCv3pWGQFQEgZJ5PABPFbHhvWtM8RaHaa1o90t1Y3cfmRSAEcdCCDyGBBBB5BBB5ry/wPouv/AAw0651fxDY3fiaZrTTdPkuNLTz54oLe3KuxRsO6CTc2EDMd+dvWrnwh1jSr/wCIni+Lwnc/bPDVzHbaiWSNljt7+VpVuIgGAwzCOORl6hmYnlqAPVKwfHPie38K6PHeyWdzf3Vzcx2ljZW23zbqdz8sa7iAOAWJJACqxPArery74teC9X8bfELwjDFqus6JpmkxXWojUNMeNXS9VoUiRt6sCpjefgggjIPHBAOltPiF4Yb4fxeN9RvhpOlEiOdrz5WtpfM8popMZwyyZQ9Rkdcc1X8XfEbR9AsdTlitbzU7rT76z097a3CqXnujH5IDuVTB81csTgVxUvwg18pPoNz4httb8NX3iG21m/XU4lFxJty0yBYkSMBpEiONuDukJwetP/hV3jXSfhv4s0e3vNO1zVL3ULBtJeaVov8AR7U26xNMxB/eKsWTjOSue+KAPWvBHiS18VaAuqW1tc2jrNLbXNrcgCW2nicpJG2CRkMpGQSCMEHBqfxfpia14T1jR5EDpfWM9synuHjK4/Wsz4a+H9Q8P6BcR6xcW0+p3+oXOoXf2YHyUkmkL7E3clVBC5IBOM4GcV09AHj/AMN2+K3iHwD4f1ax8WeF7OxvdMtpUWbQppriH90oZS32hVYhg3O38KyPjT461rT/ABjqWg6T4juNOvPDXhKTxKYoYE2ajLHJzHKWDbY9qHKggnzQc/LXq/w+8Lw+DvDUeg2+oXd9BFNLJE1yRmNHcsIxgD5VBwPpXmHxC+CV/wCNPjDq/iS68QzaXoeo+HY9JmWz2m5lHnbpU+dSqqVVRnkncRigDqPiB8TJfDGv6JaxaQLnTpbdb3WbtpNv2C1eVIUkxj5vnk3NnACRuaufF7xzqPg2y0/+xdETWr66M8zW5m8vFtbwtLMwIBy2AqqOhZ1yQK4+++Gmm+J/i5qmn+Iz4ju9IsvDGn2kT/2jPDHeBpbsSJM0bL5p5Ukds+/N/wAA+AtZ0fxdZWN7PPc6T4aju4dNurp2ma9s73a3lMzMT5sLwhc9CjL0J4ANLwL8UovE/wAS9W8Mx2CRabHAsmk34kz9tKxQSTjHbaLqHHqCx7V5j428XR+Ovhn49sLvxgj311NNZWujQwL5dhHDe+WkhcLuaVlVXIL8BhhR1Pp/wy+EWjeDvD1jpc1zLqEum6vNqWn3OWjkgDDy0jyGyyiLbGQeGA6dK5DxL8MvidP4IfwjpWueH4dJTWjeARxzC5uoHvTOyu5IVNqucqFbdsAyM0AaHgrxFdeK/HXgKK+UDVdI0jVRrUQ6w3kT29swPoGYyMvqpBrZ1jW/iqLu/tbWb4eaZcpcOmnWt7dTSyXcf/LMnaU2FumMNg+vfvLHw/odjrt/rtnpNnb6pqCot5dxxBZZwgwu9hycCqUXgnwfHr1xr6+GdIOrXMyzy3rWiNM0i/dbeRkEYHIoA303bBvxuxzjpmvFdUvdJtLb4j/FHxHa2uoXWhXE+n6UlyoZbWKGJAI0DcK0szMS3BIZB0Ar2uvF/GXwpn8UfG+2v7rSbODwYsMd9qai6k/4m16u5Ujlt9/lMqgRMWZMnYozjIABL+ytoC6X4W1DU7aMJp+oPbrayBNv23yYVSS8I4/10vmMD3QIe4r2OkjRY0WONVRFACqowAB2FLQBwHx1YxeGdEuugg8U6MzfQ38Kn/0Ku/rgP2gP+Sau3dNX0px9RqFuRXf0AFFFFABRRRQAUUUUAFFFFABRRRQAUUUUAFFFFABRRRQAUUUUAFFFFABRRRQAUUUUAFFFFABRRRQAUUUUAFFFFABRRRQAUUUUAFFFFABRRRQAUUUUAFFFFABRRRQAUUUUAFFFFABRRRQAUUUUAFFFFABRRRQAUUUUAFFFFABRRRQAUUUUAFFFFAHlHiNviBD8b/7a0fwImpaVa6G1jDdTatHbiZ5Jo5GIGGIxsAwQM8npjOpd6t8Sb3yvM+F2gOYZBLEbvxGDscZwy4t2wRk8+9eh0UAfLvj7UPiIv7QfhWa78LeHbXUbwWxtrf8AtuSSKQwLejJkFuCP+Pk5wpxhfXj2SK8+MBUKvhnwLbAH/oN3LjH0FqKseOfAMHiXx74L8XC8+zXPhm6nkK7M+fFLEVKdeMMEOeeh9a7agDzDxfo3xe8S+F9R0Jr7whpK38Jge4tXunljRuGCkgclcjPGM5FXNL0v4q6Xptrpun3HgKC0tYUhgiWyugERQAoH73sAK9DooA87v7L4zzLGbfVPh9DKjZV5NMupNvGOP3wxR/ZPxoZELeN/BcbjBZV8NzkE+mTd9Pyr0SigDxy4sP2l7OaY2Wv/AA11SNzlPtdldQGMZPACE+vcnpUOi2/7TdzrscGtal8ONN0z5jJc2dpc3DjjjbGzpnJwOWGOTz0PtNFAHBDQPikxHmfEbRUHpF4Zxn/vq4NSN4X+IEg/efFCWMnr5Gh2ygfTdu/XNdzRQBwDeCfGzMT/AMLg8RL7LpmnD/2hSf8ACD+Nf+iw+Jf/AAW6d/8AI9egUUAeGaD4Z8fXnxX8Uaevxh8RRw6fa2G4tYWb+asizMAFMWyMhhywXLDg9AR2f/CD+Nf+iw+Jf/Bbp3/yPUnhHZ/wubx4F+99k0ot/wB8T4rvKAPPz4H8aEEH4weJSD1H9m6d/wDI9IvgbxmqhV+MHiQADAA03TuP/JevQaKAPP8A/hCfGw6fGHxF+Omacf8A2hUo8G+NAOPi1r5P+1penkfpAK7uigDhh4X+IEY/d/FCSQ/9N9DtmH47dv8AOozoPxWTiP4iaA49ZfDDE/8AjtyK72igDgG0T4ufw/ELwvn38LSf/JdINO+MkQ+Xxb4HufaTw9cx5/EXZr0CigDgPsvxnP8AzHPAK+/9kXZ/9uKT7D8Z/wDoZfAX/giu/wD5Kr0CigDz/wCx/Ggf8zF4Cb/uCXY/9uqmjj+L8a4ku/Atw3qLa6i/Te3867qigDyT4jaJ8YPEnheTR47bwPJuuLa4Egu7qIgwzxzAYMbZyY8dR1r1PTGvm022bUoreK9MSm4SCQvGsmPmCsQCVznBIBx2qxRQAUUUUAFFFFABRRRQAUUUUAFFFFABRRRQAUUUUAFFFFABRRRQAUUUUAFFFFABRRRQAUUUUAFFFFABRRRQAUUUUAFFFFABRRRQAUUUUAFFFFABRRRQAUUUUAFFFFABRRRQAUUUUAFFFFABRRRQAUUUUAFFFFABRRRQAUUUUAFFFFABRRRQAUUUUAFFFFABRRRQAUUUUAFFFFABRRRQAUUUUAFFFFAHA+E/l+N/jsHvp2ksPp/pQ/oa76vP/DRI+PfjVT30TR2H08y9H9K9AoAKKKKACiiigAooooAKKKKACiiigAooooAKKKKACiiigAooooAKKKKACiiigAooooAKKKKACiiigAooooAKKKKACiiigAooooAKKKKACiiigAooooAKKKKACiiigAooooAKKKKACiiigAooooAKKKKACiiigAooooAKKKKACiiigBAylioYZHUZ5FLXjPgL4ceB/EV34tuPEfhzTtX1K38TX0T3dzEGm2MwljQv1IVJVABPAAHauo/4Ux8Lf+hJ0r/vg/40Ad9TJJoYxmSWNB/tMBXCf8KX+FnfwPpJ+sZP9acnwZ+FCkH/AIV54ac+smnxv/MGgDq59d0OBts2s6dEcZw9yg/marP4t8KoCz+JtFUDqTfxDH/j1Ztp8M/hxaj/AEbwD4Wi/wB3SYB/7LVxPBHgtGDL4Q8PqR0I02Ef+y0ARTfEHwFA+ybxt4ajb0bVIAf/AEKoZPiX8OY1LSePvCyKO51eAf8As1a0Xhvw7CmyLQNKjX0WzjA/lUi6Doa/d0XTh9LVP8KAObPxb+Fn/RR/CP8A4OIP/iqt2vxK+Hd0VFt488LzFugTVoDn/wAerf8A7L03/oH2n/flf8Kgl8P6DMGEuiaZIG+9utUOfrxQAWviDQbtA9rremzqRkGO6Rhj8DU/9qaZ/wBBGz/7/L/jXP3vw1+Hd6/mXfgPwvO/96TSYCfz21X/AOFT/C//AKJ14T/8FEH/AMTQB1H9qaZ/0EbP/v8AL/jR/ammf9BGz/7/AC/41y//AAqf4X/9E68J/wDgog/+Jo/4VP8AC/8A6J14T/8ABRB/8TQB1B1TTMf8hGz/AO/6/wCNJ/aul/8AQSs/+/6/41y5+E3wuPX4deE//BRB/wDE0L8Jvhcp3L8OvCYP/YIg/wDiaAN+fxL4cgDGfX9KiC/eL3kYx9cmsq/+JXw7sM/bfHnhe3I7SatAp/LdT7X4eeALUg23gfwzCR0KaVAuPyWtW18P6DagC10TTYAOnl2qLj8hQByp+Mvwq3FY/H/h+YjtDeLIf/Hc5p5+Lnw927o9fMy4zmGyuJBj/gKGu3SOOMYjjVR6AYp1AHBn4veA/wDlnf6pMfSHQ72Q/wDjsJqP/hb3hRv9Tp/i+cesfhTUSP8A0TXoFFAHAf8AC2PD/wD0AfG//hJ6h/8AGaD8V9D/AIPDvjpz7eFL/wDrFXf0UAcB/wALU0z/AKFHx9/4S93/APEUf8LU0z/oUfH3/hL3f/xFd/RQBwH/AAtTTP8AoUfH3/hL3f8A8RT1+J1k67o/B/jtz6f8I7cKf/HgK7yigDhP+Flx/wDQi+PP/BG/+NNf4pachw3hHx4D3A8M3TY/ELiu9ooA4A/FjQY/+Prw/wCOLUesnhW+I/8AHYjWd4i+OPg/SdDu9Sj0/wAU3j28ZcQDw7ewl/X55YlRQOpLEAAGvUKCAQQRkGgD48+Hv7SDaz+0LFqU3hUafofiOOz0WO4luvmXZLceXKOAGBeVlIHAx1zwfsOvD9Q+Enw11L9oG4a+8F6PMj+H0uzF5GImm+0OjOUHyklcDkdq7aP4P/DSIYh8IWEAznEJePH/AHywoA7qiuH/AOFS/D3/AKFyP/wJm/8Ai6R/hF8OZFKy+F7aVT/DJLK4/ItQB2k1xbwjM08UY/23A/nVZtY0hThtVsQfe4T/ABrkovg38KYzu/4V34ac+sunxyH/AMeBq2vws+GaqFX4e+EwP+wRB/8AE0AdD/bWjf8AQWsP/AlP8aRtc0VQWbWNPAHUm5T/ABrA/wCFXfDT/onvhT/wTwf/ABNKvwv+GqnI+H3hQH/sEQf/ABNAGyfEvh0AZ1/Shnp/pkf+NRTeLvCkOPO8T6LHnpvv4h/Nqqp8P/AcYwngnw2o9tLgH/stSxeCfBkX+q8I6BH/ALunQj/2WgCrcfEj4eW7lJ/HnheJh1D6tAD/AOhVA/xS+GaDLfEPwmB76xb/APxdbqeHfD6KFTQ9MVR0AtEAH6U9ND0VDlNH09T6i2Qf0oA5SX4yfCeP73xG8LsfRNSic/oTUf8Awur4T/8ARQNA/wDAoV3UVtbRf6q3iT/dQCn7E/uL+VAHBf8AC6vhP/0UDQP/AAKFH/C6vhP/ANFA0D/wKFd7sT+4v5UbE/uL+VAHBp8Z/hS5wvj7QWPoLoE0v/C5Phj/ANDjp5+m8/8Astd4FUdFH5UtAHCR/GD4ayHEfiy0kPokch/ktO/4W38P/wDoOSH3Fhckf+i67migDhX+L3w5jXdN4mhhH/TW3mj/APQkFPtvi98LbiTyk+IXhlZP7kupRRt+TEV29QXVlZ3S7bq0t5x6SRhh+tAGEnj/AMCPjb418NtnpjVIef8Ax6pv+E18G/8AQ26B/wCDGH/4qrLeGfDjZ3eH9JOeubOPn9KgPg/wievhbQz/ANw+L/4mgBv/AAmng7/obNB/8GMX/wAVR/wmng7/AKGzQf8AwYxf/FU7/hDfCH/Qq6F/4L4v/iaP+EN8If8AQq6F/wCC+L/4mgCI+OfBIOD4w8PA/wDYSh/+KqK7+IXgK0h8668beGoYv776pCo/MtVo+DvCJOT4V0Mn/sHxf/E1LbeF/DNq++28O6RA3rHZRqf0FAHP/wDC3vhT/wBFI8Jf+DeD/wCKpj/GL4VKQo+IfhmRj0EWoxyH8lJrshY2QH/Hnb/9+hT4re3iJMUEUZPXagFAHEf8Lk+F/wD0O2k/9/D/AIUjfGb4WKpZ/HWjRqOrPNtA/E13uKpa7pGl67pNxpOs6fbahYXKhZra4jDxyDIIBB4PIB/CgCLw3r2ieJNLTVPD+rWWq2LsVW4tJlljLDqMqcZHpWlXleoeHLb4ca/4ZuvCd7qNlpWo6wmn32lSXbz2myWOTa8aSFjEwdUxsIByQR6eqUAFFFFABRRRQAUUUUAFFFFABRRRQAUUUUAFFFFABRRRQAUUUUAFFFFABRRRQAUUUUAFFFFABRRRQAUUUUAFFFFAHn/woO3xb8Soey+J1Yf8C0+zNegV5/8ACoZ8ZfEx+x8TRgfhp1nXoFABRRRQAUUUUAFFFFABRRRQAUUUUAFFFFABRRRQAUUUUAFFFFABRRRQAUUUUAFFFFABRRRQAUUUUAFFFFAHC5P/AA0Bjt/wivH/AIF13VcHcMI/2g7FeczeFbj/AMcu4f8A4uu8oAKKKKACiiigAooooAKKKKACiiigAooooAKKKKACiiigAooooAKKKKACiiigAooooAKKKKACiiigAooooA4X4yuYtP8ADM/ZPFOmA/8AArhU/wDZq7qvP/j0MeD9Lm/ii8T6I6/X+0bcf1NegUAFFFFABRRRQAUUUUAFFFFABRRRQAUUUUAFFFFABRRRQAUUUUAFFFFABRRRQAUUUUAFFFFABRRRQAUUUUAFFFFAHn3wckWbVfiFKNxJ8XTqWI67ba2Xj6bcfhXoNcN8JGU3HjWPq8fim6Dn1JjiYf8AjrKPwruaACiiigAooooAKKKKACiiigAooooAKKKKACiiigAooooAKKKKACiiigAooooAKKKKACiiigAooooAKp65d3Vjo15e2Wny6lcwQPJFaROqvOwGQiliACenNXKivLm3s7WW7u54re3hQvLLKwVEUDJJJ4AA70AfOsPxH8U698RfDPiqy8F6ZB5em6pYzW1x4gETwsDbSyJPugBhdPL+6RyCTnAyfZ/hb4quvGngy18RXWjPpP2l5PKiM3mrJGrELKrbVJRwNykqMgg14t478H3HxU8W2XxF8MeGIn0fTGHmR3E7W7+KYgQCoT7ojC5CPJ/rM4ICYNe4+CPFmh+KdPd9JkaKe0YQ3dhPH5VzZSAf6uWI8ofTsRyCRzQB0FFFFABRRRQAUUUUAFFFFABRRRQAUUUUAFFFFABRRRQB5vq3xG8QWnxI1jwfYfDvVtYNjZ2t5DcWl5bIJY5fMBYiWRNoDxsoHJJViQBjNj/hN/G3/RHvEf8A4M9O/wDkipYI1j/aAvJe83hW3X/vi7m/+OV3dAHn/wDwm/jb/oj3iP8A8Genf/JFKPHHjMfe+D/ib/gOo6cf/biu/ooA4AePvE0bf6V8IvGSL/eim0+X9Fuc0/8A4WNdd/ht48H/AG4Q/wDx6u8ooA4N/iXHGAJfAvjxG7qNEd8fihI/Wm/8LPt/+hH8e/8AgglrU+KPimbwl4ZS/tbe2lu7q8gsbY3UvlW8UkzhFeZ/4UGcnuTgDkitDwhF4pisZV8Vaho99cmTMUmm2klumzA4KvI5JznkHp2oA5v/AIWfb/8AQj+Pf/BBLR/ws+3/AOhH8e/+CCWuk1zxDDpXiPw/oslu7vrU80McgYARmOF5Tkd8hCK2qAOFj+JUMgyvgnx19G0ORf5mkb4i3B/1Hw58dTE9B/Z8Sf8Aocq4ru6KAOAPxF1gEj/hVHjv/v3Zf/JNJ/wsPX34h+Enjh2/2zYIPzNzXoFFAHlXiTXta8RW1pbar8G/GkkNrew3qRpqGnqGlhcPHuxdDcA4VsHjKitb/hOvGD8RfB/xVn/ppf6cg/P7Sa7+igDz/wD4TPx5/wBEg1r/AMHGn/8Ax6j/AITPx5/0R/Wv/Bxp/wD8er0CuK1r4geVrd5ofhvwtrfie/sXWK8+xLFFb20jIHCPNM6Lu2spKruIDDIGaAKn/CbeOBy3wf8AEOO+3VNOJ/8AR9H/AAn/AImX/WfCDxoD/sz6c3/t1XbaTPd3WmW9xf2JsLqRA0tsZVkMTd13LwfqKtUAef8A/CwfEX/RIfG//fzT/wD5Ko/4WD4i/wCiQ+N/+/mn/wDyVXoFFAHn4+IXiAH5/hH44UeoNg36C6qX/hYGsf8ARK/HH/fFl/8AJNdX4h1zR/Dulyapr2qWmmWMeA89zKI0BPQZPUnsOpqr4U8U6H4pt5rjQrx7qKFgkjGCSLBIyMb1GfwoA55fiNMmftfw88dWpH/UNjm/9FSPTP8AhZ8P/QiePv8AwQyf4131FAHA/wDCz4P4vA3j5R3P9gSnH5c06H4ueCCp+03Or2EgOGivdDvYHB9MNEM/hXeUUAcdYfEvwnqCX72M2qTJYWUt7PIdJuo4xHGMsBI8aoW9Fzk88cV1WnXcN/p9tfWzFoLmJZoyRglWAI47cGsb4lHHw58TE9P7Iu//AES1T+Bf+RJ0Lv8A8S23/wDRS0AbNFFFABRRRQAUUUUAFFFFABRRRQAUUUUAFFFFABRRRQAUUUUAcD8If+Qx8Qv+xsl/9JLWu+rgfhH8uufERD1HiuQ/nZ2hH8676gAooooAKKKKACiiigAooooAKKKKACiiigAooooAKKKKACiiigAooooAKKKKACiiigAooooAKKK43xx40k07UY/C/hizTWPFl0m+K03ERWkZ4+0XLD/VxjsPvORhQeSAC9428Z6V4WW3t5o7nUNWvciw0qyTzLq6Yddq5ACjjLsQq9yK52DwfrvjK5i1H4ky262EbiS28M2bl7VCOVa5k4Nw467cCMHsxAatzwH4Nt/DhuNTvrp9X8R3+DqOqzqBJKe0aD/lnEv8MY4HU5JJPVUAIqqqhVUKoGAAOAK5Txr4GsPEF1FrNjczaJ4ktVxaaxZgCZB/ckHSaI943yPTBwR1lFAHFeDvF98+snwj4ytYNN8SohkhaEn7LqcS9ZrcnnjI3Rn5kz3GGPa1h+NfC2l+LdIGn6kssbxSCe0u4H2T2ky/dlif+Fh+RGQQQSK5bTPGOreEruHQviV5UaO4isfEcSbLO8J4VZh/y7zH0PyMfutztAB6LRQCCAQcg9DRQAUUUUAFFFFABRRRQAUUUUAFFFFABRRRQBw//Nef+5X5/wDAqu4rgvDga++OPi7UN2Y9P0rTtMQDs5M9w/6SxV3tABRRRQAUUUUAV9TtbG+sJrLUre3ubOdfLlhnQPHIp42sDwQfSvNxpzfDXxj4csdBvJ28Na/evp76PPMZFspfJkmSW2LEsifuirR52gEFQuCD2vjfwxp/i7Qv7J1KW7hjE8VzFNay+XJFLE4eN1OCMhlBwQRx0rM8OeAdN0nW4tdvdV1rX9VgjaO3utVu/NNurfe8tFCxoSOCwXcRxnFAGZ8W2SHxP8NrouFkXxSI1GeSHsbtSP1qh8bPH+o+GNa8PeG9Gke3vdYW4me6TRp9TaGKEJkLBCQzMzSLySFADZ5wK7zXvD+l65daTc6lbmWXSb0X1mQ5XZMEdAxx1+WRuDxWV4y8E2XiTVbDVxq2saPqdjDLbw3emXAikMUpRnRtysCC0aHp/D9aANKXUjpHg59X1a4882Wnm5upRAYd+yPc7eWSSmcE7STjpWZ8L9d1jxF4Zh1XWjoqT3KpPHBps7SiCN1DBJGPVwSQSMA46Ck1bwhcaj8MtX8GXfiTUb6XUbC5szqV4kTTqJVZQSI1RTtDegyBye9cz4A+FupeGtdtNX/4SLTbPYCLux0PQYLC3vBtIUSnLyPtzkEtkHPqaANXVvinoOm+LNT8Lyabr93qunmNngsNNkumeJ41cS/uwdqZYr82CWU4BrqvDGu6X4k0S31nRroXNlcA7G2lGDKSrKysAVZWBBUgEEEEV4f8F73Xrr4hfEPXtOWC91HWrO31C2try4aOHal7f20K7wrFB5MEfRTzXrPww8P6l4f8P3K6zJatqWo6jc6ldJaEmCF5pC/loSASFBA3EAscnAzigDqaKKKACvLvHGkeLPC+r+I/F/g/VtA07T7yxF7qianDJKq3FujDzUVGUfPGqIxLDHlA4Neo1wfif4ZWHiHxbc6xqGtan/Z99FbRahpKeWILsQM7Rq7bd/l5kYsgYK3fIyCAdb4cv5NU8Pabqc0Bt5bu0ineI/8ALMugYr+GcVfoHAwOBRQB5YvxR15bzxDdHwLcXPh3QdTmsrvUba9VpdseN8iQYzIEB+YBgeCAGIxV7SPixpep6vbG30m8bw3e6g2mWXiASRtaz3QyNoAbcEZwyK5GGYY7gnqvCHhnT/DGmXWn2LTSxXV/dX0pnYMxkuJmlccAcAuQPYDOetRaF4L8M6N4RtvCdnpMH9jWsnmQ2so3qrCXzQee4f5h6ECgDG+Ing/VtZ8R6H4n0O80w6hoyTLDZarbtLayGTblwVIaOUBMCQBsBmGOaueDPF9zqmr3HhvxDosmheIrWAXD23miaC4hzt86CUAb0DEAghWUkZUZBO74ktNSvtDurXR9U/srUHT/AEe78gTCJwQQSh4YcYIyOCcEHmuZ8K+E9fTxaPFvjDXbLU9UhsZLC0i0+xa1t7eGR0eQ4Z3Z3YxR8lsALgDkkgHbUUUUAFFFFAHD/HyaSH4NeK44G2z3enSWUR/25/3K/rIK7Kxt0tLKC0jGEhjWNfoowP5VxHxwja58PaFp45W78T6Skg9UW7jkYflHXe0AFFFFABRRRQAUUUUAFFFFABRRRQAUUUUAFFFFABRRRQAUUUUAef8Aws+Txr8TIeoHiSJ/++tOszXoFef/AAxGPH3xN/7D9v8A+m20r0CgAooooAKKKKACiiigAooooAKKKKACiiigAooooAKKKKACiiigAooooAKKKKACiiigApGYKpZiAAMknoBWf4l13SPDejz6xrl/DY2MIG+WU9zwFA6sxPAUZJPAFcH/AGd4g+JxEniC2uvD/gwnMeksTHe6ovY3OOYoT/zxHzMPvkDKUAS3fivXPHF1NpXw6kS20yNzFeeJ5o98KkHDJaIeJpByN5/dqf75BWur8F+FNH8J6dJa6XFI0txJ515eXEhkuLuU9ZJZDyzfoBwAAAK2LO2t7O0itLSCK3t4UEcUUSBURQMAADgADtUtABRRRQAUUUUAFQX9naahZTWN9bQ3VrOhjlhmQOkinqCDwRU9FAHmMljrnwuJuNEivNc8EqczaYMy3ekr3e2/ilhHeE5ZR9zIwlehaJqum65pNtq2kX0F9YXSCSCeFwyOp7girlee6v4U1nwzq1z4k+HawH7TIZtT8PzP5dtesessLdIJz642P/EAfmAB6FRXNeC/Gui+KTPa2rT2Wq2mPtulXsflXdqT/eQ9V9HXKt2JrpaACiiigAooooAKKKKACiiigAooooA821vwX43tPGWo614H8WaZpdrrU8VxqcOoaabp/MSIRboiHXA2JH8pzyCc4OKvN4U8fyqfO+Kl3Ef+nXRLRAD/AMDV+P8AOa7uigDz/wD4QXxi4/ffGHxT/wBsrDTk/wDbY0+L4dagTm7+J3ju69f9Ktoh/wCQ4FrvaKAOE/4Vhp7EmbxZ46l9M+JbpMf98MKP+FXaR/0Mnjj/AMKm9/8Ajld3RQBwn/CrtI/6GTxx/wCFTe//AByj/hV2kf8AQyeOP/Cpvf8A45Xd0UAcGfhdpf8AB4p8dJ9PE94f5uaT/hV2nf8AQ3ePP/Cmuv8A4uu9ooA4L/hV2nf9Dd48/wDCmuv/AIuj/hV2nf8AQ3ePP/Cmuv8A4uu9ooA+Zv2fvhtJf6n4hn1HU/GmmLp2zSAU1W5tmlkinuXcg5G6PEsZGPlyzEck165/wq/Tx08XePAfX/hJbo/zau9ooA+bfjjrdh4F0+/0rwz498a6h4rtbcXTWP8Aa4kS2iGC0s7SKQi7TkLnLcYBHNdd4J0fUvEy3sDfEr4i6Pq+nOsd/ptzJYM8BYZRgwtiskbAEq6nBwehBA6b45eEPD/iL4beKHv9B0y8vxo919nuJrRHljkELbGViMgg4II6Vf8AhV4W8K+H/DVrfeGtB0/S21O0t5rhrWARmX5MrnHYbmwO2T60AZ3/AAgPihSNnxg8Zgf7Vtprf+2tA8E+OFPyfGDxAR/000rTz/KAV6BRQBwv/CKePEBEXxUvm95tGs2P/jqLQPDHxDVRt+KDM3cvoNuR+hFd1RQBwT+HfieGzF8StMxjpJ4aU/ynFJ/YHxW/6KNoP/hMH/5JrvqKAOB/4R34pt974laQn/XPwyP63BpP+Ea+KH/RT9P/APCaT/49Xf0UAcAPDvxTTlPiXpMh9JfDII/8dnFIdI+MEZzH458ITe0vhmZf1W7r0CigDgRb/GZTj+2PAMg/vf2Xdofy88/zqUx/F1eBdeBpff7PdJ+m9v513NFAHmeteHviZr9/oR1W78IRWmm6tBqEgto7nzJBHuG0bjjox/IV6ZRRQAUUUUAFFFFABRRRQAUUUUAFFFFABRRRQAUUUUAFFFFABRRRQBwXw7Vo/iR8SY/4W1WzlH42FuD/AOg13tcL4HOPip8Ql7efp7fibVR/QV3VABRRRQAUUUUAFFFFABRRRQAUUUUAFFFFABRRRQAUUUUAFFFFABRRRQAUUUUAFcn428b2egXcOi6fZza54kul3Wmk2hHmFenmSsflhiHd2wOwyeKyda8X6r4k1W48M/DloJZoHMWpa9KnmWmnHuiDpPP/ALAO1erkfdLLxvDXwd8Ox3zWOq6te6tfx29xeDZLeX1zIDtaWWRkUDjaASqjKqoGQKALXhvwTeXWsweKvHt5DrGuxEtZ2sQIsdLz2gQ/efHBmb5jzjaOK7uvNh8X9Oh1mXR9R8GeOLK+ht0upIf7HNywiZmUNi3aTjKMKueAfinpPjDXp9Ft/Dni7SriIOyvquiy20UqqcblcjAz1AbB9qAO9oorkvFHjK+0bWTpln4E8V64REJPtFhDB5HP8O+WVPmHpQB1tFeT2fxF8e+KtNs7/wAE/De4jtmvTHNPrd9bxI0aO0cqqIpXdWDLwdrDg8HINesUAFFcRb/ErRbXV20bxZBceFNQMxjt/wC0sLbXYyQphuB+7fI525DjutdsjK6B0YMrDIIOQRQAtFQ393b2FjcX15KsNtbxNLNI3REUZYn6AGsfwB4s0fxx4Ts/E2hPM1hd7wnnRmORSjsjKynoQykUAb1FHeigDmvG/gvSvFKwXMrT6fq9nk2GrWbBLq0Y/wB1u6nujAqw4INZPhfxZquna5D4P8exwW+rzZGnalApS01YAZOzP+rmAGWiJPcqWGcd3WV4q8PaR4o0WbR9bs1urSUhsZKvG4OVkRhyjqeQwIIPINAGrRXmqa74l+Hf+j+MDca94ZTiLxBDFuuLRfS8iUcgf89kGO7Kv3j6Hp95aahZQ31hdQ3VrOgkimhcOkinoVYcEUAT15n8aPHF54J8S+BJvMkTSL7VZINW2oCFgMLAOxxlVR2VyfRTnivTK88+ItlZaz8S/Bmh6hbx3VpcWmqvPC4yrx+SkTAj0Imx+NAFn4ZT3EPijx5olxI8i2muC5tizZxDcW8UuB7eYZa6fS/EOg6rqd9pml61p19faewW8t7e5SSS3JJAEiqcqcqRg+hrkvhR4F1fwfq+uXGqa8urw3Udra2DshEy21uJBH5zE4eQCTaWHUICeSa80+FC6SfFvg240FoB4pur3V5vFnkN+8Nv5lxkXIHcXDRBN3IwwXjNAH0XRRRQAUUUUAFFFFABRRRQAUUUUAFFFFABRRRQAUUUUAFFFFAGJ4+z/wAIL4gwcH+zLnB/7ZNTfh25k+H/AIckPVtKtSfxiWovidd29h8N/Et5dyrFBDpN07uxAAAib1rO+Ber/wBvfBzwlqv2f7N5+kwfu9+7btQL1wM9PSgDs6KKKACiiigAooooAKKKKACiiigAooooAKKKKACiiigAooooAKKKKACiiigAooooAKKKKACiiigAooooAKKKKAOE8Ef8lX+IX/XXTv8A0lFd3XC+Cxt+LPj9cjLf2bJjvg25H/spruqACiiigAooooAKKKKACiiigAooooAKKKKACiiigAooooAKKKKACiiigArz/wCMttqdxp1uZLnWf+EbXP8AalnodsXvrpeu3eGDJDgHd5YLtkAHrn0CigDE8CzeGp/CenSeD/sP9h+SBZizULEqDsAOhB6g8g5zzWre2tre2z2t5bQ3MD/fimQOjc55B4NcNr3hPV9B1q58VfD0wpc3L+ZqehzvstNSPeRT/wAsZ8fxgbW6ODww3PBPjLSfFcM6Wons9SsyEv8ATLxPLurNz2dPQ9mGVYcgmgDlPD2rNfftK+K9OazeD+zfD1hEJC2ROHlmk3AdsFyv/ATWx4x8ReIJ/FUHg3wWNPTVfs326/vr+JpYLGAsVjBjRlLySMrBRuAAR2J4APQ23h3SbfxXeeKIbYrqt7aRWc8284aKJnZBjoOZG578elc/rPgvWG8W3/iPw54ul0WbUYIIbuJtPiuUfyd+wqWwV4cgjJ/CgDZ8U+IV8M6TbXl5pmr6oZJUhddJ0+S5dSQSXKJlggx156gc1N4V12PxDp730Omatp8aymNU1Kze2kfAB3BHw23nGSByDU3hywutL0S2sb7VLjVbmJT5t5Oqq8rEkkkLwBzgAdABWhQB4v4M8Xf8Ix+zLq3i62hEsmnSavNBHKCoZxfXAQN3AzjNVPC+qeKdP8E+A/iFdeLNZ1J9fn0+PUtLvRA0DLelUzCEjUoUZ1YcnKqQc5yNn4/eH9P0X9mvxvpmjW/2e3+xXV2U3lvnklM0h5J6szHHQZwOKPgx8OYLfwf4L1TWfEGu601hplrNYWV9NH9mspDABlEjRSxUMwUyFioPHPNAHfeOtV8N6P4ZurzxW1qdLwEkiniEomJOBGseCZGYkAKASScYrzPwCbjwTqkF42hzaHpXirUoLHSfDCXG5rJQkrvcshJWNiAC8UeFRVBOWzXoni3QtHmv7XxddaBNrWraHDM2nQxMC4ZwN3lo7CPzDtADHBHPIyay/A/hvV7jXpPG/jNYhrs0TQWVjG++LSbYkExK3RpWwpkk7kBR8o5AL/xO0ePxH4aPhybVrfT7a/mjW8EhAa4tVcGaJcnjevyE9gxrivhl4r8O+GfAvi+a41jTI10vX9amMBukUqv2mWRVxnjIPH1r0fxN4X8N+J4IoPEmgaXrEULFokvrRJghPUruBx0HSsW0+FXwztBJ9n+H/hiPzGLMRpcOcnrg7ePwoA8++EVjd2vxD0a4j1K8u9V1Pw6+reLna5d4WnneM2qhGJCFR56ptA+ROc8U600v4pa9omk+JNJ8Y6vaT6vqrx6tZtFAqWVgbhgGtlkQ7ZERFGW3bg7HGcY9T8GeEPDvg6wlsfDumizimkEkpMryvIwUKNzuSxAUBQCcAAAYFbtAHg/jDxZqFhpPh7wL418UvpGo3Gqy/wBqapHdrayrpcUsogmeSIhYXn2RLwVyWfgYIHdfCTXr67vNe8LajrEGvS6FLCIdViZSbq3mQtH5uz5RMu1lbGMja2BuxXdzQxTRPFNEkkbrtdXUEMPQg9RVXR9J0rRbQ2ukabZadb7i5itYFiTJ6nCgDNAF0gEEEZB6ivLNc0yD4feKLK68J6zY6XbaxdH7T4bljMi3jj53eyjDL5cxAIPSMlgzAEZOpqfj+61bUZ9E+HWlx+Ib6FzHc6hJIY9MsnBwQ8oBMjj/AJ5xhj2Yr1rS8E+DP7Gv7jxBrmpNrvia8QJcajJGEWOMciGCPkRRA9gSSeWLGgDP/wCFjXx+58MfHrN2H2O2H6mcCsq51/Wb7xRZeIo/g74ye/sbWe0t3mvdPiVUmaNn+X7SckmJOfr616lRQBwi+LPHjr8vwp1BD6S6zZgf+OuahtdY8a21xPcw/Ca3hmuGDTSRazbBpSO7HaMn65r0GigDh/8AhJfiEenwzA/3tegH8lNRyeIPihtzD8N9I69JPEwU/pbmu8ooA8//ALc+Ljfd+HnhhP8Af8Uyf0tKU6x8YO3gTwh/4VE3/wAh139FAHALqHxkkP8AyKnge3H+14guZD+loKlSX4vbRusPAue+L26/+NV3VFAHD+b8XP8Anw8D/wDgbdf/ABqs681H44Q3cENv4Y8DXcbhjJONXuI1jxjAIMJbnJ6A9Oe1ek0UAef/ANpfGVPmbwj4HlH91PEVyp/M2lH9tfF7/on/AIV/8KmX/wCQ69AooA4KK9+MFy2T4d8E6cvo+sXNy36W6D9ac0Xxgb7t94Fj9zZ3b/8AtQV3dFAHAvZfGNx8viLwLF6n+xbp8f8AkyKdH4d+J04P274kadb5/wCgd4dSMj8ZpZP5V3lFAHA/8Ib48/6K9rP4aPYf/GaT/hDfHn/RXta/DR9P/wDjNd/RQBwH/CF+Of8AosGv/wDgp07/AOMUf8IX45/6LBr/AP4KdO/+MV39FAHkHjr4b/EjXPC2p6EvxLi1ez1GM289tqukQxjymxkrJbhSHGCRkEEHGO9eraXYWWl6bbabptrDaWdrEsUEEKBUjRRgKoHAAFWaKACiiigAooooAKKKKACiiigAooooAKKKKACiiigAooooAKKKKACiiigAooooAKKKKACiiigAooooAKKKKACiiigDgfDZaP48eNIs/LJomkS49D5l6v8A7KK76uA0I7f2gvFinq3hvSWHuBPfCu/oAKKKKACiiigAooooAKKKKACiiigAooooAKKKKACiiigAooooAKKKKACiiigArmPGvgnTfEs0GorPc6TrtmpFlq9iwS4gB6qSQRJGe8bgqfTODXT0UAcBo/jLVtB1a28OfEWG3tbm5kEOn63bKVsdQY9EIJJgmP8AzzYkN/Cx6Dv6pa5pWm65pNzpOsWUF9YXSGOeCZAyOp7EV5/DqWsfC9hZ+IprvV/BgIW11lsy3GmL2ju+7xDtPyQPv9N5APTaKjtbiC7torq1mjnglUPHJGwZXU8ggjgipKAKPiDSbDXtCv8ARNVg+0WF/bvbXMW4jfG6lWGRyOCeRVixtYLGxgsrVPLgt41iiXOdqqMAfkKmqvql19h0y6vRBLcG3heXyohl5Nqk7VHcnGBQBYorxr/ic6h8Pv8AhYvjL4g6/oUMtqt3Hp+iwpBHaBvuRbZYmkmlyVX5sBm4CjNd98LpvFk/gqyk8aQrFq5L7hhRI0e4+WZVQlFlKbdwUlQ2cccUAdPRRRQAUUVx/jPx1baPqKeHtEsn1/xROgaHS7ZwPLU9JZ36Qxf7TcnooY8UAbXi3xJo3hXRpNW1y8W2tlYIo2lnlc8LHGgyzux4CqCTXFro3ij4ifvvFa3Phvwu3MehQy7bu8X1u5VPyKf+eMZ9mY8rWn4T8EXCawnivxnfJrfiUAiEqpW001T1jtoz930MjZdu5A+UdvQBW0rT7HStOg07TLO3srO3QJDBBGEjjUdAFHAFWaKKACiiigAooooAKKKKACiiigAooooAKKKKACiiigAooooAKKKKACiiigAooooAKKKKACiiigAooooAKKKKACiiigAooooAKKKKACiiigAooooAKKKKACiiigAooooAKKKKACiiigAooooAKKKKACiiigDg7dPI/aCvn4/0zwrb49f3N1Nn/wBHiu8rgNSYr+0Noajjf4V1Dd74urTH8z+dd/QAUUUUAFFFFABRRRQAUUUUAFFFFABRRRQAUUUUAFFFFABRRRQAUUUUAFFFFABRRRQAUjqroVZQykYIIyCKWigDzm78G6z4PuJdU+GskS2rOZLrw1cvts5ieWNu3/LtIfQZjJ6qCd1dP4I8W6X4s0+aayWe2u7WTyb/AE+6TZc2c2MmOROx7gjKsMEEg5rfrjPHPg+6vtTh8V+FbqLTPFVnH5aTOD5F9DnP2e5A5ZD2b7yE5HcEA7OiuW8C+NLPxI1xpt3ay6P4isQBqGkXLDzYSejqekkR/hkXg+xyB1NAHnnxOkjvfiD8PfDt4xFlcajcahIuwlZpLWHdFGew+dxIM94q9Dryf4r/ABN8S+GvFsfhzw34Tj1W6NtFPH9oadTdvI7KIofLiZcrty7uyqoYE16tGWMal1CsQNyg5wfTNADqrapf2Wl6dcajqV3BZ2dtGZJp5nCJGo6lieAKyPG3i/R/CdnDJqDyz3l0/l2On2qebdXkn9yKMck+p4VRySBzXNad4S1rxdqNvr3xGWJLeCQTaf4bhfzLa2YcrJcN0nmHUfwIegJG6gCJNS8XfEQ/8SGS58KeFG6am8WNR1BfWCNhiCM9pHBcjkKvDV2HhDwroPhPT2stDsFt1kbzJ5WYyTXEnd5ZGJaRj/eYk1tUUAFFFFABRRRQAUUUUAFFFFABRRRQAUUUUAFFFFABRRRQAUUUUAFFFFABRRRQAUUUUAFFFFABRRRQAUUUUAFFFFABRRRQAUUUUAFFFFABRRRQAUUUUAFFFFABRRRQAUUUUAFFFFABRRRQAUUUUAFFFFABRRRQAUUUUAef6p/ycR4f/wCxW1H/ANKrOvQK8/1T/k4jw/8A9itqP/pVZ16BQAUUUUAFFFFABRRRQAUUUUAFFFFABRRRQAUUUUAFFFFABRRRQAUUUUAFFFFABRRRQAUUUUAFFFFAHOeNvBujeK4YXvFmtdStCWsdTtH8q7s39Y5Bzj1U5VuhBFYvhLxXqmm61B4L8e+VFrMgI07U402W2rovOU7RzgctF9SuV6d7WR4w8N6T4r0KbR9YgaS3ch0dGKSwyKcpLG45R1OCGHINAGvXC+LPHF0ddl8H+CbJNX8SqitcO5Is9MVs4e5cd8DIiHztx0GWHN6GPiJ4o0WbQ7fxNZtpdnqrWFzrkG621OaGF3SZDGYykcu5VHmKRuG4qqZU16T4V8O6L4X0ePSdCsY7O1Vi5AJZpHPLO7HLO5PJZiSe5oAyPBPgiz0C6m1nULyXW/Et2oW81e6UeYw/55xqOIYh2ReO5ycmusoooAKKKKACiiigAooooAKKKKACiiigAooooAKKKKACiiigAooooAKKKKACiiigAooooAKKKKACiiigAooooAKKKKACiiigAooooAKKKKACiiigAooooAKKKKACiiigAoorz39pF9ej+B/ik+GFvW1Y2gW3+x7vOGZFDFdvIIUscjpigD0KivK/Btr8Vte8I6NrZ+IOgW4v7GG5Ecfh1pAodAwG5rjLHB64GfStlPDnxKIxL8S7L6xeHEUj6ZlNAHd0VwyeF/iCB83xQkY+v9hWwqK98M/Er7K5sfifH9pA/d/aNBgaMn/aCkHH0NAHfUV5no2n/HKznd9R8ReCNVjKBVT7BPb7Tn72VZsk9McCrr6f8YrliT4p8FaenZYtCuJz/wB9Ncr/ACoA7+iuB/sP4s/9FC8N/h4Xf/5Ko/sP4s/9FC8N/wDhLv8A/JVAHfUVwP8AYvxb/wCigeF//CXk/wDkumjTvjJASI/Fngm8HrNoFzER/wB83RoA9AorgPs3xn/6DXgD/wAFN3/8kUjWHxmY5/4SfwJF/sjQbpv1+1CgD0CivPxp3xmU7v8AhLPAz4/hPh65AP4/a6X7N8Z/+g14A/8ABTd//JFADr6My/tB6TIOBb+FrzPv5l1bY/8ARZ/Ou9rzVvDPxVn1UavJ4s8FWt8IDbrJD4amdhEWDFdzXecZAP4VZ/sX4wL8y+PvCkhH8L+GJQD9cXeaAPQaK8/Fj8Zl5/4STwHL7HQ7pf1+1Gl+zfGf/oNeAP8AwU3f/wAkUAd/RXDAfF5U2lvA0r4+9tuowT9Mtj86jeb4xoPl03wHMfe/u4//AGi1AHe0V5/9q+NH/QE8Af8Ag2u//kelXVPi9aMGuvB3hLUYz/DY69NG4/CW3AP5igDv6K4VPE3xFGTN8ME9hDr8DH/x5Vp3/CU+PP8Aol93/wCDq1/+KoA7iiuDk8RfEx8i2+GunoT903PiNFA+uyJ/0zQknxhmXLWngWxLDp9ournZ/wCOR7v0oA7yivPzp/xmJ/5GvwKPb/hH7o4/8m6BpHxglP77xx4Qtx/0w8NTMf8Ax67oA9Aorynx7b/Enwt4M1bxYvxAhv5dGtJL5rL+xIYoblIlLvGx3F1yoIBDcEg89K9RtJlubWG4T7sqK4+hGaAJaKKp61qmn6LpkupapdRWlpFt8yaQ4VdzBRk+5IH40AXKK89tr/4y3FpHc/8ACO+CrR5Bu+y3Gq3Bkh/2WZIWUn1xx9af9u+Mw6+GvAje4126H/trQB39FcB9v+Mv/Qr+Bf8Awf3X/wAiUfbvjL/0LHgQe/8Ab11/8iUAd/RXBJdfGRj8+i+AkHtq123/ALbinr/wt5wd3/CCwE9CPtUuPw+XP6UAd1RXA+R8Zf8AoKeAR/3Drs/+1qa1j8Zn/wCZm8CQ+y6FdP8AzuhQB6BRXn/9l/GT/oc/BX/hN3H/AMmUn9kfGI8/8Jz4OX2Hhif/AOTKAPQaK8+/sf4xf9D34Q/8Jib/AOTKP7H+MX/Q9+EP/CYm/wDkygD0Gsvxdrtp4Z8Nahr99Ddz21jCZpI7WEyysB2VR1P+TgVyX9j/ABi/6Hvwh/4TE3/yZR/Y/wAYv+h78If+ExN/8mUAcH8EPihHc6lqCzeHruHS/EHiueOyvkvbWZEmlgSYRsscjE8ZJZNwBPOOce+14P4K+Cni/wAJ+ItV8Rab4o8Gy6tqV9Pevd3HhaRngM2N8cWLobE46Dk9ya7f+x/jF/0PfhD/AMJib/5MoA9Borz7+x/jF/0PfhD/AMJib/5MpRpnxkiOV8Y+Crj/AGZPDlwn6i7NAHoFFcHHD8Yh/rNR8Bv9LG7XP/kU0/y/i9/z+eBv/AW6/wDjlAHc0Vw3l/F7/n88Df8AgLdf/HKPL+L3/P54G/8AAW6/+OUAdzRXDeX8Xv8An88Df+At1/8AHKNvxdUH994GlPYeVdJ+u5qAO5orgmn+McajbpfgO6Pf/iYXcOf/ACC9M/tb4xIfm8E+DZR6J4lnB/W0oA9AorgF174s5G/4deHj67fFDf1talXxJ8Rlz53wzhI/6Y+IIWJ/76RaAO6orzDxN8TvEXhldPk1z4c3lrFqF/Dp9u41i0bdPK21FxuHX19jXp46UAFFFFABRRRQAUUUUAFFFFABRRRQAUUUUAFFFFABRRRQAUUUUAFFFFABRRRQAUUUUAFFFFABRRRQAUUUUAFFFFABRRRQAVHdQrcWstu4ysiFGHsRipKKAOF/Z8kd/gh4OWQ5eHSIIG57xqEP/oNd1XCfANg3wr0xVGFinvIVHoEu5kH6LXd0AFFFFABRRRQAUUUUAcL4s8d6lpvjeHwdofhd9V1OWx+3K9xfJZwOm8qVRmDF2XGWCr8oZc9axbv4g/EO18Yab4bm+Gti1ze2lxeAQ+IlY+VC0StjdCo3bpk4J6Zr1MqCQxAyOh9K8+1iSOT9ojw1FG6tJD4Z1RpFB5QNcWO0n64P5UAbvg/xDrmrzX6a54L1Lw0lsEMcl3d28qz5zu2mKRsbcDrjqPeuihliniWWGRJY2+6yMCD+IrxX40ak+rfGjwP4Cv7eG78OXL+ZqlnKW2XTSR3BhDAEBlU2zkq2VJYZHArpPB2j6X4T+MGqeHvDdrDp2kXeiQ6hLp1soSCG4Ezx+YiDhN6jkDAJjz1zQB6TSKwYBlIIPQiuD+M/i3VvDnhPV10Xw3rmp3v9lXEyXdmkQhtSI2w7vI69CM7VDNjoKyfhvrXinSfCnhzSofhffQ6THa20Czw6taysiFVHmspYEjnccEnrwTQB6nRXCfGGx0mew0691pvGklnBOyNb+HJbpWkLrwZVtiJGUFcDHALc8ZI5LwT4P0a+8WwX2lw/Frw8lqqzAahq1wtpcFWHyuksrsxOeVIAwD0NAHtFebfHzxxrngbSNEvdEs4JxPqa/wBovMhKw2UcbyzsMdG2pgE+tek14948+IugeIdL8ceA20nXLm6WOfSUistNnuXnZ4PmfEaERoGfaGcjO0kcUAewZG3dkYxnNcZafFDwdcQ3N79vnh0mCdbf+1p7aSOxlkZtoEczAK4yMbgdue9ctd+IvFXiP4W3fhm18F+KtN8QXmgS2yXd1bxxQR3RtiOX8zcPn4Bx1Ip8PjrTbjwbB4R8L+C9cvdV+xLYppN7os9tbW2E2YuJZEEQjXvtLbgPlDZFAHrKsGUMpBBGQR3pa4O7hk+HHwCnt31GSebw74cdftZ+87w25ww9ORwPpXm3irwn4o8E/BEeOdH8SavP47s9OW41K5uryWeK88xAJUaJjsATduTCggxj1bIB9C1BZXlpexNLZ3UFzGrlC0UgcBhwRkdx6Vwfwyk1Pw34e8UWfiK91Kew0O/l+yahqcjtJNa/Z4pmYu/LqrvIu7kYXHauQ+GngLVtJ+F/hrxR4OZNH8VNpUE1/Yygra6oSgYx3CfwyYOBMPmU9dw+WgD3KisbwT4gtvFXhTTvEFrDLBHeRbzDLjfC4JV42xxlWDKfcVs0AFFFFAHL/FyIT/CnxdCeQ+h3q/nA9anhB2k8J6PI/LtYQFvr5a1V+IwDfD3xIp5B0m6B/wC/TU/4fsW8B+H2Y5J0u2JP/bJaANuuM+OemHWPg14w09UDvJo9yY1IyC6xll/8eArs6q6vbi70m8tWGRNA8ZH1Uj+tADNAvE1DQtPv4gBHc2scygDjDKCP51drivgPdPefBTwVcSZLtoVmGz6iFQf5V2tABRRRQAVm+KtbsfDfhvUde1KTy7Swt3nlPJJCjOABySegA5JNaVcH8aUW503w1psxItb3xNp8dwM8MqSeaFPsWjUfjQBk+AfH3jhtU03TfiZ4Kt/DjayxXS7m0vBPE0uwyfZ5R96OTYrYPRirDg4Bv/G+68QS2nh3wv4Y1x9B1HxDq32T+0Y4hI9vFHBNcOVU8ZIhC/8AAjS+P7pNa+IfhDwlYMs1xZX41vU9vP2a3ijkWPd6F5XQKD1CuexrzDXvFnxF1b4m+F7C60vwtbato/iS5t47OW5njyJLC68mVm2NmKSMOVdR94FSBg4APevGWsf8I54M1nXjH550zT57vYxxv8uNnwfrtrJ+EniDXPEvgyPUfEenQ2Gppc3FtMkCOsUnlysgkQP821gARknr1NcV8XvFOsab8IfFGl+MdJCatqOkX0domg215fwBPII3SyCECL5m53YGOc9cd58NvEVr4k8L211Z2Oq2scUUcf8Ap9hLamT5AdyCQAsvuOKAOlZlUZYgD1NKeBk14p4x086f44v/ABF8TdCn1/wwl0h027juhLZ6TFhQGmtDjDB8kzfvMAg/IBVXxmfEXjP4oeI9Jj8NnX9C0BbW3S1utbNhp7TPCJnedUVnnO2RAFZSgA9TQB6f4u8b6P4XvYrTUbPX55JY/MVtP0S7vEAyRy0MbKDx0Jz371598H/in4cmttVtNS1DWVmn8R6gLU3mlXiqI2uX8tN7R7VxnG0kFfukDGK9U8MSa1Lo0MniCHTYL9slk0+Z5YQuflwzqpPGOwriv2ebuG68Haz5ZJki8Uayk3s5vpm/9BZaAPSKKKhvwxsbgJO9uxibEqKGaM4+8AQQSOuCDQBNRXzzaeK/DN7ZQz/8NGeKrWaVVYx3FpZRsmeqshtPlPbBPFfQNmyvaQukzTK0akSNjLjH3jjHXr0oAr67qun6Ho93rGrXUdpY2cTSzzSHhFHU/wD1u9cafinYfZ2ux4P8cm0Rd0s50GVRGuM52th2GOflU/nkUnxl23Fz4I0m5UHT7/xRbrd7vusIopp41PsZoYhz16d62/iT4otvCvhie7ZTcahcZttMso+Zby6YERxIO5J6noACTgA0AbekajY6vpVpqum3Md1ZXkKT280ZyskbAFWHsQRVquf+GugSeFfh74e8NyyCWXTNNgtZHHRnSMKxHtkGugoAKKKKACiiigAooooA4D9oC2hm+Gk80kaO9nqOn3UTFQSjJeQnIPY4yM+hNd/XBftA/wDJJdX/AOutp/6VRV3tABRRRQAUUUUAFFFFABRRRQAUUUUAFFFFABRRRQAUUUUAFFFFABRRRQAUUUUAFFFFABRRRQAUUUUAFFFFABRRRQAUUUUAFFFFAHA/AEqfhsiowZU1fVVUg9hqNxiu+rz6x+DPw7tUlX+xJZ/NnlnJmvp2w0jl2CjfhRljwAB+PNTN8H/hs5Bk8KWkhxj55JG/m1AHbTXFvCMzTxRj/bcD+dU213Q1JVtZ04EdQblP8a5ZPg78Klfefh74bkb1l0+OT/0IGra/C74aKAB8PPCQA/6g1v8A/EUAb39vaF/0GtN/8Ck/xo/t7Q/+g1p3/gUn+NYX/Cr/AIa/9E98J/8Agmt//iKP+FX/AA1/6J74T/8ABNb/APxFAHSLqOnsAVvrUg9xMv8AjS/2hYf8/tt/39X/ABrkX+EPwqdtzfDjwnn20iAf+y03/hT3wp/6Jv4T/wDBTD/8TQB2sdxBIMxzRuPVWBrmbHwZptv8UtR8fpcO19e6VDppiwNqJHIzlgeuTlRj/Z96zX+DXwoY5/4V54aQ/wDTOwjT+QFA+DfwtUYXwLoie624U/mKAPL/AI4WuqXn7SPhGz0bVF0vUp0s3tbp7cTqhjTU2bchI3KQQCMg4bgg4Nex+BPClxoVzqWsazq39s+INVZDe3og8lAkYIjhijy2yNdzEAsSSzEkk1xeqfs9/D+88caP4jhsWsoNPgnjlsYJJEW4aQAK5cOGXaC/A67vbnoP+FP/AA9/6Atz/wCDS7/+O0AdvfWsF7ZT2dzGJIJ42ilQ/wASsMEfkap+FtHj8P8AhvTtDhurm7hsLZLaOa5YNIyIMLuIABOAOcVyb/CDwOceXBrsGOnkeItQjx9Nswrlvif4E0Dwz4RnvdNv/GE+q3Esdlpdu3i3Utst1M4SIH99naCdzeiqxoA9nor5c+Cmh+Hzcal4U8ceMvGMmtw6xd21jfSeIr60g1NIpCjeTtmCtIGV9yfeHXkYNexf8Kh8M/8AQY8a/wDhW6j/APHqAPQaK8+/4VD4Z/6DHjX/AMK3Uf8A49R/wqHwz/0GPGv/AIVuo/8Ax6gD0GivPh8IfC/8WqeM3+vi3Uv/AI/T0+EHgpckjxG5PUv4m1FifznoA7yaOOaJ4Zo0kjcFWRxkMD1BB607HGO1cH/wqPwR/wA++t/+FDf/APx6j/hUfgf/AJ99b/8AChv/AP49QB3bKrKVZQykYII4Iri9Y+HVnd6zeanpviTxNoDXziS9h0u9WOK4cKF3lXRtjEAAlNpOBnnmoP8AhUfgjtBro+niLUB/7XqM/B/wYCWhk8TwOf4ovFGoqf8A0fQB2HhvRdO8O6FaaLpMBgsrSPy4kLljjqSWOSxJJJJOSSSa0K4JfhnDbpt07xx47svT/idvcY/7/iSmr4H8ZQcWvxe8SlewudO0+X9RApoA7+iuFPhv4kIcQ/Ey2df+njw9G7fmkiD9KX/hG/iLsx/wsyIN6jQIf/i6AL3xiv49M+E3i6/kdEEOi3bAuwALeS20c+pwPxrX8I24tPCej2oORDYwRg/SNR/SsbTPC+tzw3ll4y8RWvifS7qExPZS6RFDGeQctgnd06GutACgAAADoBQAVS16PUZtEvotInit9Re3kW0llTeiSlTsZh3AOMirtFAHG/BbR9S8N/Czw14f11YodVs7BI7iJJAwVh1AI4IGccV2Vcr4l+HXgvxJrLazregwXupGFIVundxLGi7iBGwIKffbO3Ge+cCso/CDwcCTDP4pts9ofFOooPyE+KAO/orz7/hUPhn/AKDHjUf9zbqP/wAepV+EHhEkefd+LLnHQTeKtRYfl59AHoFZ/iLRNJ8RaTLpOtWMV7ZSlWaKQcblIZWBHIYEAgjBBGRXKp8I/AK53aRdyk9fN1W7kz9d0pzSN8H/AIbM25vClox9TJIf/ZqAOh8KeFvDvhO0mt9B02GxSeTzJ3DF5JnxgM7sSznAA5JwK4P46+HraTU/Cfj+xtZJ9X8O6za7xbrukmtJZRFKpA6hRIXHphvU1t/8Kd+GBGH8FaTIPSSMv/MmkX4M/CgHP/CvPDbf71gjfzFAGt8RNP0zxP4G1rw7cagsa6hZSwborgI6kqcEEH1x/Xisn4Q+I7V/hZ4WOt3NvpmpLpVulza3UyxyxyLGFbcrEEcjPPrUq/CD4Uqcj4ceE/8AwUw//E1ag+GPw2hx5Pw+8KJj+7o9uP8A2SgDn9U8O/BW81abUtQl8OPcTTGedG1QLDLITks8XmeWzE8klTmq/iDRPhfret6hqF146jit9UMbalp9tr6RWt6yIEUyKpDH5FVSAwDAYINdqvgfwUoCr4P8PqB0A02H/wCJpf8AhCfBv/Qo6B/4Lof/AImgBtv4u8E28EcEHijw/FFGoRES/hCqoGAAN3AxWfoOrfDfwzYXEWl+IPD1jbXF3NeTf8TOPDzSuXkbLP3YnjoOgrS/4Qnwb/0KOgf+C6H/AOJqSDwj4TgcPB4Y0SJh0KWEQP6LQBnS/Ez4bwn978QPCiH/AGtYtx/7PUDfFj4Wr1+I/hAf9xm3/wDi6zdKsbay+Mep6DJbWM+m3Wjw6jaQNYwr9lkWVopFVlQEq37tsNuIO7kAgV3P9l6ZgD+zbPA6fuF/woA5Vvi58Kl6/Ejwj/4OIP8A4qom+MnwnXr8RvCx/wB3U4j/ACauwXTNNX7un2g+kK/4VMtrbL923hX6IKAPNvEfxM+CPiLSZdJ1vxp4WvrKUqzRSXqY3KcqwIOVYEAggggjIrE8MeI/2efDmqDVdO8Y6FJqCo0cd1e63JeSxK33lRpnYoD3C4z3r2byYf8AnjH/AN8ijyYf+eUf/fIoA4X/AIXP8J/+iheHP/A5P8aX/hcnwrIyvj/w+3st4rH8hXc+TD/zyj/75FKI4x0RR9BQBwn/AAuX4W/9Dxo//f7/AOtR/wALl+Fv/Q8aP/39/wDrV3m1f7o/Kjav90flQBwf/C5fhb/0PGj/APf3/wCtS/8AC5fhVjLePtAT/fu1U/ka7vav90flSNHG33kU/UUAcJ/wuf4T/wDRQ/Dn/gcn+NaGmfE74cak4Sw8feF7lz0SPVYS35bs11Xkw/8APKP/AL5FUb/QtDv1K32jaddK3UTWqOD+YoA85/aA16G88Gado2h3WnahLq+vadYzIk4dkie4QlwFPUbRyeACa9XrlP8AhWvw6+0R3K+A/C6zxSLLHKulQK6OpyGBC5BB711dABRRRQAUUUUAFFFFABRRRQAUUUUAFFFFABRRRQAUUUUAFFFFABRRRQAUUUUAFFFFABRRRQAUUUUAFFFFABRRRQAUUUUAFFFFABRRRQAUUUUAFFFFABRRRQAUUUUAFFFFABXPeOfBvh/xnaWdv4gt7qWOxuftVube9mtmSTYyZ3RMrfddh1710NQ30qwWU87fdjjZj9AM0AeF/CT4O/D3xR8JNDvNe0e91AX6tfvFPq94Yi8kjuDs83bn5uuMnqeSa91s7eGztIbS2j8uCCNY40yTtVRgDn2FcX+z/G8fwO8EiT7zaHaOf+BRK39a7mgAooooAKKKKACiiigAooooAKKKKACiiigAooooAKKKKACiiigAooooAKKKKACiiigAooooAKKKKACiisrxfbaxeeFdUtfD1+un6vLaSLY3TRhxDMVOxipBBAOOoNAHNXP/ACX/AE/38LXWf/AqCu6r5Pj8ceLNP8ZabrNr4ph1nXk0OazbRdV0xftr3f2lFaxH2cxjzN6E+Zs2hF3kbTkfVls0r28bzRiKVkBdA2drY5Ge9AElFFFABRRRQAUUUUAFFFFABRRRQAUUUUAFFFFABRRRQAUUUUAFFFFABRRRQAUUUUAFFFFABRRRQAUUUUAFFFFABRRRQAUUUUAFFFFABRRRQAUUUUAFFFFABRRRQAUUUUAFFFR3TSrbStBGsswQmNGbaGbHAJ7ZPegDhB8TGvIhPoHgPxdrts5Pk3VpDbLBMvZ0eWZAynsRSx+NfG0mSnwh8QovbzdT05SfwE5xTP2cBKvwO8KLNjzBYjIByF+ZvlHsOn4V6DQBwD+PPFVu2L34ReLQvZrW60+cfl9oBH5UqfEXVWYB/hX48TPcwWZ/lc131FAHCP8AEaZF+b4eeO93dRpsbfqJMfrQnxJ4zL4B8dwr3J0fd+iOT+ld3RQBwK/FrwvG4TUtP8V6Ux/5/PDV8q/99CIr+tOPxg+HIJB8SKCP+nSf/wCIrvKy/FfiHR/C2hT65r16tlp0DIssxRmCl3CLwoJ5ZgOnegDlpPi/4DVsJfarcD+9b6FfTKf+BJCR+tEfxe8CuwU3msRE/wDPXQL+Mfm0Iq5YfFT4aXysbfx94ZJX7yPqcSOv1VmBH4iuvhljmhSaGRJIpFDI6HKsp5BBHUUAcM/xh+GkeftHi2ytgOpuEkiH5uopU+MXwobp8RvCo/3tUiH82rujUL2tq+d1tC2euUBoA47/AIW98Kv+ij+E/wDwbwf/ABVVtW+KPwx1HR76yt/iJ4SeWa3kjVf7YgGSykD+L3ruPsFj/wA+Vt/36X/CmSaXpkmPM06zfHTdAp/pQBw/w28V+DtG+HnhrRbzxp4Y+1WOlW1rKI9WgZd8cSq2Du5GQa6lfFvhVk3r4m0Up/eF9Fj/ANCp7eF/DTPvbw7pDNnOTZR5/lXLXSfCVtCu9e/sbwxe2FpeCyuJoNNim8ufzViKHCk5DsAfTr0oA6X/AITDwl/0NGh/+B8X/wAVR/wmHhL/AKGjQ/8AwPi/+Kqv/wAIH4G/6Ezw5/4K4f8A4mj/AIQPwN/0Jnhz/wAFcP8A8TQBY/4TDwl/0NGh/wDgfF/8VUkHinwxO22HxHo8reiXsZP6Gqf/AAgfgb/oTPDn/grh/wDiaZP8P/AMkZWbwT4ZZO4fS4CP/QaANSbX9ChjMk2tabGg6s10gH865y++LXwxsp/s8/j7w4ZgcGOPUI5GH4KSatw/Db4dwyCSHwF4WjcdGXSIAR/47XQ2On2NjGI7GytrVB0WGJUH5AUAcWfjF8Nwf+RkDe62c5H5hKkT4u/Dt1DL4iXB9bWcfzSu5ooA4f8A4W18Pf8AoYk/8BZv/iKhk+L3g3dttl8R3p6f6J4a1CUH6FYcfrXfUUAcCPippDgeV4Y8dSE9APC94uf++owKX/hOvE105Ol/CnxTNAP+Wt1PZ2u4+yPNu/MCu9ooA88sPijHD440jwd4p8K6v4a1PWllbTWuZbeaC4MaguoeKRtrYPQgfWvQ68+8aWdvJ8afAF3PDFIUttUiTegbaxSBwRnof3Z5+teg0AFFFFAHnLfEm/1Lxl4k8I+FfC41TVfD08CXYutQW1jMcsW9ZFbYxPOVxjqM96snxJ8TR/zTGxP08SR//GqS+YWf7QWlEKANU8M3cbnuxt7mBlH4Cd/zrvqAOC/4ST4m/wDRMbL/AMKSP/41SPrnxZkOIPh74ciB7z+J34+oW1Nd9RQBwMd18Y5j82ieBLMY76rdTEflAn86c8fxidQY7zwHbt3BtLuUfn5i/wAq7yigDgPs/wAZ/wDoLeAP/BZd/wDx+gwfGYAk6v8AD8AdT/Zl3/8AH67+uB/aAvGtfhjd2ouDbJql5ZaXLMH2eXFc3UUMrbu37t357UAUdIufilrds9zpPjX4bXUKOY2ktNKuLhVcdVJF3gEelXP7J+MT/f8AHHg6L/rn4ZnP87yoPC+m6doPxv1fS9EtYLKym8NWU01rboEjWRJ540faO5Qbc9xGPQV1GneNvCGpeJJfDen+JtJu9Yh3ebZQXSPKm372VByCO/pQBgDw/wDFV1xL8R9Dj94fDBB/8euTUo8O/Ej+L4k2X/AfDqD+cprpNd8SeH9Bms4db1zTdMkvpfJtEurlIjO/91AxG48jp6itWgDhv+Eb+Ip6/EyEf7vh+IH9XNNfwv8AEJgP+LoyKe5XQrb+ua7uigDymL4S6ovi2Xxd/wAJx5WvywC3fUINAslmZB2LMjfTPXAA6AVrHwT44br8YfEI/wB3S9OH/tCug+JV9qWl/DvxJqWjyCPUrTSrqe0cqGCypEzIcHg8gcGuD0G/+I1/bWcVj8T/AAFezTQJIsdxojm5IZQfmWO7Azz2UD2FAG5/wg/jb/osXiX/AMFmnf8AyPR/wgni4j5vjD4tz/s2Wmj/ANtad4g8QeLvDXhbSLTUJNC1HxZrGppp1o0MMsFnubc5dlLs+EiR2IDfMVwMZrW+Gmv6lr+h3R1qC1h1TTtRuNPu/su7yZHifAdAxJAZdrYJJGcZOM0AY3/CA+Lf+ix+MP8AwD03/wCRakTwd45gBEHxa1iUdvtWk2MhA/4BEld7TFmiaZ4VlRpEALoGG5QemR2zg0AcSfDPxCz8vxOOPfQrcn+dJ/wjPxD/AOin/wDlBg/xruqr2V/Y3u/7HeW9z5Z2v5UqvtPocHjoaAOLfw58S1x5PxMsjj/nt4cjbP12yrTH0P4trgxfEHwy+O0vhiTn64uhXf0UAcHHD8YoUKvqXgS+bs32G6t/xI82SkkuvjHEcrongS7A7DVbqEn84GxXe0UAcHF4h+J8fF38N9LkPraeI1f/ANGQpTpPFPxAC/J8Lbhmz0OuWoH867qigDitK8cXyanaab4r8I6j4cnvrhbayle4huYbiVld9itExYELG5O5QOOtdrXn/wAVP3njL4ZweviWST/vnT7w16BQAUUUUAFFFFABRRRQAUUUUAFFFFABRRRQAUUUUAFFFFABRRRQAUUUUAFFFFABRRRQAUUUUAFFFFABRRRQAUUUUAFFFFABRRTZXWOJ5GOFVSxPsKAOF/Z8/wCSMeGP+vP/ANnau8rg/wBnnd/wo/wdIy4MukwzY/313f1rvKACiiigAooooAK47432UmofB7xdawxNJO2kXLQhWCkSLGWQgngEMAfwrsap65Y/2nol9pvmeV9rtpIN+3O3epXOO/WgDy/RPGOo6xoWlah4l+C2uytc2sMz3EKWN5HuZAdygTeZjnj5QfYVzXx68eappPxZ8LeCNE1K70x3sor23gtSE+1TNewxJE4xzGIluCy8DHJ+6K9x8Nab/Y/hzTNIM3nmxtIrbzdu3fsQLux2zjNcjr/ww0LxH8TbjxX4k07S9Ys30SLTI7K9tFmCMs7yGT5gRzuUDHPBoAZ8TvHmseG9Wt7HQNDi1lrfT5tX1RTKVeOziZFIiwDulbcxUHg+Ww71B4s+L2h6Brmm27WslzpM9rb3d9qqSqIrGK5dktmYHlg7qw46DBNUh8F9Fl8Y3+sC4vtHs1sbfTtLt9F1Gaz8m3Te8iuEIUhnkPHIAUHgk1W8M/A3TbX4f+IfB3iLWrjWLXWIorNJUiEUlrZwZ+zRKTuy0eSdx6k9KAOt+Gfj228awXIOk32jX1ukM7Wd6U8w286b4ZhtJG1hkY6hlZT0qt8PNd8XeKbqXXpv7Gs/DLXF1b2tqIJGvHEUzxLI0m8IAxQttCHAIGa2o/CtjB4tsPEVpNNbTWumtprwpjZPDuVkD98oVbaR/fb1ryvwf4N+NOiW1pZWepaLYx2Vq1upm1J7m2lYsSZ/s4tkYMSScGbGaAPc2OFJ9BXyV4PdNI+Fmp6TIqxL4n07R9at8H/WXMl3HbXGB65FuT7yV9ZQLL9nRbhkeXYBIyLtUtjkgEnAz7muE8P/AAs8Pw+GfCOm6/bRapd+FiGsLkFk2srArkA/MMrGdrZG5FOOBQB3lxI0VvJKsTzMilhGmNzkDoMkDJ9yK8T+J3jfxXeWPh+3/wCFY+LNPWbxBYMN97YK0+yUS+VhbgkFtmOcDrk17fVXUdOsdR+zfbrWK4+yzrcwb1z5cq52uPQjJ/OgDjPD+s/Ey98O6teXHhGytdRTUSNNs9RvltzJaEKcyNB54VwSyjH3toJC5xXF/Gfxb41/4QlNL1L4b6hbNfanp9t59lqlrcREtdxZRSzo+WAKglQMkZIGSPcaxvF3h218S2NnaXk00SWuo2uoIYsZLwTLKqnIPBKgH2oAZ4Cl8RT+FLSfxVbpbavIZGmhUqfLUyMY1OwldwTYDgkZzgmtyiigAooooAKKKKACiiigDh/G/wDyVD4ff9fF/wD+kjV3Fef+Jf7YvfjX4TtV0G9Gl6dbXd4+qjDQF3jMXknur/MCM9R06GvQKACiiigDhfGCiP4veArnoXi1O2z6hoo3x/5Cz+Fd1XA+JPDPijUPjT4V8Rw6jbnwzpdrcG4s2AEi3LRuiupxkhlkwcnA8scc131ABRRSMyr95gv1NAC0VVl1LToQTLqFpGB13TKMfrVWTxF4fjXdJrulqOuWu4x/WgDUry39qGzuNQ+FsdjaSxxXFxrulRRSSR71RmvoQCVyNwBI4yM+oruf+Es8Lf8AQy6N/wCB0X/xVZPim88DeJNPgsdS8SaWYYL22vU8vUYlPmQSrKnfpuQZHcZoA4ebRPiV4DfxD4skutO8bzaoiG9FrYtZ30CIhVFt1Mjo6ISzeWdpO5zuJOKh+AXiDxW/wo8Ix6N8NWisv7Pt1e8vdUitzN8oDzhFV2O45cbsFs5716m/irwqyFW8SaKQRgj7dF0/76ry3wppYsLbQvDur/ELwuPC3hyVXso7K9CXN8ImzbrcMzYVU+XKrneVGSBlSAR381prXifxzf6x4O1nxPDdSv4dtYrC3jl+z20MSGUEyOoQvLM5z3Ea+gqO11q+1j4Q/DO71q7uoJG16DS9VLSmOSYgXFmyuUbq0mM4PXkHgV6NL4s+GulC9MvifwpY/bZDNdltQgj85yoQs3zDJ2qoyewFcL4p1P8AZ61rwpYeGZ/G3hKxsdLuI7nT/sGtwwvaSo25XjKtwc59c5NAHSeAYpfDPxF1zwNFeXl1pA0+21bTVu7l55LYSPLFLCHcligaNWUEnG9gOAAPRK8f8IeNPgp4bvb3UY/ijpOp6nfKiXN/qOtxzzOiZ2IDkKqAsx2qAMsT1NdIPjJ8KT934heG2/3b9D/I0AdjrNouoaPe2LfdubeSE/RlI/rXlfwa8D/D/wARfBbwsb/wb4cnm/sy3W6K2EQdbhEAcllG5X3AknOcmuhf4zfC1EaR/G+krGoyzmQ7R+OMVV0T4ifB/RLea30bXND0+Ged7iVLaExq8rnLOQF5YnqaAOU+M2lL4U1H4X2XhexmujB4kmktbW5v5H8yU2k5VDLIWKqTx6Adqk8K+M9T+G3gTULnx14J8TW14slzqmp38UcFxaPNIxdtrRSMUQZCLuUYAGa39d+InwV1q70q61bxpoHn6Tei9szNfCExTBHTdgkZG124PHSp/EHxK+C2v6TLpWrfEDwncWczI0kR1iJQ2xw4zhwcZUcd+h4oA85+DevaO/xO8KXseuvda94n0a/n1zzY5olnnLW80KxiRVDLEhlRNufkBPcmsrxRrGp+EYNY+L2hoTf6vruraHNIRvXAY29lIynqqS2qgDoPOb1NerXfxC+Ctz4g0rXJPiJ4VF3pUM8Nrt1eEIqShA4xu/6Zrj05qpY+LvgNB4Y/4Rp/HHg670v7S915F1q0EgMrTmfdy3aQ5HpgUAZ3iTxJ4jtvgt8SdJ1XUZbnX/Dsc9n9viiWKS4ikhWSGYKuFD7JdpxgbkJGK634T6VFpUE5i+Gum+C4WghjjaKWBri4VchVmES4BXP95+WPNZXiDxj8Ddc0zW7C+8eeDtmuW32a/kj1qBJJUClV+YPwVBOD2rCstR+Df2+0utc+Ntt4kFlMtxbW+qeJrVoElU5RzHHsV2UgEbw2DyOeaAPb6K4n/hbnwq/6KT4Q/wDBzb//ABdH/C3PhV/0Unwh/wCDm3/+LoA7aiuMh+LHwumkEcXxG8Isx6Aazb8/+P1u2nibw3dgG08QaTcA4x5V5G3Xp0NAGtRUCXlnIf3d1A30kBqZWVh8rBvoaAOE+IC+b8TvhvFn/V6hfT4/3bGZc/8AkQfnXeVwXiCRr345+FLGFWZdO0jUL65O07U8xoYoue5OJeP9k+1d7QAUUUUAFFFFABRRRQAUUUUAFFFFABRRRQAUUUUAFFFFABRRRQAUUUUAFFFFABRRRQAUUUUAFFFFABRRRQAUUUUAFFFFABWf4l0xta8PajpC3s9ib22kt/tEGPMiDqVLLuBGRnjIrQooA850/wCEOk2+mWmnXHivxtdW9pCkMSLrs1qiooAUBLby1AAAGAKm/wCFP+Dz1uvFpPqfFmp//H69AooA8+/4U/4O/wCfnxZ/4Vmpf/H6P+FP+Dv+fnxZ/wCFZqX/AMfr0GigDz7/AIU/4O/5+fFn/hWal/8AH6P+FP8Ag7/n58Wf+FZqX/x+vQaKAPPv+FP+D/8An58Wf+FZqf8A8fpT8IvCw/1ep+Mo/wDd8W6l/WevQKKAPPx8KNGU/u/E/jyMeg8VXp/nIalT4Z2kf+p8ZeO0PqfEE7/+hE13dFAHCN8NlJJ/4Tzx2PYayf8A4mk/4VqP+h98ef8Ag5P/AMTXeUUAcH/wrUf9D748/wDByf8A4mvJP2lNB8UaD4fgsPA/xG8YDW5be6vbiG51MugsYIWaZ2IAKclFUjqzgcckfS9eBeOrL4i2Vn8S9evPCOlXn9o6fc2sF4+t7BbabHE+xUjETEsSXkYEjLNjOAKANX4X6RpPjLw7DPZ/EH4gxX9vFGl/Y3GqtFcWshUHDoVyAeoPIYcgmus/4VqP+h98ef8Ag5P/AMTXH2Pg34ha+fC3iD7R4U8O39hDb4vrD7RPcy22FLQPu8tHRhn5WBCk5XBGa9soA4MfDUA/8j748/8AByf/AImnj4dzL9z4heOVH/YSjb+cZruaKAOG/wCFe3g6fEjxyP8At8tz/OGov+Fc6gPufFDx4v8A292zfzgNd9RQBwP/AArvVP8Aoqfjv/v/AGf/AMj1Ivw5mIAn+IfjqfHrqUcf/oEa13VFAHCn4aWjcv4w8dMfX/hIJ1/QECj/AIVnY/8AQ3eOv/CiuP8A4qu6ooA4X/hWdl28X+Ogf+xiuD/7NQ3w5kUH7P8AEDx1btjqNUWTH4SRsK7qigDz8/D3xFn5fi943A9Nmnn/ANtaT/hX3iUcr8YPGwPbMWnEfl9lr0GigDjvDvhLxJp2sQX2pfErxFrMEWc2dxa2McUmVI+YxwK3Gc8MOQK7GiigAooooA5PxB4FttY1efUf+Ek8VaeZwolgsdXlhhJAABCj7hwBnbjPXrk1l/8ACo/DEhzear4yvf8Arv4r1DH5LMBXoFFAHCp8JPAQBEmlXk+ev2jVruXd9d8pzTT8G/ha3+t8DaNOfWeDzT/49mu8ooA4qH4SfC2HHl/DnwmCO50iA/zWr0Xw7+H8OPK8C+GEx/d0mAf+y109FAHPf8IL4I/6E3w7/wCCyH/4mj/hBfBH/Qm+Hf8AwWQ//E10NFAHPf8ACC+CP+hN8O/+CyH/AOJoXwN4JU5Xwf4eB9tNh/8Aia6GigDIg8L+GYP9R4d0iL/cso1/kKvJp+nx/wCrsbVfpEo/pVmigCP7Pb/88Iv++BSrDEv3YkH0UU+igDzn9pRdLk+CPiW31bS9R1K2ntfLWCwRmk80sPKY7SMKrhWYk4wDnI4qHwf4u8fXvhPR7yL4ctNHPYwyJI+twK0gMakMRg4z1xmsn9qnwv4s1rwM2reEry8kutLhnabSo7yeCO9jdQGP7mRGZ0AJVSSpywIORVb9nFfFa2+mJGPEI8JLocCsNfULKLwLHxaggS+TjzAfN44XZxmgDsX8QePX+/8ADCNvrrkB/wDZahOueNFY7/hKrr/0y1i1J/8AHttegUUAedv4m8VxE+Z8GdWde3k6jpzH8jMKiPi7xCfvfBHxMf8At40z/wCSa9JooA80/wCEq1z/AKId4j/7/aZ/8k0f8JVrf8XwO8SY9ptMP/tzXpdFAHm8XjJw2Lz4O+MLUd2FlZTAf9+52P6Usnj7w7D/AMfHgLxjEc848KXEmPxRGFej0UAeZv8AEf4cyDyr7RtZtgeou/CN8g/WDFZd9rnwB1A/8TDRfD8ueS114bcY+peHivYKKAPC5x+y8TiTR/A6nrxpKD9QlNgH7L4fba6l4M0qUjrbakLB/wA1dDXu1RXFtbXC7bi3ilX0dAw/WgDyTQLz4P6HqsN9pvxcVUibItZ/GxubcjHQpLM3Fd9beO/BF1GJLbxl4dmQ9Gj1OFh+jVo/2DoX/QF03/wFT/CoJvCvhiY5m8OaPIfVrKM/0oAjHjHwj/0NWh/+DCL/AOKo/wCEw8I/9DTof/gwi/8AiqQeDPB4HHhTQh/3Dov/AImj/hDfCH/QqaF/4L4v/iaAF/4TDwj/ANDTof8A4MIv/iqP+Ex8I5x/wlOh5/7CEX/xVJ/whvhD/oVNC/8ABfF/8TQPBvhAHI8KaED6/wBnxf8AxNAC/wDCYeEv+hp0P/wYRf8AxVKvi/wmzBV8UaISTgAX8WSf++qT/hD/AAl/0K2h/wDgvi/+JpV8I+E1YMvhjRFYHIIsIgQf++aANuiuP+DOqahrfw407VNUuXubu4luWeRsZwLiQKOOwUAD2FdhQAUUUUAFFFFABRRRQAUUUUAFFFFABRRRQAUUUUAFFFFABRRRQAUUUUAFFFFABRRRQAUUUUAFFFFABRRRQAUUUUAFFFFABRRRQAUUUUAFFFFABXPfE2Iz/DbxPCOsmj3a/nC1dDVLXbf7Zod/aYz59tJH0z95SP60AVPA8hm8FaFKer6dbt+ca1sVx3wPu2vvgz4LumJLyaFZ7s/3hCoP6g12NABRRRQAUUUUAFFFFABRRRQAUUUUAFFFFABRRRQAUUUUAFFFFABRRRQAUUUUAFFFFABRRRQAUUUUAFcv418b6X4ang01YbjVteu1JstIsVD3M/8AtEZxHGO8jkKPXPFZPifxZqura5P4O8AeTLqkJC6nqsq77XSQR0I/5aTkciIHjguQMA7ngjwdpHhO3nNn513qN2we/wBTu38y6vH/AL0j+noowqjgACgDA0rwj4j8QataeIPH+rMht2MlroGlzullATggzNw1y4wOWAQc4XvVCK11f4Tkpp1pea14CHItoQ015oo7+WvLTW/faMunbcvC+oUUAVNG1PT9Z0u21TSb2C9sbqMSQTwuGSRT0IIq3XnOs+HdY8F6vc+JvAll9ssbqQzax4dRgonY/euLXOFSb+8nCyezcnrvCPibRfFejrqmiXguIdxjkRlKSwSD70ciHDI4PBVgCKANiiiigAooooAKKKKACiiigAooooAKKKKACiiigAooooAKKKKAOC/Z+GPhJo6+j3Q/8mZa72uE+AXHws06PvHdX0Z+q3kyn+Vd3QAUUUUAFFFFABRRRQAUUUUAFFFFABRRRQAUUUUAFFFFABRRRQAUUUUAFFFFABRRRQAUUUUAFFFFABRRRQAUUUUAFFFFABRRRQAUUUUAFFFFABRRRQBwfwBZV+FGlWqcCylurID08i5lix/45XeVwXwPQweHtdsv+fbxRq6gY6BrySQfo4rvaACiiigAooooAKKKKACiiigAooooAKKKKACiiigApiTRSSSRxyIzxkCRQwJQkZAI7cEH8aoajr+jadremaLfajBBqOqmUWNu7Yefy13PtHsOTXF/DMXTfFX4pSs8RtP7VsY41AO8SDT4C5PbGGTH0PtQB6NRRRQAUUUUAFFFFABRRRQAUUVleK/EGk+F9CuNa1q6FvaQAZOCzuxOFRFHLOxwAo5JIAoAu6nfWWmafPqGo3cFnZ26GSaeZwiRqOpZjwBXnkmseJviP/o3hf7Z4d8KvxNrksZju71O4tI2GY1P/PZx0+4p4YP0bwxqnja/g8TfEK1MNpG4m0rw27BorUDlZbkDiWfvg5WPoMkbqvfFPXtet5dL8KeC5reLxPq0hkhluIvMhtLWJlM88i5GRhlQAclnXpyQAdP4X0DSPDOiQaNodlHZ2UOdqLklmJyzMx5ZicksSSSck1p14V451zVfFXgQ+GtcxBqdr4rh0XVTpskkUdztjE6tGQd6h1aIlckg5XJxk6PiTxF8QbP4H+BE8PNDF4y1wafZtJqMfEcrW5llMgYcHEbA8Z59aAPZKKx/Enifw/4YtIJ/Emt6fpgmYRxG4mCea/8AdQHlj7DNbFABXGeLfAq3urN4m8L6k3h3xNsCteRR74bxR0juYsgSr6Hh1/hYVynxa+JHhnS/EnhuGDxHKl3pniKOHUYbaOZ08t4ZI3jk2KVYjerbScggcZr0bwr4n0HxTZS3nh/U4L+GGXyZSmQ0b4B2spAKnBBwQOooAxPB/jaS81f/AIRfxXp66F4oRC62xk3wXyDrLayEDzF9VOHT+IdCezrE8aeF9J8W6P8A2dq0T/I4ltrmF9k9rMPuyxOOUceo+hyCRXNeF/FWqaHrcHgvx9NGNQlO3SdYCeXBqygfdPaO4A+9H0b7ycZCgHoFFFFABRRRQAUUUUAFFFFABRRRQAUUUUAFFFFABRRRQB5/+z3/AMkvt/8AsKar/wCnC4r0CuB/Z+Qp8MLdT/0E9UP56hcGu+oAKKKKACiiigAooooAKKKKACiiigAooooAKKKKACiiigAooooAKKKKACiiigAooooAKKKKACiiigAooooAKKKKACiiigAooooAKKKKACiiigAooooA4L4TSFda+IFkf+XbxTIVA7CS1tpf5ua72uA+G/yfEf4mQ/8AUYtJf++tPth/7LXf0AFFFFABRRRQAUUUUAFFFFABRRRQAUUUUAFFFFAHgnxmLN8V38VLHvHgPT9O1Etz8kVxdSrdkY/6d4mP4V3XwaeG/u/G+v2sqTWup+JpjBKhyrrBDDbEg9xvhetLSNBvofib4r1S7tY5NL1XTrCKJ2ZWDNH9oEkZXrjDoeRg7j710uk6bp+kadDpuk2NtYWUC7Ybe2iWOOMZzhVUADkmgDw/xK/iDXLTxr8TrXxfqehaPo1tfW+l21pPLiSWzLKZ3RnMJVpI5F2eVkrtO7Ne36JNc3GjWNxeII7mW3jeZQOFcqCw/PNeS6Z4M8ZXOlQ/DzUtOtbbwxBq095e6mt2rtqNsbp7iO3WIfMpYsqyFuNqsBndx7LQAUUUUAFFFFABRRXD+LPGV9JrcnhHwPawan4hUA3c8xP2PSkPR52HJcjlYl+Zu+1fmoA2PG3i/R/CVlFJqDSz3l0/l2On2qeZdXkn9yKMck+p4CjkkDmsHwz4V1fWddt/GXj4QtqEGW0rR4m32+lAjG4npLcEcGTovITAyW0/BXgex8P3c2s313PrfiS6QLd6veAGVl/55xqPlhiB6ImB3OTzXV0AFefeLNL8Z2PxEPivwvpOlaytxpCaaYb3UGtTassryeYCI33q29Qw4P7sdc8eg0UAfOfxHk17wGPCGjtaWGpa1rfiqDUZtUuLowW9xfyMUMQRVZlRFaML32J3IJq14q1T4raxqnhQapZeG9EuLTxebSBZbW4kWSRbW42zA71DxOhJG05BO0nKsK9v8RaBo/iG3tbfWrCK8jtLuK9tw+QY54m3I4I5BBH48g8E1Q8SeFYdd8T+HNaudRu0j0K4luo7JNvkzzNE0au+Ruyiu+MED5uaAPNfiFfWPh/xcnjSHXLCfxdo9rYWOr6Y8OYbmKeXhLcvl4pSWdlCOc4QODlTWH4m8cPY/FzXm1C808ajpN4I9NttY8Vf2TY2tsLeFvNMQy1w0jyS8mNgAmMgivX9eTwXa+N9Em1HR9Pn8S6gzw2Fx9hSS5VI0Ls2/G5EUcZzgFlHU1v3mnafeur3lja3LJ90ywq5H0yKAPM/Fl9f+KfDvw61jQPDd09nqGvWGo3ZC7HtI+XMjpjJBycnjGQTXqwABOABnr70DgYHAooAKzvEmh6T4j0efR9csIb6xnADxSrkZHIIPUMDyCMEHkGtGigDzRrnxV8NV/4mEl74r8Hx9braZNS0xP8ApoBzcxAfxD94oHIfkj0HSNRsNX0y31PS7yC9srmMSQTwOHSRT0II4Iq1XnOseGNW8G6lceJvh9befbTyGbVfDYYJFdE/emts8RT9yOEk74PzUAejUVkeEPEmkeKtFj1bRrkywljHIjqUlgkXhopEPKOp4KnkVr0AFFFFABRRRQAUUUUAFFFFABRRRQAUUUUAcJ8Agw+FOl7hhmmu2b6m6lJ/U13dcN8AmWT4Q+H5lz+9heU59Wldj+pNdzQAUUUUAFFFFABRRRQAUUUUAFFFFABRRRQAUUUUAFFFFABRRRQAUUUUAFFFFABRRRQAUUUUAFFFFABRRRQAUUUUAFFFFABRRRQAUUUUAFFFFABRRRQB5jpev6D4U+JPxFn8Q6tY6XC506/Mt1Msa+U0AgByevzxMvHcgd60U+M3wtkB8rxxpEp/uxSl2P0ABJrtJtPsJ7xL2axtpbqNNiTPEpdV3BsBiMgZAOPUA1ZoA4ST4ueAlOI9VvbnPT7NpF3Nn6bIjmov+Fv+ET/q7XxZIPVPCupEf+iK9AooA8/Hxa8OucQ6J42mPYJ4T1Dn84RUqfE6zkBKeDfHZ9j4duF/mBXd0UAcL/wsaRlJh+H3jqRh0X+zEQn8XkA/WoT8RNcYbovhJ47ce4sF/Q3Wa9AooA8+HxB8SN934P8Ajcn/AGpdOH/t1Sr448Zu3y/B7xMo9X1HTh/K4NegUUAcF/wmHjzr/wAKl1XH/YYsc/8AoykPjbxoAf8Ai0PiM/TUtO/+SK76igDx/Xv2hvBfhnU4tH8XaX4h0DV5FDLYT2iTykHOCPIeQYOOOea6ZPi54BZFYaxcgEZwdMus/wDouu38mHzvO8qPzcY37Rux6Zp9AHCSfFzwDGcNq14DjP8AyCbv/wCNU3/hb/gH/oJaifpot6f/AGjXe0UAcF/wt7wJ/De6u/sugX7fyhpp+L/gkEjPiPj/AKlnUf8A4xXf0UAcB/wuDwT6+I//AAmdR/8AjFC/F/wUxwD4j/8ACZ1H/wCMV39FAHBf8Le8D/xXGuIPV/DuoKP1gpw+L3w8CF5dfe2TP3rmwuIR/wCPxiu7ooA4zTfit8MtRl8qz8f+GZJf+eZ1OJX/AO+SwNdHa65ot1cwW1rq1hPNPG8kMcdwrNIiFQ7KAeQN65PbcPWpb/S9M1Bdt9p1pdD0mhVx+oryH4q/BjRbrWNN8U+FfC2nieyEseo6ZYTNpr6pA+3KebEVBYbeFf5WyQSvWgDotU8Sax441G48PeAbs2mmwSGHVPEqqGSJgcNBaZ4km7F+Uj/2m+Udh4R8N6P4V0WPSdEtBb26sXdixeSaRuWkkc/M7seSxJJNUPhxrvhvWfDyQ+G7cafDp5FrNpjweRLYOo/1LxfwEDp2IwQSCDXTUAFFFFABRRRQAVyfjjxtb+Hr610Ow0281vxHfxNJZaZarguikAySSH5IowSMsx74AJ4rrK53xt4R07xTBbPNNdWGpWLmTT9Ss3CXFo5GCVJBBUjhkYFWHBBoAoeA/Cl9Y6jdeKfFN3DqHii/jEcrwg+RZQA5FtADyEB5LHl25OOAOxrzi38YeIPCOsWWh/EK3juLW9lENj4isLdltnckKsdzHz9nkYsADkox/u9K9HoAKKKKACiiigAooooA4bxd4P1CHWpPGHga4g0/xEVAu7aYkWmrIvRJwPuuBwswG5eh3L8tafgXxnp3iqO4t0gudO1iywuo6XdptntHOeG7MpwdrqSrDkGovGPjez0LUIdD0+xudd8R3Kb7fSrPHmBM48yVz8sMWf42Iz0AY8VV8O+H/F95qsGveMPEjxSxndDoukMY7KHjpI5HmXDc9TtX0QdaAO1ooooAKKKKACiiigAooooAKKKKACmyttjZvQE06q+qP5emXUn92F2/JTQBxf7PHPwO8Gv/AH9JgkP1Zcn+dd5XD/ABdnwN8DL/ANQCyP5wqa7igAooooAKKKKACiiigAooooAKKKKACiiigAooooAKKKKACiiigAooooAKKKKACiiigAooooAKKKKACiiigAooooAKKKKACiiigAooooAKKKKACiiigAooooAKKKKACiiigAooooAKKKKACiiigAooooAKKKKACiiigAooooAKKKKACiiigDj/ABl4Lk1HVo/E3hvUf7D8TwR+Ut4IvMhuogciG5jyPMTPQ5DLklSMkGlYeP7rSr+30n4haL/wjl3cOIre/jm8/TbqQnAVZsAxseySqpOcAtXe1W1XT7HVdNuNN1OzgvLK5jMc8E8YdJFPUEHgigCzRXmYg8RfDEn7HFf+JfBS8/Z1Jm1DSV/6Z5+a4hA/h5kUDjeMAd74f1nS/EGkW+raLfwX9jcLuinhfcrev0I6EHkHg0Acv4g+J/h3RfE954duLHxHd31nHFLONP0O5u0RZAShLRIw52t+Kn0NbnhDxNY+KLKa7sLPV7aOGTy2Go6ZPZuTgHKrMqlhz1AxXnviTQNR1j9oaeKz8U6toVvJ4Wge5GmpCsk+y6lCqXkRiAN7fdweetcT9u1TSP2lodBtPFfiO8gsL6wtzb3upPMkiXFpeTXBZDhSAIoCD/CVGPvHIB9J0V4X4Y+Mf9rfFOK1j8SaPcaLfatdaRFpcQX7TbeUp8u6ds7tskkci4Ixh4iOSc5C/F74lX11omm6bpmiG68SwT6xokzW8hjeyijmc2zjfnzjsgHmDjE2dvy8gH0WeetFeMWfxIt/EvxM0G4tTrI8PW2i2+plrOJjB512JFBunGFRIo0Y4bjcxOMoK9mUhlDKQQRkEd6AOB8I+MPFnijVrLUtN8M2aeDbuWWOO+lvsXbIivtn8oLgI7qAo3FsMGIHStfXvG1no0cT3GheJ7jzZJUAs9GnuCvlttLNsU4B6rn7w5FcRYXFj4V+Kmn+F/A2uSahbXV3INa8OhvPi0lGjeT7QrDm2y+weUx2tv8AlUYrnb3xN8Vrj4ceCdZ8K3V7dSaornUpl0pLz7Om9m3ldwZjghFUYHGSw7gHrtj478I3Xhg+JP7es7TS1kaKSa9b7MYZFOGjkWXayOD1VgD7V0gr5k8R6d/wiHi/wvNeeKbGyuJNPvNVe68U6S13Jd388sQbbDDIgE6RoqKEztXIA5zXu97400XTPB1t4n1qS40y1uI0aOG6t2S5d3+7GIRlzI3ZAC3bGaAOkrz7W/GGqeIdUuPDPw5WC4uYHMWo65Mu+y0091X/AJ7zj/nmpwp++R0MB0/xh8Qhu1s3XhHwu/TTYZdupXyf9N5VP+joe8cZL46uvK13mi6Xp2i6Vb6VpFjb2NjbII4beCMIkajsAKAMvwR4R0vwnYzR2Zmur27fzr/Ubpt9zey/35H7+gAwqjhQBxXQUUUAFFFFABRRRQAUUUUAFFFFABRRRQAVR8RSCHw/qMzcBLWVj+CGr1YvjyVoPA2vzKMtHplywHqRExoAyfgjGYfgz4KjIwV0CxB/78JXYVz/AMNIlt/hx4ZgXpHpFog/CFRXQUAFFFFABRRRQAUUUUAFFFFABRRRQAUUUUAFFFFABRRRQAUUUUAFFFFABRRRQAUUUUAFFFFABRRRQAUUUUAFFFFABRRRQAUUUUAFFFFABRRRQAUUUUAFFFFABRRRQAUUUUAFFFFABRRRQAUUUUAFFFFABRRRQAUUUUAFFFFABRRRQAUUUUAFFFFABXA+IvB+qaPrM/iv4evBa6jM2/UdJmbZZ6r7nH+qnx0lA54DhhjHfUUAc14I8YaR4qW4SCOaw1ezxHqGmXiBLu0b0de6ns6kq3UE1z+pfBrwNrXjbXPFfiTRrPW7vVfJCrdwBxbLHEI8Jn1xk5re8a+CtL8TSW9/51xpeuWYP2HV7Fglzb56rkgh0PeNwVPcd6yND8YaromsW/hj4hwwWt7cOI9O1m3UrZak3ZeSfJm/6ZscH+Bm5AAJJPhppv8Awq7SPAcF/cwwaT9jNreqi+crW0qOrcADJ2YPHc1r+GfBmh6Ho/huwjthdSeG7IWenXc6gzRp5YjY5AABZVGcAZro6KAPFfiL/wAK1bxRqVm+qeLLK5e1jsNZg8Oafcz27xgMyRT+VDIiNtlbgFWw/PavT/Aep+H9W8I6beeFbpLnRhCIbR1DAbI/3e35gGyCpHPPFcP450zV/B3w5+J2pabfAnUTPqFkY0Pm2rSW6RyE+uGVnHpnHavRPDulWOh6DYaNpkKQWVlbpbwRqMBUVQB/KgC6qIrMyooZjliByfrSQQxQQrDBEkUaDCoigKB7AU+ub8deMNO8J2luJobjUNTvnMWnaZaKGuLyTH3UHQKOrO2FUckigCfxx4m0vwnop1TUhJK5kWG0tYU3z3U7cJFEv8TsfyGScAE1heC/Cd/daunjXxwIrjxEykWlorb7fR4m/wCWUXYyEffl6seBhcCl8GeE9Tl1seM/HE0F34iKMlpawsWtdJibrHDkDc5GN8pGW6DC8V3NABRRRQAUUUUAFFFFABRRRQAUUUUAFFFFABRRRQAVzHxclaD4U+LplODHod6wPoRA5rp65D42tt+DPjZvTw/fn/yXegDb8Iqq+FNIVV2qLGAAeg8ta1KzvDA2+GtLU9RZwj/xwVo0AFFFFABRRRQAUUUUAFFFFABRRRQAUUUUAFFFFABRRRQAUUUUAFFFFABRRRQAUUUUAFFFFABRRRQAUUUUAFFFFABRRRQAUUUUAFFFFABRRRQAUUUUAFFFFABRRRQAUUUUAFFFFABRRRQAUUUUAFFFFABRRRQAUUUUAFFFFABRRRQAUUUUAFFFFABRRRQAVQ8QaPpfiDRrnR9ZsYb2wukKTQyrlWH9COoI5B5FX6KAPM7TWtU+Gdwmk+L7u41DwozBNP8AEMp3vZg/dhvT6Dos/Q8B8H5m9LjdZEWSNldGAKspyCD3FNnhiuIHgniSWKRSro6hlZT1BB6ivOn8MeIfALtd/D9f7S0IZabwzcTbfKHc2Urf6s/9MmPln+Ep3AGfGz4yeHvhQ2mDXtL1m7XUZPLSW0tgYozzjfIxC5OD8oJbAJxXpakMoYdD0rlNJ1Dwd8SNGDSWNrqSWV0pmsdRtB51jcpyBJE4zHIOx9DkEg5rO17x1dX2qT+Gvh/Zw63rMLeXd3bsRp+mn/ptIPvOOvlJljxnaDmgDV8e+MLfwzFbWdravqmv6iTHpmlwtiS4cdWY/wAES9WkPCj1JANbwH4Nk0m8uPEniK7TVvFd+gW6vQpEcEeci3t1P3Il/Nj8zZPSfwP4NtvDstzql7eS6z4ivwPt+q3KgSSgdI0UcRRL/DGvA6nJJJ6mgAooooAKKKKACiiigAooooAKKKKACiiigAooooAKKKKACuK+Pb+X8D/HTf8AUvX3/oh67WuD/aIZl+BXjYL1bRblP++oyP60Adlo67NIs1xjECDH/ARVqmW6hLeNB0VAB+VPoAKKKKACiiigAooooAKKKKACiiigAooooAKKKKACiiigAooooAKKKKACiiigAooooAKKKKACiiigAooooAKKKKACiiigAooooAKKKKACiiigAooooAKKKKACiiigAooooAKKKKACiiigAooooAKKKKACiiigAooooAKK55vHHhFPEGoaBN4i0631PTzGLm3nmETIZE3rjdgNleeM471oDXtDIyNZ04j/AK+k/wAaANGis469oYGTrOnAf9fSf41Qu/HHgqzGbvxh4ftx/wBNdShX+bUAdBRXFTfFv4WQ58z4jeEgR2GrwH+TVD/wuT4UY4+Inhk/TUIz/WgDu6K4RPjF8L3J8vxtpEmP7kpb+QqSH4seAJs+TrxlA7pZzsPzCUAdvRXD/wDC2vh//wBB5vwsbj/4ik/4W38P/wDoPN/4A3H/AMboA7miuFb4t+AQPk1i6mP92HS7qRvyWMmof+FweDmyYbfxXOv96LwpqTD8/IoA9Aorz/8A4W94U/6B/jH/AMJLUv8A4xS/8Ld8I/8APn4v/wDCS1P/AOMUAc98ZPC1nrXxS8CQxxmzfUp7qHVbm1ne2nurWK3ZhA0kZDFcnOD78ivU9D0nS9D0qDStG0+20+xt12xW9vGERB7AV8Q+K/DV/b/FLRbnwdo3ijUtDiN27X7aHrFpdQmVSF89441kmMZPyshBcfK5HLH6X8GePtO0HwrpujXtp8RtZubSBY5b678LX5luGHVmPlZ/Mk4xknrQB6pRXBf8LU0X/oXPHX/hKX//AMap4+JVvIu638F+Ophnj/iQyx5/7+bcfjigDuqK4b/hYk//AETzxz/4Lov/AI7R/wALH2n994E8dRen/Eo8zP8A3wzUAdzRXC/8LKtv+hM8df8AggmpyfEOWTJj8AeOCvYnTUTP4NID+lAHcUVw8vxCukHy/DvxxIx6KtjCP1MwA/Gq58f+JpCRa/CHxm/vLPp0X87qgD0CivP/APhNvHP/AER3xD/4NtN/+SKP+E28c/8ARHfEP/g203/5IoA9Aorz/wD4Trxgg/e/B3xYP+ud9prf+3NSRfETUAM3nwy8dWv/AG6203/oqdjQB3lFcHN8UdMgOLjwp46iPoPDN3Jn8URhXa6fdJfWFvexRzxpPEsqpPE0UihhkBkYBlbnkEAg0AT0UUUAFFFFABXB/tCH/iyvipf79gyf99ED+td5XC/H9Q/wf8Qof4oEA+vmpj9aAO6HQUUUUAFFFFABRRRQAUUUUAFFFFABRRRQAUUUUAFFFFABRRRQAUUUUAFFFFABRRRQAUUUUAFFFFABRRRQAUUUUAFFFFABRRRQAUUUUAFFFFABRRRQAUUUUAFFFFABRRRQAUUUUAFFFFABRRRQAUUUUAFFFFABRRRQAUUUUAeG+FvAmmXf7Q3xKXxZpuk65DqEGk6raRXNssogA+0Qrw4OGHk9R2Nejt8N/hzn5vAXhTJ9dIt+f/HKydJ/5OI8R/8AYraZ/wClN7Xlmt6TovjH9pvULfxmi3WnaUl6IRcXDJFbxxWenMrDBATDXczbuuSpz8q4APah8Nvh0pyPAPhUH1Gj2/8A8RU1/ovgXw9pdzql7o3h7TLG2j3z3D2kMUcaDuxxgCuY+C/i2O48MaBo+o31zfX17/aDabPIC73NhbXBjiuHf/ajaE7j94tnvXXeG9csvFGlaizWMka2t7c6fdW1yqt80TlDkcgqwww9mFAGhZ2WkvBFPaWdkYnUNG8cS4KkZBGB0q0IYV+7Eg+iivLvEXi6/wBS/ZuXx1ZhtJuf7Ot9VCWshHlojpI0YPHBRSp9iRXY/E7XL3w58NvEfiLTIY5rzTdLuLuBJASrOkbMMgckcUAdGAB0GKCQMZIGeleZ2d94v8Ka14dfW/Ew8T6Lr1wtm8kllFby2c7xs8TIYwA0TFShDAsCynceaveL2bWfi74Q0CMt5OlR3GvXe08ZCG3gU/VppW/7ZUAd9RXlXx31fSrfXvB+heINS1Kx0S/uLqa8+wNcLJP5MQ2Rlrf94q75FckED5Bk10Pw18VeDL62j8NeH/GS69eWUJcpc3XmXgi3YBfIDEDcq7iM9Mkk5IB2lFeO698W9Vjl8Y6faaTbWNzpCXUuj3FzIZItS+xhWuoSAB5b7TxyeG3c7WFdZ448V6hDpGi2HhmKI+IPEbCPTxcLujtk2b5biQDqsadsjcxRcjdmgDtqK84utU8W+F4NM8HW+pJ4u8V6pJcTW13fwpbRW9ojLulnEQAYJ5iKAgBcso45YbfgXxVfatqmqeHde0tNM1/SVikuY4JvOt5opd/lzRPgHa3luNrAMpU9RgkA6yivBfEF1rPhv4ieOfFGleIbuGGz1nSFl0qQo1reCeKCKRMFdyy7SpUqw5AyCCa2vjfc6vefEDwr4Xt7HVL/AE29sr25ks7DWDprXM0TQhQ0wZWKqru2xTk9SCFoA9grK8Ya9ZeF/C+peINQ3G2sLdpmVBlnIHCKO7McKB3JFUfBOsatqQu7XVvD40WWy8tBGdSju3OVz82w5U4wfm5Oc1g+Ph/wknxD8M+Cx89nat/b2qjGQUhYC2jb/enIf38g0AdV4MbXG8J6ZJ4m8hdZe2R71YRhElIyyj2XOM98ZrVhljmiWWGRJI2GVZDkEexFcZ8RPDni7XLTUYdJ8ZtpNlNZvEtrDpsTyFihB/euTwcjooI9fTjvgh4Lnu/hj4R1W38f+K4bSXTba4Sxt/scFvGSis0e1LcHbnIOTk8855oA9Xl1vRotbi0OTVrBNVmiM0Vk1wgndB1YR53Ee+Kv18ueGNaTxN418QIbeBvEQ+KUcNlMqkzC0tAgkyeSqLAkgPQZkx1bn0X41a5od1400Twd4iu7qHQo7eTUtXS3jmczcmO2hbyVLBWYSyds+QBQB69RXkHw68ZSXXwM8STx6lcXV74Xiv7L7bNG6SSrBGXglYSKDuMRiY5HUmsT4aar4uHxO8J+GfE11qV9PZaJe3Q1BlIjv7aYWrRNIQNplRhJGe/yhv46APVLLx54VvfE8nhu11J5tSjmeBlW1m8vzEBLp5u3yyy4ORuyOldNXk3ji70/wDr0njLQdatFhu72JNe0RrlStyXZYzPCmcrcLlSQP9YAQRuwayfH+sarH8WH8RQ6pdxaX4W1DSdNmtYpmEMn21mS4aRBw2FntWGfu7OMZNAHt9Ynizxd4Y8JxW83ibXbDSI7hmWF7qURhyMZwT6ZH515T8MNW1W++Llv4mur66k03xlY6lLY27zEwxQWk9ulqyL0G+N5JCRyfM9q9J0LWb3UPiD4o0W48n7FpkNl5CbPnLSrIzsTnkHCgDHG0+tAF/QvFfhfXo1k0PxJo+pq33TaXscuf++SawvgffXmofDi0mv724vbiO9v7dp53LO4ivJo1JJ68IK5n4P+CfB+veBo9U1rwvo2o38mtanctPc2UbypL9vn6MRkYwAMdMCtv9nzj4ble663rC/lqVzQB6DRRRQAUUUUAFcJ8fG2fCnVWwD+9tBg9wbqIV3dcF+0B/ySfVf+u1n/AOlUNAHe0UUUAFFFFABRRRQAUUUUAFFFFABRRRQAUUUUAFFFFABRRRQAUUUUAFFFFABRRRQAUUUUAFFFFABRRRQAUUUUAFFFFABRRRQAUUUUAFFFFABRRRQAUUUUAFFFFABRRRQAUUUUAFFFFABRRRQAUUUUAFFFFABRRRQAUUUUAefaRz+0R4j9vC2mA/8AgTe1wD6DYar+2L4h0q9tI7/SbzweZb+3liJj8yWSCIq2Rg7o7ePp6H0rp/8AhItJ8I/GfxhrHjjxBoehWl7Zada6Obu8SF7iKJZnkbDNk4kmYZAA4Aqh4m8XfD7Vtfj8TeFfidbaVq62v2W4nsrb7bHcwBtyrJGAQWVmYowORuYcgkUAZXhKXV/DPjCW/Fjq/iHSPDFxfeGn+zRtc3kNvILW6tm2/elVQfKJGW4UnPJr0z4QaXqVh4RkutatntdS1fULrVLi3fG6Dz5WdImxxuSMop91Nct4M8ceAfCminTbG58V6vPJM9zeXh8OX80t1cSHLyOUg25J6AYAAAAAArdT4qaRKQLfwz46mz3Hhe9UD/vqMUAUvDvge+vvgjqXw61wNpyul9plvNEyyH7KZZFgkAz/AM8ynynnjtWhL4f8Ux+DPEkPiDxAPEdze6ZLBDZ2tglpAn7txtRcu5ZtwBLORwMAc5B8SFY/uvAvjpx6/wBjFP8A0JhTpPiFMFHlfD7xxM5Gdq6dGuPxeUD9aAOP+G9n418X6R4Ij8TaNdaLp3h6KC7uXvIlhuL+8SIqiJEGYxxJuJLMQzMowoGa6f4V6d4hl8T+M/FPiqxjs7291M2GnooI/wCJdbFhA3JPLl5HPruzgdKX/hYHiSY4s/hD40fnrPNp8I/W6z+lTjxP8QJNvlfDCSPIyftGuW64/wC+N/NADfiXb65a+JfC/inQ9BuddOmSXUF1Z2s0UcxiniwGUyuqnDxx5+YHBJ5xVvQNY8baprdt9s8Fw6DpgVzczXmoRTXDcfIqJCWUfNgklugIxzmqf/CQfFJj8nw30dR28zxNj+VuajOs/F+RsR+AvCcQ9ZfE8p/9BtKAIrD4VaVqHw+fwz40K6xPc6hc6ldXNuz25E88ruxiKtuQbZDHjPK5ByCak8XeHfFNr430jxN4PsdDvhZ6TNpf2TUryS2WBXkicSIyRSZ4iClSBwBzU0M/xgl5m0zwLadeF1C6n+g/1KUvl/F9uftngWL2+yXb/r5i0ARzeBdY1yO11TxF4muLDxLbNMtvfaAiwC3gl2brcCUOJFzGpJdckjI29K3/AAZ4T0zwtb3Qs5bu8vL2Xzr6/vZvNuLqTGAztwMAcBQAqjgAVgPZfGSUnHiPwLbDtt0S6lP63K0DQ/i0wy/xC8NofSPwu+P1ujQBLY/DHw7H8RdX8c38P9o6ne3MNxbiYsY7QxwJECqbthf5SQ+3cNxANdH4o8N6F4nsUste0yC/gjkEsQkB3RuOjIwwVbk8gg8mvKviJqnxU8H3XheOXxx4fuItd1yHSGk/4Rxk8gyo5V8faTu+ZAMcfe611yeH/imWHmfEjRQPSPwxjP53BoA6Xwr4Y0HwtZzWmg6dHZRzy+bMQzO8r4C7mdiWY4UDkngAVy/witdUvNR8VeMNdsZLO+1XVZLW2hkjKNHY2rNDAMHn5iJJfQ+bkcYqdvDvxJb/AJqTYqP9jw6mf1lNOHhnx95ZU/EyQt/e/sS3/lQB2sm8xsIyofB2lhkA9s1wX7PEOqW/wZ8O2+tWb2WoQwyRzwMhTyyszjAB5AwBj2xU/wDwjHj/AP6KdJ/4I7aj/hGPH/8A0U6T/wAEdtQBxvgD4J6bbeJPHVz4x0bTdUtdT8Qy6npMr/NJEko3PgjBQ7jtODztB9K9C8H+AfC/hHWNQ1Tw/YvZz6jDDDcjzncOIjIUPzEnP7xhnPTA7VmN4R8dScyfFjVI/aDR7FR/49G1J/whnjb/AKK74g/8Fenf/GKANGfwDoV1pXiPTL1r24tvEd6bvUh9oaMyZSOPywU2kR7IlQjuMg5ya6mKNIokijUIiKFVQMAAdBXC/wDCGeNv+iu+IP8AwV6d/wDGKP8AhDPG3/RXfEH/AIK9O/8AjFAG3pPgbwVpNylzpfhHQbK4RiyzQafEkgYnOdwXOc981S1L4e+H9T0/xbp+orc3Nr4quFnv0aTbtKwxQgRlQCuBCrdznP0qiPB/jheV+LWtMf8ApppNgR+kIqQ+G/iIrAxfEqJhjkTaBC35bXWgDZk8H6EX8PtDby2v/CPDbpwt5mjEcewIYyAfmQqFypyPlHpV+z0bTrPW9Q1q3gKX2opCl1JvJ3iIME4JwMb26dc1ykugfFFTut/iNoxOPuzeGsr/AOO3AP602O2+MUIw2s+Bb3HQnS7qAt+U74/WgDtNNsLLTbY22n2kFpAZJJTHCgVd7uXdsDuzMzE9ySa4j9n/AP5J5L/2HtZ/9OdzU0V78WoNTto7jw/4PvLFpQs89vqtxFKiE8sI2hIJA5xu5x2q98JvDep+FPBUekaxd2l3fm9vbuaW1RliJnupZsKGyQAJAMEnp1PWgDrKKKKACiiigArgv2gP+ST6r/12s/8A0qhrva4f47AH4XankAjzrTr/ANfUVAHcUUUUAFFFFABRRRQAUUUUAFFFFABRRRQAUUUUAFFFFABRRRQAUUUUAFFFFABRRRQAUUUUAFFFFABRRRQAUUUUAFFFFABRRRQAUUUUAFFFFABRRRQAUUUUAFFFFABRRRQAUUUUAFFFFABRRRQAUUUUAFFFFABRRRQAUUUUAVzYWLXrXxs7c3TII2nMS+YVBJClsZwCTge5qxRRQAUUUUAFFFFABRRRQAUUUUAFFFFABRRRQBwHx/hVvhvJeELv0/VNOvkYj7pivYWJHvtDD8a7+uD/AGhdw+CXi6RcZh0yWYZ/2Bu/9lruom3xK46MAaAHUUUUAFFFFABRRRQAUUUUAFFFFABRRRQAUUUUAFFFFABRRRQAVw3x7/5JJrrf3Y4m+mJkP9K7muD/AGhMj4M+JmBI22gY49A6k/yoA7yigUUAFFFFABRRRQAUUUUAFFFFABRRRQAUUUUAFFFFABRRRQAUUUUAFFFFABRRRQAUUUUAFFFFABRRRQAUUUUAFFFFABRRRQAUUUUAFFFFABRRRQAUUUUAFFFFABRRRQAUUUUAFFFFABRRRQAUUUUAFFFFABRRRQAUUUUAFFeKXGr/ABMj+O/ijwz4Xt7KTTLiKzvX1DUMzxaeWgKBRCJo22u0Dfdz8x5HOa62PQfiu5LXHxF8Px5/ht/C7DH4tdNQB31FcJ/wjvxL/wCilWH/AITif/HqP+Ed+Jf/AEUqw/8ACcT/AOPUAd3RXAnR/i5bvut/HXhW8X+5deG5UP8A30l1/SpHk+L8K/LbeBb0jrm4urbP/jklAHdUV57Hq/xhKBl8H+CLhTyHj8S3ABH/AIBmnHWfjAvXwD4Rb/d8UzD+dnQB6BRXAx6/8V8/vfhvoAHqnipj/O1FSL4j+JCnEvw1tD7xeIo2/wDQoloA7qiuH/4ST4hf9E0X/wAH0H/xNH/CSfEL/omi/wDg+g/+JoA7iiuIXxJ8QCwDfDVVHr/bsPH/AI7RJ4j+IQbCfDeJh6nXoh/7JQB5r+1Hq3jDS9F8UW17q0OneEr/AEOaKzlXTRcI0/lOGt5n3BoXc4Eb8rk4IzgNvfCjxJ411zxfbWsHijR/E3hu0tT/AGlfWmkG2ijm2jZDFL5ziVweXwMKBgnJwOg1jUfGms6Pd6VqvwqtLyzuojDNby67CySowwQ3ydKS21T4o2tvHaab8M/C9pbRKFjRvE7Kqj0CpaHFAHolFcAmofGSQn/il/A9sO27XrmQj8rUVKy/F6ZcLP4Gszxz5N1cY9T96P8AKgDuqK4BdF+L0xBn8feFbYd1t/DErfhl7s/yqZ/C/j+VQJPijPCccm20O2XJ/wCBh+KAO5orz8+A/FkhH2j4weLiO4htNOj/APbY1Inw7viD9q+Jfjq4z1/0y3iz/wB+4Fx+FAHeUVwc/wAL9NuWzeeKvHVxz0HiW6hH0xE60xPhD4NyWlfxNcMepm8T6i+fznoA7+iuG/4VJ4AKBH0WeRR2k1K5fP1zJzT1+E3w6Vdq+FbPH+8//wAVQB21FcV/wqf4d/8AQq2f/fT/APxVH/Cp/h3/ANCrZ/8AfT//ABVAHa0V5b4s8NaL4EGmar4M0iCw1i+1O302KR7ic26CdwjPJCsgWTauSAe+ORXqVABRRRQAUUUUAFcJ+0MrN8C/GxXqmiXMn/fMZb+ld3XD/tA/8kL8df8AYv3v/oh6AO0tnEltFIOjIGH4ipKraV/yC7T/AK4J/wCgirNABRRRQAUUUUAFFFFABRRRQAUUUUAFFFFABRRRQAUUUUAFFFFABRRRQAUUUUAFFFFABRRRQAUUUUAFFFFABRRRQAUUUUAFFFFABRRRQAUUUUAFFFFABRRRQAUUUUAFFFFABRRRQAUUUUAFFFFABRRRQAUUUUAFFFFAHBWUZtv2gdTbot/4XtWx6tBdTgn8BOv513tcBq5MP7QXhxh0ufDOpRt77LizYf8AoRrv6ACqusalY6PpV3qup3UdrZWkLTXE0hwsaKMsxPsBVqvOvjpcWotPCmmapNHb6NqPiO2i1KSVwkflRpJOqOx4CtLFEpB4O7HegCL4YfFKHxdrl5Y6jZv4fllc/wBk6dqNtPb3tzEoO6UiRVRsjBCxlto5Y5OBq/Ha4ubf4QeJvsczwXE1i1tHIhwyNKRGCD2Pz8Vja1qtp4/8c6HpPhlob+w8P6impapq0RDwwyIjBLaJxw0rF/mxnagIPLAVm/tDah44bwfrFrp3hvSY9HhktmfULzU2DuBNE2VhSM8A8Hc68An0oA6n4SaHceCfhkmlXtsLcWM99LFArhhFAbmaSJAQSMCMoMZ46VzP7OGreKdSs7yTxFfX1+l7p2naxDLcjKxvdxu8kMZwP3aFVwvOM+9S+KfEvjTw4ssXi57G9tLyyuAlv4f8OX9zIrBMAtMrMiAEj7yjI6YqP4QePtNsfgzol1qmk69punaP4at57m/urBkgZY4E3bD9589RgcjpQB65RXiGj2+gXPxut7qaddXbxCv9q2Dx6jKl3pbQxRZgmiR9phPUZ4DsVIOQad8Rm8TeKfjJL4bsPDNvrOlaDpUF21tfay1lbSz3EjhZXEaSNJtELKFYAA7jj7poA9W8T+JvDXhu1WbxLr+laPBLlUa/u44Ff1A3kZ69q4j9m/xR4f1v4cWGmaT4gsNSutNR4poYbtZZIIhLIsO8Akj5FGM9cVuabd6leeE7vxB4o0rw7LdWkc0toNLuDeIqKvIEsiJ8xZSDgAcD0qH4BWa2fwV8GLsUSPolpJIQACzNErEn8WNAHcUUVzPizxvo/hfUIrXVrTXNksfmC5tdHubqBeSMM8SMFPGcHHGKAOmorwbw38WfDVjqHxA8S3Gp6rqt3FqPlWOnYnUm1it4iqRROAiMXaU8gMxOCcYr3OxuY7yygvIlkWOeNZEEiFWAYZGQeQeehoAmorzmH/hNtY1fWZdO+JHhiCxg1B4LeC201bp4VVVOyZjKuJQScr6YPGcDd8E6f4ytLi4k8TeLtM1yFlxDHaaT9l8s56lvNfdx2wKAOprzL48fEDVvBNnp40C3tLm72z6lfpcAkJp1soadlA/iJaNFJ4y+e1em15R8dfDcNv4C+JXiua6luLq78LzWUEbDC2sKROxVfd3Ysx74UfwigD1ZGDorryGGR9K5r4peKP8AhD/Amp67FCLm9ij8uwtu9zdOdkMQA5O5yo47Zrctbi3Vba1aeJbiSHekRcb2UYBIHUgZGT7isO40zwv4svrPxD5yai2mPcQWrC4LQQzBmikbZnaZFKum4jK/MARk0ASfDHXLrxN8OPDfiO9jijutT0q2u51iBCB5IlZgoOTjJOOaueMPEGn+FvDl5ruqM/2e2UHZGu6SVyQqRov8TsxCqO5IrhfgT4m8P2Xwo8D6Hfa5psOqGwi0+O0a5UTPNEpRkCZySCjZ47Unxni1DUvGXgbRLLVLPTC1zc38U95B50JuII1EalN6b2AlkdRu+9GDg7aAO58H3XiG80VLrxNptnpl7KxdbS2uDN5MZA2q7lQC45zgY9CetbFeffDzXtem8ca74V1PW7HxHBptrBMdRtbTyDDNIXzbSBWZCwVVfjBAYZHIJ9BoAKKKKAOF+MTlYPCeMfN4q08H/v4a7quE+MQ3L4PjBG9vFVhtHrtLsf8Ax1Sfwru6ACiiigAooooAK4f9oH/khfjr/sX73/0Q9dxXE/H1d3wN8dKP+hevj/5AegDrdK/5Bdp/1wT/ANBFWaq6Qc6TZn/pgn/oIq1QAUUUUAFFFFABRRRQAUUUUAFFFFABRRRQAUUUUAFFFFABRRRQAUUUUAFFFFABRRRQAUUUUAFFFFABRRRQAUUUUAFFFFABRRRQAUUUUAFFFFABRRRQAUUUUAFFFFABRRRQAUUUUAFFFFABRRRQAUUUUAFFFFABRRRQB5h8SNUsPDfxc8JeJPEGp6ZpOhwaXqVs93eXaRfvpGtisYDEFsiNjxnoc44rQX40/CVjj/hYnhse7X6AfmTXZXGk6bcaxbaxPZQyX9rDJDBOy5aNHKl1HpkoufpVsojDBRSPcUAcdB8WPhfOMxfEXwm3/cXgH/s1LfeP/hff2j2t9408H3VvIMPFNqdu6MPcFsGunk0vTJCTJp1o5PUtCp/pUP8AYGhf9AXTf/AVP8KAOesPH3wvsLVLSx8aeD7W3QYSKHU7dEX6ANgVxn7Q3jPRNV+C/iWx8K+IfDWr6jcWbRpbLq0W9geCY8McuvDAdyMdTXqf9gaF/wBAXTf/AAFT/Cmf8I14c5/4p/Suev8Aocf+FAGHqeveGfEfg2704eLtOtZL+xaFprbUo1khZ0xlWDcMCfzrA/Z28Q6RrPwK8KQ3NxZh4dMTT7i3mkU5aDMDgqeoJQ/ga7GXwT4MmLGXwjoEhbru06E5/wDHax4/hD8K0hMX/Cu/CzqXZ/3mlwucsxY8spOMk8dB0GBQBv8Ah/RPDGimT+wNJ0fTjL9/7Fbxxb/rsAzWD4i+HVlrPiq619fEXiLTGvrWG1vrfTrwQJcpEXMeXC+YpHmv9x1znmoZPgz8JpBz8OPC6+6abEp/QUJ8HfhjGwaHwZpluQePIVov/QSKAOr0bQ9K0fQINB0+yjh02CHyUg5YbD1BJyWzk5JyTk5q3YWlrp9jb2Nlbx29rbxLFDDGu1Y0UYVQOwAAFcXL8I/h+7My6JNCzDBMGo3MWf8AviQVAfhB4RUg2954ttcdPJ8Vaio/9H0Aeg0VwMXws0uInyfFnjxB2H/CT3bAf99Oaenw0hjkDx+OPHi4PQ67I4P/AH0DQA/4Y6Pq2meIPHd3qIljttR8QG4so2UAGL7NApkBHJ3MrDn+7XcV45r3hfVrL4peHtHHxA8Zx6Tq2n3gAXUE3LdQmJ15KHIMbScf7FdM/wAOtRK7Y/ih49j+l1aN/wChW5oAt6j8KvhnqV/Pf3/gDwxc3U7mSaaTTIWeRjyWY7eSfWtXwn4P8K+Elul8L+HtN0ZbpladbK3WJZCoIUkKMcZP51zn/CvvESDEPxf8cL6b49Of+drTk8E+NI/u/F/xG/p5mm6cf5W4oAh+KvjGK2ku/BVjYeKZ9Yu9NNws+iCCOS2iZigkWSeRE3Bh2zjIzjIryfxBFea5oN7pviWXxlNBcwtHN/avjfTbFWVhg7o7YlMY7FSPY811uofs+Weo6xd6xqWvWGpX95L5txcX/hqxnd2wBn5kwOAOBgVfs/go1mgS013RLdRyBH4P05f5R0AcLpfizw54Q1b+09P0v4exanHG0KXer/Eprq4VGxuAZ45GAOBkAjpXO6l4i8B6tqc17J4T+BVze3MzSTP/AGxPctJIxyWIjs+SSSSe5r3CD4b+JLckweOoIif7nhqxX+S1oJ4R8eRjanxRuFHoNDtB/SgDx/w748Xw9geGfCPgDTH+4W0nQ9WkJ9RmOxXP51o+JPHOu+LNO/s3VvCGnavY5DGO78D6xcx7h3CvGBn3r1L/AIRbx7s/5KjdF89Totrj8tv9aa/h34mLjyfiTpxIH/Lbw4rA/wDfMy0AedfDLxF48fUj4R8NeFNM8NWECtJFNP4JvbGxfgE7SZxg5OPmVSSOM177b+cLeMXBjabYPMMYIUtjnAPIGa4I6L8X0OY/H/hSQeknheUfyu6U6Z8ZB08Y+CG+vhu5H/t5QB39Fef/ANm/GX/obvA3/hOXP/yZTks/jJE2W8ReBLlf7p0S6iP5/aW/lQAnjTGq/FzwPoqhmXThea5PjouyL7NHn6tcsR/uH0rv68v8EaV8QU+M+u634ms9FNhLpFlaRXNo8oHyPcOVjVs5O5xvyR/BjPOPUKACiiigAooooAK5P4zRed8IPGcPXfoF8v52711lYHxIQS/DvxLGeQ+k3Sn8YWoAveF2LeGdKZups4Sf++BWjWN4FcyeCNBkPVtNtyfxiWtmgAooooAKKKKACiiigAooooAKKKKACiiigAooooAKKKKACiiigAooooAKKKKACiiigAooooAKKKKACiiigAooooAKKKKACiiigAooooAKKKKACiiigAooooAKKKKACiiigAooooAKKKKACiiigAooooAKKKKACiiigAooooAKKKKACiiigAooooAKKKKACiiigAooooA4D4pBofGXw3v0zlPEUkDf7sthdKf1C/lXf1wvxeGJfBcnQJ4qs8n0ysq/zYD8a7qgAooooAKKKKACiiigAooooAKKKKACiiigAooooAKKKKACiiigArE8fpJL4E8QRxf6x9MuVT6mJsVt1DfW63dlPayfcmjaNvoRj+tAGN8N5Fm+HfhqZDuV9JtWU+oMK1v1w/wCmkl+DHhSOZszWmmx2U3PSSAeS4/BoyK7igAooooAKKKKACiiigAooooAKKKKACiiigAooooAKKKKACiiigAooooAKKKKACiiigAooooAKKKKACiiigAooooAKKKKACiiigAooooAKKKKACiiigAooooAKKKKACiiigAooooAKKKKACiiigAooooAKKKKACiiigAooooAKKKKACiiigAooooAKKKKACiiigAooooA434uaLr2teH9P/4RyK0m1DT9Ys9QWG5nMKSrDKHZN+1tpIBGcHrVFdS+MkzAjwj4JtV9JPENzI3/AI7aAV6BRQBwfnfGI8/2b4DX2+33Z/XyRSiT4wt1s/Aie/2q7b/2mK7uigDgZLT4xzH5Ne8C2g9BpF1N+v2hf5Uz+y/jJ/0Ofgr/AMJu4/8AkuvQaKAPPv7L+Mn/AEOngsf9y3cf/JlL/Y3xgPXx94SH08LTf/JlegUUAef/ANi/F/8A6KB4T/8ACWl/+TKDpHxij+ZPHPg+Y/3ZPDM6g/iLyvQKKAOC+x/GIf8AMweBT7/2NdD/ANuacsHxgThtT8Cze/8AZ90n4Y84/wA67uigDhcfF9TnzPAsv+zsukz+OT/Ko5Lz4yRkbfD/AIEuAOp/tm6jz+H2Zsfma76igDgo/EXxPhUre/DfTJ2HRrDxGrqf+/sMZFO/4Sn4hf8ARLJv/B7bV3dFAHCf8JT8Qv8Aolk3/g9tqP8AhKfiEf8Amlso+uu22K7uigDhT4o+ISnB+Fzt7prtuR+oFJ/wlPxC/wCiWTf+D22ru6KAOE/4Sn4hf9Esm/8AB7bVTuPEvxcn1GKDTvhfpVvblCZLjUfEiKFYdtsUTnnjn+XWvR6KAOQ+E2g6v4e8NXVtrUdlBc3ep3d/9ls52mhthPM0nlq7KpblmOdo5bGK6+iigAooooAKKKKACiiigAooooAKKKKACiiigAooooAKKKKACiiigAooooAKKKKACiiigAooooAKKKKACiiigAooooAKKKKACiiigAooooAKKKKACiiigAooooAKKKKACiiigAooooAKKKKACiiigAooooAKKKKACiiigAooooAKKKKACiiigAooooAKKKKACiiigAooooAKKKKACiiigAooooAKKKKACiiigAooooAKKKKACiiigAooooAKKKKACiiigAooooAKKKKACiiigAooooAKKKKACiiigAooooAKKKKACiiigAooooAKKKKACiiigAooooAKKKKAP//Z&quot; alt=&quot;A diagram of a flowchart&#xa;&#xa;Description automatically generated&quot; data-image-width-mu=&quot;13.9015151515152&quot; data-image-height-mu=&quot;14.8989898989899&quot; data-from-ppt-online=&quot;true&quot; class=&quot;CID7de4941e-c682-47b8-90a9-9b0e9ecd5e30&quot; style=&quot;color: rgb(0, 0, 0); font-family: Times; font-size: medium; font-style: normal; font-variant-ligatures: normal; font-variant-caps: normal; font-weight: 400; letter-spacing: normal; orphans: 2; text-align: start; text-indent: 0px; text-transform: none; widows: 2; word-spacing: 0px; -webkit-text-stroke-width: 0px; white-space: normal; text-decoration-thickness: initial; text-decoration-style: initial; text-decoration-color: initial;&quot;&gt;" style="text;whiteSpace=wrap;html=1;" vertex="1" parent="WIyWlLk6GJQsqaUBKTNV-1">
          <mxGeometry x="930" y="50" width="210" height="210" as="geometry" />
        </mxCell>
        <mxCell id="9ebifKDBvj5PMloUpHeM-3" value="" style="edgeStyle=orthogonalEdgeStyle;rounded=0;orthogonalLoop=1;jettySize=auto;html=1;fontSize=25;" edge="1" parent="WIyWlLk6GJQsqaUBKTNV-1" source="9ebifKDBvj5PMloUpHeM-1" target="9ebifKDBvj5PMloUpHeM-2">
          <mxGeometry relative="1" as="geometry" />
        </mxCell>
        <mxCell id="9ebifKDBvj5PMloUpHeM-1" value="Begin" style="ellipse;whiteSpace=wrap;html=1;fontSize=25;" vertex="1" parent="WIyWlLk6GJQsqaUBKTNV-1">
          <mxGeometry x="470" y="-20" width="110" height="40" as="geometry" />
        </mxCell>
        <mxCell id="9ebifKDBvj5PMloUpHeM-5" value="" style="edgeStyle=orthogonalEdgeStyle;rounded=0;orthogonalLoop=1;jettySize=auto;html=1;fontSize=25;" edge="1" parent="WIyWlLk6GJQsqaUBKTNV-1" source="9ebifKDBvj5PMloUpHeM-2" target="9ebifKDBvj5PMloUpHeM-4">
          <mxGeometry relative="1" as="geometry" />
        </mxCell>
        <mxCell id="9ebifKDBvj5PMloUpHeM-2" value="Read/Verify AES Key" style="whiteSpace=wrap;html=1;fontSize=25;" vertex="1" parent="WIyWlLk6GJQsqaUBKTNV-1">
          <mxGeometry x="360" y="50" width="330" height="40" as="geometry" />
        </mxCell>
        <mxCell id="9ebifKDBvj5PMloUpHeM-8" value="" style="edgeStyle=orthogonalEdgeStyle;rounded=0;orthogonalLoop=1;jettySize=auto;html=1;fontSize=25;" edge="1" parent="WIyWlLk6GJQsqaUBKTNV-1" source="9ebifKDBvj5PMloUpHeM-4" target="9ebifKDBvj5PMloUpHeM-7">
          <mxGeometry relative="1" as="geometry" />
        </mxCell>
        <mxCell id="9ebifKDBvj5PMloUpHeM-4" value="Connect to TCP Endpoint" style="whiteSpace=wrap;html=1;fontSize=25;" vertex="1" parent="WIyWlLk6GJQsqaUBKTNV-1">
          <mxGeometry x="360" y="110" width="330" height="40" as="geometry" />
        </mxCell>
        <mxCell id="9ebifKDBvj5PMloUpHeM-10" value="" style="edgeStyle=orthogonalEdgeStyle;rounded=0;orthogonalLoop=1;jettySize=auto;html=1;fontSize=25;" edge="1" parent="WIyWlLk6GJQsqaUBKTNV-1" source="9ebifKDBvj5PMloUpHeM-7" target="9ebifKDBvj5PMloUpHeM-9">
          <mxGeometry relative="1" as="geometry" />
        </mxCell>
        <mxCell id="9ebifKDBvj5PMloUpHeM-37" value="" style="edgeStyle=orthogonalEdgeStyle;rounded=0;orthogonalLoop=1;jettySize=auto;html=1;fontSize=25;" edge="1" parent="WIyWlLk6GJQsqaUBKTNV-1" source="9ebifKDBvj5PMloUpHeM-7" target="9ebifKDBvj5PMloUpHeM-9">
          <mxGeometry relative="1" as="geometry" />
        </mxCell>
        <mxCell id="9ebifKDBvj5PMloUpHeM-7" value="&lt;div style=&quot;font-size: 25px;&quot;&gt;Transmit IV&lt;br style=&quot;font-size: 25px;&quot;&gt;&lt;/div&gt;" style="whiteSpace=wrap;html=1;fontSize=25;" vertex="1" parent="WIyWlLk6GJQsqaUBKTNV-1">
          <mxGeometry x="360" y="170" width="330" height="40" as="geometry" />
        </mxCell>
        <mxCell id="9ebifKDBvj5PMloUpHeM-12" value="" style="edgeStyle=orthogonalEdgeStyle;rounded=0;orthogonalLoop=1;jettySize=auto;html=1;fontSize=25;" edge="1" parent="WIyWlLk6GJQsqaUBKTNV-1" source="9ebifKDBvj5PMloUpHeM-9" target="9ebifKDBvj5PMloUpHeM-11">
          <mxGeometry relative="1" as="geometry" />
        </mxCell>
        <mxCell id="9ebifKDBvj5PMloUpHeM-9" value="T&lt;sub style=&quot;font-size: 25px;&quot;&gt;p&lt;/sub&gt;=0 ms &amp;amp; Frame&lt;sub style=&quot;font-size: 25px;&quot;&gt;N&lt;/sub&gt;= 0" style="whiteSpace=wrap;html=1;fontSize=25;" vertex="1" parent="WIyWlLk6GJQsqaUBKTNV-1">
          <mxGeometry x="360" y="230" width="330" height="40" as="geometry" />
        </mxCell>
        <mxCell id="9ebifKDBvj5PMloUpHeM-15" value="" style="edgeStyle=orthogonalEdgeStyle;rounded=0;orthogonalLoop=1;jettySize=auto;html=1;entryX=0.5;entryY=1;entryDx=0;entryDy=0;fontSize=25;" edge="1" parent="WIyWlLk6GJQsqaUBKTNV-1" source="9ebifKDBvj5PMloUpHeM-11" target="9ebifKDBvj5PMloUpHeM-14">
          <mxGeometry relative="1" as="geometry" />
        </mxCell>
        <mxCell id="9ebifKDBvj5PMloUpHeM-41" style="edgeStyle=orthogonalEdgeStyle;rounded=0;orthogonalLoop=1;jettySize=auto;html=1;exitX=0.5;exitY=1;exitDx=0;exitDy=0;" edge="1" parent="WIyWlLk6GJQsqaUBKTNV-1" source="9ebifKDBvj5PMloUpHeM-11" target="9ebifKDBvj5PMloUpHeM-17">
          <mxGeometry relative="1" as="geometry" />
        </mxCell>
        <mxCell id="9ebifKDBvj5PMloUpHeM-11" value="&lt;font style=&quot;font-size: 25px;&quot;&gt;T&lt;sub style=&quot;font-size: 25px;&quot;&gt;c&amp;nbsp;&lt;/sub&gt;- T&lt;sub style=&quot;font-size: 25px;&quot;&gt;p&amp;nbsp;&lt;/sub&gt;&amp;gt; 10 ms&lt;/font&gt;" style="rhombus;whiteSpace=wrap;html=1;fontSize=25;" vertex="1" parent="WIyWlLk6GJQsqaUBKTNV-1">
          <mxGeometry x="400" y="310" width="250" height="90" as="geometry" />
        </mxCell>
        <mxCell id="9ebifKDBvj5PMloUpHeM-16" style="edgeStyle=orthogonalEdgeStyle;rounded=0;orthogonalLoop=1;jettySize=auto;html=1;entryX=0.5;entryY=0;entryDx=0;entryDy=0;fontSize=25;exitX=0.5;exitY=0;exitDx=0;exitDy=0;" edge="1" parent="WIyWlLk6GJQsqaUBKTNV-1" source="9ebifKDBvj5PMloUpHeM-14" target="9ebifKDBvj5PMloUpHeM-11">
          <mxGeometry relative="1" as="geometry">
            <mxPoint x="530" y="290" as="targetPoint" />
            <Array as="points">
              <mxPoint x="770" y="290" />
              <mxPoint x="525" y="290" />
            </Array>
          </mxGeometry>
        </mxCell>
        <mxCell id="9ebifKDBvj5PMloUpHeM-14" value="Sleep 5 ms" style="whiteSpace=wrap;html=1;fontSize=25;" vertex="1" parent="WIyWlLk6GJQsqaUBKTNV-1">
          <mxGeometry x="680" y="312.5" width="180" height="27.5" as="geometry" />
        </mxCell>
        <mxCell id="9ebifKDBvj5PMloUpHeM-20" value="" style="edgeStyle=orthogonalEdgeStyle;rounded=0;orthogonalLoop=1;jettySize=auto;html=1;fontSize=25;" edge="1" parent="WIyWlLk6GJQsqaUBKTNV-1" source="9ebifKDBvj5PMloUpHeM-17" target="9ebifKDBvj5PMloUpHeM-19">
          <mxGeometry relative="1" as="geometry" />
        </mxCell>
        <mxCell id="9ebifKDBvj5PMloUpHeM-17" value="Offset = 0" style="whiteSpace=wrap;html=1;fontSize=25;" vertex="1" parent="WIyWlLk6GJQsqaUBKTNV-1">
          <mxGeometry x="465" y="470.63" width="120" height="32.5" as="geometry" />
        </mxCell>
        <mxCell id="9ebifKDBvj5PMloUpHeM-22" value="" style="edgeStyle=orthogonalEdgeStyle;rounded=0;orthogonalLoop=1;jettySize=auto;html=1;fontSize=25;" edge="1" parent="WIyWlLk6GJQsqaUBKTNV-1" source="9ebifKDBvj5PMloUpHeM-19" target="9ebifKDBvj5PMloUpHeM-21">
          <mxGeometry relative="1" as="geometry" />
        </mxCell>
        <mxCell id="9ebifKDBvj5PMloUpHeM-19" value="Read Frame" style="whiteSpace=wrap;html=1;fontSize=25;" vertex="1" parent="WIyWlLk6GJQsqaUBKTNV-1">
          <mxGeometry x="430" y="530" width="190" height="33.75" as="geometry" />
        </mxCell>
        <mxCell id="9ebifKDBvj5PMloUpHeM-24" value="" style="edgeStyle=orthogonalEdgeStyle;rounded=0;orthogonalLoop=1;jettySize=auto;html=1;entryX=0.5;entryY=1;entryDx=0;entryDy=0;fontSize=25;" edge="1" parent="WIyWlLk6GJQsqaUBKTNV-1" source="9ebifKDBvj5PMloUpHeM-21" target="9ebifKDBvj5PMloUpHeM-23">
          <mxGeometry relative="1" as="geometry" />
        </mxCell>
        <mxCell id="9ebifKDBvj5PMloUpHeM-29" value="" style="edgeStyle=orthogonalEdgeStyle;rounded=0;orthogonalLoop=1;jettySize=auto;html=1;fontSize=25;" edge="1" parent="WIyWlLk6GJQsqaUBKTNV-1" source="9ebifKDBvj5PMloUpHeM-21" target="9ebifKDBvj5PMloUpHeM-28">
          <mxGeometry relative="1" as="geometry" />
        </mxCell>
        <mxCell id="9ebifKDBvj5PMloUpHeM-21" value="Offset &amp;lt;&amp;nbsp;&lt;div&gt;Frame size&lt;/div&gt;" style="rhombus;whiteSpace=wrap;html=1;fontSize=25;" vertex="1" parent="WIyWlLk6GJQsqaUBKTNV-1">
          <mxGeometry x="430" y="600" width="190" height="90" as="geometry" />
        </mxCell>
        <mxCell id="9ebifKDBvj5PMloUpHeM-26" value="" style="edgeStyle=orthogonalEdgeStyle;rounded=0;orthogonalLoop=1;jettySize=auto;html=1;fontSize=25;" edge="1" parent="WIyWlLk6GJQsqaUBKTNV-1" source="9ebifKDBvj5PMloUpHeM-23" target="9ebifKDBvj5PMloUpHeM-25">
          <mxGeometry relative="1" as="geometry" />
        </mxCell>
        <mxCell id="9ebifKDBvj5PMloUpHeM-23" value="Frame&lt;sub style=&quot;font-size: 25px;&quot;&gt;N&lt;/sub&gt;++" style="whiteSpace=wrap;html=1;fontSize=25;" vertex="1" parent="WIyWlLk6GJQsqaUBKTNV-1">
          <mxGeometry x="230" y="530" width="180" height="33.75" as="geometry" />
        </mxCell>
        <mxCell id="9ebifKDBvj5PMloUpHeM-27" style="edgeStyle=orthogonalEdgeStyle;rounded=0;orthogonalLoop=1;jettySize=auto;html=1;entryX=0.5;entryY=0;entryDx=0;entryDy=0;exitX=0.5;exitY=0;exitDx=0;exitDy=0;fontSize=25;" edge="1" parent="WIyWlLk6GJQsqaUBKTNV-1" source="9ebifKDBvj5PMloUpHeM-25" target="9ebifKDBvj5PMloUpHeM-11">
          <mxGeometry relative="1" as="geometry">
            <Array as="points">
              <mxPoint x="320" y="290" />
              <mxPoint x="525" y="290" />
            </Array>
          </mxGeometry>
        </mxCell>
        <mxCell id="9ebifKDBvj5PMloUpHeM-25" value="T&lt;sub style=&quot;font-size: 25px;&quot;&gt;p&lt;/sub&gt;+= 10 ms" style="whiteSpace=wrap;html=1;fontSize=25;" vertex="1" parent="WIyWlLk6GJQsqaUBKTNV-1">
          <mxGeometry x="220" y="470" width="200" height="33.13" as="geometry" />
        </mxCell>
        <mxCell id="9ebifKDBvj5PMloUpHeM-31" value="" style="edgeStyle=orthogonalEdgeStyle;rounded=0;orthogonalLoop=1;jettySize=auto;html=1;fontSize=25;" edge="1" parent="WIyWlLk6GJQsqaUBKTNV-1" source="9ebifKDBvj5PMloUpHeM-28" target="9ebifKDBvj5PMloUpHeM-30">
          <mxGeometry relative="1" as="geometry" />
        </mxCell>
        <mxCell id="9ebifKDBvj5PMloUpHeM-28" value="Build/Encode/Transmit" style="whiteSpace=wrap;html=1;fontSize=25;" vertex="1" parent="WIyWlLk6GJQsqaUBKTNV-1">
          <mxGeometry x="370" y="760" width="310" height="30" as="geometry" />
        </mxCell>
        <mxCell id="9ebifKDBvj5PMloUpHeM-32" style="edgeStyle=orthogonalEdgeStyle;rounded=0;orthogonalLoop=1;jettySize=auto;html=1;entryX=0.5;entryY=0;entryDx=0;entryDy=0;fontSize=25;exitX=0.5;exitY=1;exitDx=0;exitDy=0;" edge="1" parent="WIyWlLk6GJQsqaUBKTNV-1" source="9ebifKDBvj5PMloUpHeM-30" target="9ebifKDBvj5PMloUpHeM-21">
          <mxGeometry relative="1" as="geometry">
            <Array as="points">
              <mxPoint x="525" y="870" />
              <mxPoint x="730" y="870" />
              <mxPoint x="730" y="580" />
              <mxPoint x="525" y="580" />
            </Array>
          </mxGeometry>
        </mxCell>
        <mxCell id="9ebifKDBvj5PMloUpHeM-30" value="Offset += 116" style="whiteSpace=wrap;html=1;fontSize=25;" vertex="1" parent="WIyWlLk6GJQsqaUBKTNV-1">
          <mxGeometry x="420" y="820" width="210" height="30" as="geometry" />
        </mxCell>
        <mxCell id="9ebifKDBvj5PMloUpHeM-33" value="No" style="text;html=1;align=center;verticalAlign=middle;resizable=0;points=[];autosize=1;strokeColor=none;fillColor=none;fontSize=25;labelBackgroundColor=default;" vertex="1" parent="WIyWlLk6GJQsqaUBKTNV-1">
          <mxGeometry x="354" y="625" width="60" height="40" as="geometry" />
        </mxCell>
        <mxCell id="9ebifKDBvj5PMloUpHeM-34" value="&lt;font style=&quot;font-size: 25px;&quot;&gt;No&lt;/font&gt;" style="text;html=1;align=center;verticalAlign=middle;resizable=0;points=[];autosize=1;strokeColor=none;fillColor=none;fontSize=25;labelBackgroundColor=default;" vertex="1" parent="WIyWlLk6GJQsqaUBKTNV-1">
          <mxGeometry x="650" y="345" width="60" height="40" as="geometry" />
        </mxCell>
        <mxCell id="9ebifKDBvj5PMloUpHeM-36" value="Yes" style="text;html=1;align=center;verticalAlign=middle;resizable=0;points=[];autosize=1;strokeColor=none;fillColor=none;fontSize=25;labelBackgroundColor=default;" vertex="1" parent="WIyWlLk6GJQsqaUBKTNV-1">
          <mxGeometry x="495" y="700" width="60" height="40" as="geometry" />
        </mxCell>
        <mxCell id="9ebifKDBvj5PMloUpHeM-35" value="&lt;font style=&quot;font-size: 25px;&quot;&gt;Yes&lt;/font&gt;" style="text;html=1;align=center;verticalAlign=middle;resizable=0;points=[];autosize=1;strokeColor=none;fillColor=none;fontSize=25;labelBackgroundColor=default;" vertex="1" parent="WIyWlLk6GJQsqaUBKTNV-1">
          <mxGeometry x="495" y="410" width="60" height="40" as="geometry" />
        </mxCell>
      </root>
    </mxGraphModel>
  </diagram>
</mxfile>
